<?xml version="1.0" encoding="utf-8"?>
<!-- Generator: Adobe Illustrator 24.3.0, SVG Export Plug-In . SVG Version: 6.00 Build 0)  -->
<svg version="1.1" id="Warstwa_1" xmlns="http://www.w3.org/2000/svg" xmlns:xlink="http://www.w3.org/1999/xlink" x="0px" y="0px"
	 viewBox="0 0 190 190" enable-background="new 0 0 190 190" xml:space="preserve">
<path d="M108.2,41.9c-0.8-3.7-2.9-7.1-5.9-9.5s-6.7-3.7-10.5-3.7l0,0L91.2,26c-0.9-3.9-3.1-7.5-6.2-10s-7.1-3.9-11.1-3.9H3v3.3
	c0,5.7,2.3,10.8,6.1,14.5v2.5c0,6,2.6,11.4,6.7,15.1v1.9c0,11.2,9.1,20.4,20.4,20.4h2.2C40.9,77.4,48.2,83,56.6,83h60.6L108.2,41.9z
	 M22.9,52.9h35.4v-6.7H29.5c-6.4,0-11.8-4.4-13.3-10.3h35.4v-6.7H23.4c-6.4,0-11.8-4.4-13.3-10.3h63.8c5.1,0,9.6,3.6,10.7,8.6
	l7.8,35.7H36.2C29.8,63.3,24.4,58.9,22.9,52.9z M45.7,70h55.1l-7.5-34.4c4.1,0.6,7.4,3.7,8.3,7.8l7.3,33.1H56.7
	C52,76.4,47.8,73.8,45.7,70z"/>
<text transform="matrix(1 0 0 1 85.0117 167.7311)" font-family="'Bentham-Regular'" font-size="190px">S</text>
</svg>
