<svg id="b29d2d0a-52a4-44ce-91b1-cbd82a58d7c8" data-name="Warstwa 1" xmlns="http://www.w3.org/2000/svg" xmlns:xlink="http://www.w3.org/1999/xlink" viewBox="0 0 430.8 339.78"><defs><style>.fc51bdc2-6735-41e7-9967-6ad5c7a24eaa{fill:url(#aa0c9263-7561-419c-92f3-c8f1088adac0);}.a0b1436a-5164-4086-8f04-c5c6c2720e16{fill:#132b2a;}.f9949b7e-9217-4a7c-a04e-b6b3453b81e3{fill:url(#f246b13b-592f-4d08-99f5-94a67cc7818d);}.f8e78b7f-9ce7-4e99-a29d-2a50c855a7c3{fill:url(#ac33fb4d-79a2-432f-bac5-3fb797ed14d8);}.f2ed78ea-0140-4b0d-a0e2-35f282eeb1b4{fill:url(#e6aa394b-564d-4d2d-b691-c6e728a353d3);}.a3f264c5-6edd-4ec8-983c-3e183c61b035,.f50312c2-fefa-4552-9043-aad305a73b93{fill:none;stroke:#00de92;stroke-miterlimit:10;}.f50312c2-fefa-4552-9043-aad305a73b93{stroke-dasharray:12.03 12.03;}</style><radialGradient id="aa0c9263-7561-419c-92f3-c8f1088adac0" cx="233.28" cy="272.65" r="148.86" gradientTransform="translate(-36.28 209.42) scale(1 0.16)" gradientUnits="userSpaceOnUse"><stop offset="0.01" stop-color="#03002a" stop-opacity="0.8"/><stop offset="0.48" stop-color="#05002b" stop-opacity="0.37"/><stop offset="1" stop-color="#06002c" stop-opacity="0"/></radialGradient><linearGradient id="f246b13b-592f-4d08-99f5-94a67cc7818d" x1="-14.78" y1="133.5" x2="358.81" y2="108.88" gradientUnits="userSpaceOnUse"><stop offset="0" stop-color="#0c56ea"/><stop offset="0.84" stop-color="#0c15a1"/></linearGradient><linearGradient id="ac33fb4d-79a2-432f-bac5-3fb797ed14d8" x1="101.85" y1="194.08" x2="149.32" y2="-2.74" gradientUnits="userSpaceOnUse"><stop offset="0.46" stop-color="#123d3a"/><stop offset="0.71" stop-color="#122b3a"/><stop offset="0.91" stop-color="#12223a"/></linearGradient><linearGradient id="e6aa394b-564d-4d2d-b691-c6e728a353d3" x1="197.4" y1="-29.51" x2="164.09" y2="122.34" gradientUnits="userSpaceOnUse"><stop offset="0" stop-color="#0c56ea"/><stop offset="0.84" stop-color="#0c15ba"/></linearGradient></defs><ellipse class="fc51bdc2-6735-41e7-9967-6ad5c7a24eaa" cx="197" cy="252.64" rx="161.52" ry="29.87"/><polygon class="a0b1436a-5164-4086-8f04-c5c6c2720e16" points="197 179.4 0 33.96 196.71 129.2 197 179.4"/><polygon class="f9949b7e-9217-4a7c-a04e-b6b3453b81e3" points="374.4 0 0 33.96 48.16 237.21 374.4 0"/><polygon class="f8e78b7f-9ce7-4e99-a29d-2a50c855a7c3" points="0 33.96 196.71 129.2 197 179.4 270.99 75.19 0 33.96"/><polygon class="f2ed78ea-0140-4b0d-a0e2-35f282eeb1b4" points="0 33.96 270.99 75.19 374.4 0 0 33.96"/><line class="a3f264c5-6edd-4ec8-983c-3e183c61b035" x1="216.27" y1="198.35" x2="221.4" y2="201.45"/><path class="f50312c2-fefa-4552-9043-aad305a73b93" d="M268,227.68l52.66,31.85s23.83,15.22,44.25,52.46c15.59,28.41,66.86,41,90.28,45.38" transform="translate(-36.28 -20)"/><path class="a3f264c5-6edd-4ec8-983c-3e183c61b035" d="M461.09,358.41c3.74.61,5.93.88,5.93.88" transform="translate(-36.28 -20)"/></svg>