<?xml version="1.0" encoding="utf-8"?>
<!-- Generator: Adobe Illustrator 24.3.0, SVG Export Plug-In . SVG Version: 6.00 Build 0)  -->
<svg version="1.1" id="Warstwa_1" xmlns="http://www.w3.org/2000/svg" xmlns:xlink="http://www.w3.org/1999/xlink" x="0px" y="0px"
	 viewBox="0 0 1240 180" style="enable-background:new 0 0 1240 180;" xml:space="preserve">
<style type="text/css">
	.st0{fill:none;}
	.st1{stroke:#1D1D1B;stroke-width:1.5;stroke-miterlimit:10;}
	.st2{font-family:'Bentham-Regular';}
	.st3{font-size:190px;}
	.st4{fill:#095C7B;}
</style>
<polygon class="st0" points="83.6,27.6 1224.4,32.6 1224.4,166.1 90.6,176.1 "/>
<path class="st1" d="M113.8,38.6c-0.8-3.7-2.9-7.1-5.9-9.5s-6.7-3.7-10.5-3.7l0,0l-0.6-2.7c-0.9-3.9-3.1-7.5-6.2-10
	s-7.1-3.9-11.1-3.9H8.6v3.3c0,5.7,2.3,10.8,6.1,14.5v2.5c0,6,2.6,11.4,6.7,15.1v1.9c0,11.2,9.1,20.4,20.4,20.4H44
	c2.5,7.6,9.8,13.2,18.2,13.2h60.6L113.8,38.6z M28.5,49.6h35.4v-6.7H35.1c-6.4,0-11.8-4.4-13.3-10.3h35.4v-6.7H29
	c-6.4,0-11.8-4.4-13.3-10.3h63.8c5.1,0,9.6,3.6,10.7,8.6L98,59.9H41.8C35.4,60,30,55.6,28.5,49.6z M51.3,66.7h55.1l-7.5-34.4
	c4.1,0.6,7.4,3.7,8.3,7.8l7.3,33.1H62.3C57.6,73.1,53.4,70.5,51.3,66.7z"/>
<text transform="matrix(1 0 0 1 90.6223 164.4163)" class="st2 st3">S</text>
<text transform="matrix(1 0 0 1 228.9885 164.4163)" class="st2 st3">E</text>
<text transform="matrix(1 0 0 1 366.6121 164.4163)" class="st2 st3">L</text>
<text transform="matrix(1 0 0 1 504.9783 164.4163)" class="st2 st3">L</text>
<text transform="matrix(1 0 0 1 643.344 164.4163)" class="st2 st3">E</text>
<text transform="matrix(1 0 0 1 780.968 164.4163)" class="st4 st2 st3">A</text>
<text transform="matrix(1 0 0 1 941.4143 164.4163)" class="st4 st2 st3">D</text>
<text transform="matrix(1 0 0 1 1095.3665 164.4163)" class="st4 st2 st3">S</text>
<rect x="886" y="63" class="st0" width="27" height="5"/>
</svg>
