<?xml version="1.0" encoding="utf-8"?>
<!-- Generator: Adobe Illustrator 24.3.0, SVG Export Plug-In . SVG Version: 6.00 Build 0)  -->
<svg version="1.1" id="Warstwa_1" xmlns="http://www.w3.org/2000/svg" xmlns:xlink="http://www.w3.org/1999/xlink" x="0px" y="0px"
	 viewBox="0 0 610 210" style="enable-background:new 0 0 610 210;" xml:space="preserve">
<style type="text/css">
	.st0{fill:#FFFFFF;}
	.st1{fill:none;}
	.st2{font-family:'Bentham-Regular';}
	.st3{font-size:93px;}
	.st4{fill:#095C7B;}
	.st5{fill:none;stroke:#095C7B;stroke-width:10;stroke-miterlimit:10;}
</style>
<g id="Warstwa_1_1_">
	<path class="st0" d="M76.3,120.5c-0.5-2.4-1.8-4.5-3.7-6c-1.9-1.5-4.3-2.4-6.7-2.4l0,0l-0.4-1.7c-0.5-2.5-1.9-4.8-3.9-6.4
		s-4.5-2.5-7.1-2.5H9.4v2.1c0,3.6,1.5,6.9,3.9,9.2v1.6c0,3.8,1.7,7.2,4.3,9.6v1.2c0,7.1,5.8,13,13,13H32c1.6,4.9,6.2,8.4,11.6,8.4
		H82L76.3,120.5z M22.1,127.5h22.5v-4.3H26.2c-4.1,0-7.5-2.8-8.4-6.6h22.5v-4.3h-18c-4.1,0-7.5-2.8-8.4-6.6h40.6
		c3.3,0,6.1,2.3,6.8,5.5l5,22.7H30.5C26.4,134.1,23,131.3,22.1,127.5z M36.5,138.3h35.1l-4.8-21.9c2.6,0.4,4.7,2.3,5.3,4.9l4.6,21
		H43.5C40.5,142.4,37.9,140.8,36.5,138.3z"/>
	<rect y="127.8" class="st1" width="610" height="77"/>
	<text transform="matrix(1 0 0 1 64.8924 187.4208)" class="st0 st2 st3">S</text>
	<text transform="matrix(1 0 0 1 132.619 187.4208)" class="st0 st2 st3">E</text>
	<text transform="matrix(1 0 0 1 199.9823 187.4208)" class="st0 st2 st3">L</text>
	<text transform="matrix(1 0 0 1 267.7088 187.4208)" class="st0 st2 st3">L</text>
	<text transform="matrix(1 0 0 1 335.4354 187.4208)" class="st0 st2 st3">E</text>
	<text transform="matrix(1 0 0 1 402.7986 187.4208)" class="st4 st2 st3">A</text>
	<text transform="matrix(1 0 0 1 481.3328 187.4208)" class="st4 st2 st3">D</text>
	<text transform="matrix(1 0 0 1 556.6883 187.4208)" class="st4 st2 st3">S</text>
</g>
<g id="Warstwa_2_1_">
	<path class="st5" d="M286,115C286,55.5,335.7,7.3,397.1,7.3s111,48.2,111,107.7"/>
</g>
<rect x="529.1" y="163.5" class="st1" width="13.9" height="1.5"/>
</svg>
