<?xml version="1.0" encoding="utf-8"?>
<!-- Generator: Adobe Illustrator 24.3.0, SVG Export Plug-In . SVG Version: 6.00 Build 0)  -->
<svg version="1.2" baseProfile="tiny" id="Warstwa_1"
	 xmlns="http://www.w3.org/2000/svg" xmlns:xlink="http://www.w3.org/1999/xlink" x="0px" y="0px" viewBox="0 0 1240 180"
	 overflow="visible" xml:space="preserve">
<rect x="90.6" y="32.6" fill="none" width="1133.8" height="133.5"/>
<text transform="matrix(1 0 0 1 90.6223 154.4163)" font-family="'Bentham-Regular'" font-size="190px">S</text>
<text transform="matrix(1 0 0 1 228.9885 154.4163)" font-family="'Bentham-Regular'" font-size="190px">E</text>
<text transform="matrix(1 0 0 1 366.6121 154.4163)" font-family="'Bentham-Regular'" font-size="190px">L</text>
<text transform="matrix(1 0 0 1 504.9783 154.4163)" font-family="'Bentham-Regular'" font-size="190px">L</text>
<text transform="matrix(1 0 0 1 643.344 154.4163)" font-family="'Bentham-Regular'" font-size="190px">E</text>
<text transform="matrix(1 0 0 1 780.968 154.4163)" fill="#9D9D9C" font-family="'Bentham-Regular'" font-size="190px">A</text>
<text transform="matrix(1 0 0 1 941.4143 154.4163)" fill="#9D9D9C" font-family="'Bentham-Regular'" font-size="190px">D</text>
<text transform="matrix(1 0 0 1 1095.3665 154.4163)" fill="#9D9D9C" font-family="'Bentham-Regular'" font-size="190px">S</text>
<path stroke="#1D1D1B" stroke-width="1.5" stroke-miterlimit="10" d="M120.8,43.6c-0.8-3.7-2.9-7.1-5.9-9.5c-3-2.4-6.7-3.7-10.5-3.7
	h0l-0.6-2.7c-0.9-3.9-3.1-7.5-6.2-10c-3.1-2.5-7.1-3.9-11.1-3.9H15.6v3.3c0,5.7,2.3,10.8,6.1,14.5v2.5c0,6,2.6,11.4,6.7,15.1v1.9
	c0,11.2,9.1,20.4,20.4,20.4H51c2.5,7.6,9.8,13.2,18.2,13.2h60.6L120.8,43.6z M35.5,54.6h35.4v-6.7H42.1c-6.4,0-11.8-4.4-13.3-10.3
	h35.4v-6.7H36c-6.4,0-11.8-4.4-13.3-10.3h63.8c5.1,0,9.6,3.6,10.7,8.6l7.8,35.7H48.8C42.4,65,37,60.6,35.5,54.6z M58.3,71.7h55.1
	l-7.5-34.4c4.1,0.6,7.4,3.7,8.3,7.8l7.3,33.1H69.3C64.6,78.1,60.4,75.5,58.3,71.7z"/>
</svg>
