<?xml version="1.0" encoding="UTF-8" standalone="no"?>
<!DOCTYPE svg PUBLIC "-//W3C//DTD SVG 1.1//EN" "http://www.w3.org/Graphics/SVG/1.1/DTD/svg11.dtd">
<svg xmlns="http://www.w3.org/2000/svg" xmlns:xlink="http://www.w3.org/1999/xlink" version="1.1" width="375pt" height="375pt" viewBox="0 0 375 375">
<g enable-background="new">
<clipPath id="cp0">
<path transform="matrix(.24,0,0,.24,0,0)" d="M 0 0 L 1562.5 0 L 1562.5 1593.75 L 0 1593.75 Z " fill-rule="evenodd"/>
</clipPath>
<g clip-path="url(#cp0)">
<path transform="matrix(.75,0,0,.75,0,0)" d="M 0 0 L 500 0 L 500 510 L 0 510 Z " fill="#ffffff"/>
<path transform="matrix(.75,0,0,.75,0,0)" d="M 0 0 L 500 0 L 500 500 L 0 500 Z " fill="#ffffff"/>
</g>
<clipPath id="cp1">
<path transform="matrix(.24,0,0,.24,0,0)" d="M 0 0 L 1562.5 0 L 1562.5 1562.5 L 0 1562.5 Z " fill-rule="evenodd"/>
</clipPath>
<g clip-path="url(#cp1)">
<path transform="matrix(.8666967,0,0,.8666967,-29.009222,-29.174189)" d="M 0 0 L 500 0 L 500 500 L 0 500 Z " fill="#ffffff"/>
</g>
<clipPath id="cp2">
<path transform="matrix(.24,0,0,.24,0,0)" d="M 179.28856 551.84359 L 288.27433 551.84359 L 288.27433 660.82937 L 179.28856 660.82937 Z " fill-rule="evenodd"/>
</clipPath>
<g clip-path="url(#cp2)">
<path transform="matrix(.051087075,0,0,.051087075,43.029256,137.3979)" d="M 471.44923 133.34375 C 467.79298 116.69922 458.46876 101.64844 445.1875 90.96875 C 431.90626 80.28906 415.20704 74.40625 398.16407 74.40625 L 397.9961 74.40625 L 395.34767 62.335939 C 391.48048 44.73047 381.6172 28.8125 367.5703 17.515625 C 353.52735 6.2226564 335.8672 0 317.83985 0 L 0 0 L 0 15.015625 C 0 40.460939 10.460938 63.503908 27.300782 80.08203 L 27.300782 91.34766 C 27.300782 118.17969 38.933595 142.34375 57.414064 159.07032 L 57.414064 167.67578 C 57.414064 218.04297 98.39453 259.02345 148.76172 259.02345 L 158.65235 259.02345 C 170.07032 293.26954 202.41407 318.03517 240.44922 318.03517 L 512 318.03517 L 471.44923 133.34375 Z M 89.30859 182.6914 L 247.88282 182.6914 L 247.88282 152.66016 L 118.64844 152.66016 C 90.01953 152.66016 65.90625 132.9336 59.191408 106.36328 L 217.76953 106.36328 L 217.76953 76.33203 L 91.34766 76.33203 C 62.714845 76.33203 38.60547 56.60547 31.890625 30.03125 L 317.83985 30.03125 C 340.82423 30.03125 361.08595 46.328126 366.01564 68.77734 L 401.1914 228.99219 L 148.76172 228.99219 C 120.13281 228.99219 96.02344 209.26563 89.30859 182.6914 Z M 191.3164 259.02345 L 438.53517 259.02345 L 404.69923 104.93359 C 422.875 107.64453 438.09376 121.46094 442.1172 139.78516 L 474.66017 288.0078 L 240.44922 288.0078 C 219.33594 288.0039 200.91016 276.28907 191.3164 259.02345 Z "/>
</g>
<clipPath id="cp3">
<path transform="matrix(.24,0,0,.24,0,0)" d="M 0 0 L 1562.5 0 L 1562.5 1562.5 L 0 1562.5 Z " fill-rule="evenodd"/>
</clipPath>
<g clip-path="url(#cp3)">
<g id="Layer-1" data-name="P">
</g>
<symbol id="font_4_37">
<path d="M .21289063 .65234377 C .26302085 .65234377 .30566407 .63378909 .3408203 .5966797 C .35709635 .5986328 .3701172 .6123047 .3798828 .6376953 L .3935547 .6376953 L .390625 .4482422 L .3720703 .4482422 C .3701172 .47102867 .36751304 .49251304 .3642578 .5126953 C .3610026 .5335286 .35384117 .5514323 .34277345 .56640627 C .31217448 .6113281 .26822917 .63378909 .2109375 .63378909 C .18033855 .63378909 .15429688 .6217448 .1328125 .59765627 C .111328128 .57421877 .10058594 .5498047 .10058594 .52441409 C .10058594 .4970703 .11360677 .47135417 .13964844 .44726563 C .16569011 .4231771 .20019531 .4033203 .24316406 .3876953 C .30240885 .3655599 .3499349 .3372396 .3857422 .30273438 C .42220054 .26822917 .4404297 .22949219 .4404297 .18652344 C .4404297 .13118489 .42220054 .08626302 .3857422 .051757814 C .34928385 .017252604 .28873698 0 .20410156 0 C .18587239 0 .16829427 .001953125 .15136719 .005859375 C .13444011 .009765625 .12044271 .0146484379 .109375 .020507813 C .098958339 .026367188 .088541667 .032226564 .078125 .038085939 C .068359378 .044596357 .061197919 .049804689 .056640626 .053710939 C .043619794 .047851564 .03157552 .034505208 .020507813 .013671875 L 0 .013671875 L .001953125 .19140625 L .021484375 .19140625 C .032552083 .13802083 .051432294 .09667969 .078125 .06738281 C .10546875 .038085939 .14615886 .0234375 .20019531 .0234375 C .29134117 .0234375 .33691407 .06738281 .33691407 .15527344 C .33691407 .21256511 .28873698 .25813804 .19238281 .2919922 C .14029949 .31022135 .09928385 .3359375 .06933594 .36914063 C .03938802 .40299479 .024414063 .4388021 .024414063 .4765625 C .023763022 .59375 .08658854 .65234377 .21289063 .65234377 Z "/>
</symbol>
<symbol id="font_4_29">
<path d="M .453125 0 L 0 0 L 0 .015625 C 0 .014973958 .009114583 .0146484379 .02734375 .0146484379 C .059244794 .0146484379 .076822917 .022460938 .080078128 .038085939 C .0859375 .07324219 .08886719 .19889324 .08886719 .41503907 C .08886719 .5100911 .0875651 .5621745 .08496094 .57128909 C .08365885 .5784505 .07128906 .58463546 .047851564 .58984377 L .0126953129 .5966797 L .0126953129 .6142578 C .08170573 .6123047 .15852864 .6113281 .24316406 .6113281 C .32845054 .6113281 .39778648 .6123047 .45117188 .6142578 L .45410157 .47265626 L .43554688 .47265626 C .43229167 .48893229 .42740885 .5045573 .42089845 .51953127 C .41438804 .53515627 .4033203 .55045577 .3876953 .5654297 C .3720703 .5810547 .35416667 .5888672 .33398438 .5888672 L .18066406 .5888672 L .18066406 .3232422 L .3251953 .3232422 C .35514323 .3232422 .37141929 .34895835 .37402345 .40039063 L .39746095 .40039063 L .39746095 .22460938 L .3779297 .22460938 C .37467448 .27539063 .35611979 .30078126 .32226563 .30078126 L .18066406 .30078126 L .18066406 .06738281 C .18066406 .036132814 .1920573 .020182291 .21484375 .01953125 L .3623047 .01953125 C .37923179 .020182291 .3955078 .034505208 .4111328 .0625 C .42740885 .091145839 .43717448 .119791667 .4404297 .1484375 L .46191407 .1484375 L .453125 0 Z "/>
</symbol>
<symbol id="font_4_30">
<path d="M .19140625 .06933594 C .19140625 .040039064 .203125 .025390625 .2265625 .025390625 L .35253907 .024414063 C .37532554 .024414063 .39518229 .037109376 .41210938 .0625 C .4296875 .087890628 .4404297 .11751302 .44433595 .15136719 L .4658203 .15136719 L .4501953 0 L 0 0 L 0 .015625 L .022460938 .016601563 C .038085939 .017903647 .053385419 .020833334 .068359378 .025390625 C .083333339 .029947916 .091145839 .035807294 .091796878 .04296875 C .095052089 .078125 .09667969 .19042969 .09667969 .3798828 C .09667969 .4873047 .09602865 .5520833 .09472656 .57421877 C .09407552 .5826823 .08040365 .5888672 .053710939 .59277346 L .0126953129 .5996094 L .0126953129 .6171875 L .26367188 .61816409 L .26367188 .60253909 C .21809896 .5999349 .19466146 .5904948 .19335938 .57421877 C .19140625 .41861979 .19042969 .32486979 .19042969 .29296876 C .19042969 .27669273 .19042969 .2454427 .19042969 .19921875 C .19108074 .1529948 .19140625 .10970052 .19140625 .06933594 Z "/>
</symbol>
<use xlink:href="#font_4_37" transform="matrix(42.9975,0,0,-42.9975,64.677768,173.04648)"/>
<use xlink:href="#font_4_29" transform="matrix(42.9975,0,0,-42.9975,95.20729,172.41663)"/>
<use xlink:href="#font_4_30" transform="matrix(42.9975,0,0,-42.9975,126.996509,172.5426)"/>
<use xlink:href="#font_4_30" transform="matrix(42.9975,0,0,-42.9975,158.95369,172.5426)"/>
<use xlink:href="#font_4_29" transform="matrix(42.9975,0,0,-42.9975,190.91085,172.41663)"/>
<g id="Layer-1" data-name="P">
</g>
<symbol id="font_4_25">
<path d="M .4189453 .27441407 L .22265625 .27441407 L .12988281 .056640626 C .12792969 .053385419 .12695313 .050130208 .12695313 .046875 C .12695313 .037760419 .13411458 .030273438 .1484375 .024414063 C .16276042 .019205729 .17708333 .016601563 .19140625 .016601563 L .19238281 .0009765625 L 0 0 L 0 .01953125 C .0006510417 .01953125 .0013020834 .01953125 .001953125 .01953125 C .014322917 .01953125 .027669272 .022135416 .041992189 .02734375 C .056315107 .033203126 .067708339 .041015626 .076171878 .05078125 C .087239589 .063802089 .13313802 .16243489 .21386719 .3466797 L .33496095 .6220703 L .3671875 .6220703 L .5810547 .115234378 C .5992839 .071614589 .6191406 .044596357 .640625 .034179689 C .6464844 .03157552 .65266928 .029622397 .6591797 .028320313 C .6656901 .027669272 .671875 .02734375 .6777344 .02734375 C .68359377 .02734375 .6878255 .027018229 .6904297 .026367188 L .68847659 .001953125 C .64485678 .00390625 .5957031 .0048828127 .5410156 .0048828127 C .49153648 .0048828127 .4514974 .00390625 .42089845 .001953125 L .421875 .020507813 C .421875 .019856772 .42773438 .01953125 .43945313 .01953125 C .46289063 .01953125 .47916667 .025065104 .48828126 .036132814 C .49283854 .041341146 .4951172 .048502607 .4951172 .057617189 C .4951172 .06608073 .49316407 .075520839 .4892578 .0859375 L .484375 .10058594 L .4189453 .27441407 M .234375 .29785157 L .4111328 .29785157 L .32421876 .50878909 L .234375 .29785157 Z "/>
</symbol>
<symbol id="font_4_28">
<path d="M .5722656 .2919922 C .5722656 .25683595 .5657552 .22233074 .5527344 .18847656 C .54036459 .15527344 .5218099 .12402344 .4970703 .09472656 C .47233073 .06608073 .4391276 .04296875 .39746095 .025390625 C .35579429 .008463542 .30826823 0 .2548828 0 C .25032554 0 .23697917 .00032552085 .21484375 .0009765625 C .19335938 .0009765625 .16341146 .0013020834 .125 .001953125 C .08658854 .001953125 .044921876 .001953125 0 .001953125 L 0 .017578125 C .052734376 .022135416 .08138021 .037109376 .0859375 .0625 L .0859375 .5546875 C .08528646 .56315109 .08300781 .5703125 .07910156 .5761719 C .07519531 .5826823 .068359378 .58723959 .05859375 .58984377 C .049479169 .59309896 .04264323 .59505209 .038085939 .5957031 C .034179689 .5970052 .025716147 .5983073 .0126953129 .5996094 L .0126953129 .6171875 C .05110677 .6171875 .10123698 .617513 .16308594 .61816409 C .22493489 .6188151 .2639974 .6191406 .28027345 .6191406 C .31217448 .6191406 .34407554 .61328127 .37597657 .6015625 C .4078776 .5904948 .4391276 .5729167 .46972657 .5488281 C .5003255 .5253906 .5250651 .49121095 .5439453 .44628907 C .5628255 .40201823 .5722656 .35058595 .5722656 .2919922 M .4658203 .2861328 C .4658203 .28808595 .4658203 .29003907 .4658203 .2919922 C .4658203 .34342448 .4625651 .38639323 .4560547 .42089845 C .4501953 .45540367 .4391276 .4860026 .42285157 .5126953 C .40657554 .54003909 .38346354 .5598958 .35351563 .5722656 C .32421876 .58528646 .28710938 .5917969 .2421875 .5917969 C .22265625 .5917969 .20214844 .5908203 .18066406 .5888672 C .18066406 .5719401 .18066406 .54264327 .18066406 .50097659 C .18066406 .46516929 .18066406 .40397135 .18066406 .3173828 C .18066406 .23079427 .18066406 .17220052 .18066406 .14160156 C .18066406 .10384115 .18066406 .0797526 .18066406 .06933594 C .18066406 .056966146 .18554688 .045572919 .1953125 .03515625 C .20572917 .025390625 .21875 .020507813 .234375 .020507813 C .28190104 .020507813 .32063804 .025390625 .35058595 .03515625 C .3811849 .044921876 .4046224 .061197919 .42089845 .083984378 C .43782554 .107421878 .44921876 .13444011 .45507813 .16503906 C .46158854 .19628906 .46516929 .23665364 .4658203 .2861328 Z "/>
</symbol>
<use xlink:href="#font_4_25" transform="matrix(42.9975,0,0,-42.9975,220.63793,172.62657)" fill="#a6a6a6"/>
<use xlink:href="#font_4_28" transform="matrix(42.9975,0,0,-42.9975,259.64924,172.5426)" fill="#a6a6a6"/>
<use xlink:href="#font_4_37" transform="matrix(42.9975,0,0,-42.9975,296.56108,173.04648)" fill="#a6a6a6"/>
</g>
<clipPath id="cp5">
<path transform="matrix(.24,0,0,.24,0,0)" d="M 244.9157 781.25 L 1319.9157 781.25 L 1319.9157 784.375 L 244.9157 784.375 Z " fill-rule="evenodd"/>
</clipPath>
<g clip-path="url(#cp5)">
<path transform="matrix(.75,0,0,.75,58.779767,187.5)" d="M 0 0 L 344 0 L 344 1 L 0 1 Z " fill="#1b1b1b"/>
</g>
<clipPath id="cp6">
<path transform="matrix(.24,0,0,.24,0,0)" d="M 675.8398 358.32273 L 1141.4649 358.32273 L 1141.4649 592.69778 L 675.8398 592.69778 Z " fill-rule="evenodd"/>
</clipPath>
<g clip-path="url(#cp6)">
<path transform="matrix(.37249998,0,0,.375,162.20154,85.997829)" d="M 299.999 149.998 L 283.87199 149.998 C 283.87199 76.181 223.81598 16.125 149.99999 16.125 C 76.180988 16.125 16.124985 76.181 16.124985 149.998 L -.001 149.998 C -.001 67.289 67.289 0 149.999 0 C 232.70899 0 299.999 67.289 299.999 149.998 Z " fill="#545454"/>
</g>
<clipPath id="cp7">
<path transform="matrix(.24,0,0,.24,0,0)" d="M 0 0 L 1562.5 0 L 1562.5 1562.5 L 0 1562.5 Z " fill-rule="evenodd"/>
</clipPath>
<g clip-path="url(#cp7)">
<g id="Layer-1" data-name="P">
</g>
<symbol id="font_8_e1">
<path d="M 1.0180001 .70000007 L .781 0 L .727 0 L .51 .628 L .29200004 0 L .23800002 0 L 0 .70000007 L .054 .70000007 L .26700003 .07 L .48600004 .70000007 L .535 .70000007 L .753 .069000009 L .968 .70000007 L 1.0180001 .70000007 Z "/>
</symbol>
<symbol id="font_8_58">
<path d="M 0 .70000007 L .051 .70000007 L .051 0 L 0 0 L 0 .70000007 Z "/>
</symbol>
<symbol id="font_8_7a">
<path d="M .57000008 .70000007 L .57000008 0 L .528 0 L .051 .60800006 L .051 0 L 0 0 L 0 .70000007 L .042999999 .70000007 L .51900008 .09200001 L .51900008 .70000007 L .57000008 .70000007 Z "/>
</symbol>
<symbol id="font_8_4a">
<path d="M .56700006 .352 L .616 .352 L .616 .09 C .58533337 .06066667 .54800006 .038333335 .504 .023000002 C .46066667 .0076666676 .41466669 0 .36600004 0 C .29666666 0 .23400001 .015333333 .178 .046 C .122666668 .076666679 .079 .11900001 .047000003 .17300001 C .015666668 .227 0 .28766669 0 .35500003 C 0 .42233337 .015666668 .48300005 .047000003 .537 C .079 .591 .122666668 .6333334 .178 .66400006 C .23400001 .6946667 .29700003 .71000006 .367 .71000006 C .41833333 .71000006 .46533335 .70166668 .508 .685 C .55133339 .66899999 .58833339 .64533337 .619 .614 L .587 .58000007 C .5576667 .60933336 .5246667 .63033339 .48800005 .643 C .45200003 .6563334 .41200004 .66300007 .368 .66300007 C .308 .66300007 .25366668 .6496667 .20500002 .623 C .157 .5963333 .11933333 .5593333 .09199999 .512 C .064666669 .46533335 .051000004 .41300003 .051000004 .35500003 C .051000004 .29766668 .064666669 .24533333 .09199999 .198 C .120000008 .15133333 .158 .11433334 .206 .087000008 C .25399999 .060333339 .308 .047000003 .368 .047000003 C .44800005 .047000003 .51433339 .068333338 .56700006 .11100001 L .56700006 .352 Z "/>
</symbol>
<symbol id="font_8_b3">
<path d="M .25500003 0 C .20366669 0 .15466668 .008666667 .10800001 .026000003 C .062000008 .044 .026 .067 0 .095000009 L .022999999 .133 C .04766667 .107 .08066667 .08566668 .12200001 .069000009 C .16400002 .053000004 .20800002 .045 .254 .045 C .3206667 .045 .37100006 .05766667 .40500004 .083000008 C .43900005 .10833334 .456 .14133334 .45600004 .182 C .456 .21333333 .44700004 .23833335 .42900003 .257 C .411 .27566669 .38866667 .29 .36200003 .3 C .33533336 .31 .29933337 .32033334 .254 .331 C .20266669 .34366668 .16133334 .35600005 .13000001 .368 C .099333349 .38 .07300001 .39833335 .051000004 .423 C .029666668 .44833336 .018999998 .48200003 .018999998 .52400007 C .018999998 .558 .027999998 .58900007 .046 .61700007 C .064 .64566668 .09133333 .66833338 .128 .685 C .16533335 .70166668 .21166669 .71000006 .26700003 .71000006 C .3056667 .71000006 .34366668 .70433339 .381 .693 C .41833339 .6816667 .4506667 .6663334 .47800005 .647 L .45900006 .606 C .43100003 .62533339 .4 .64000007 .36600004 .65000006 C .33266668 .66 .29966668 .665 .26700003 .665 C .20233335 .665 .15333335 .652 .120000008 .62600007 C .08666667 .6 .07000001 .56633338 .07000001 .52500006 C .07000001 .49366669 .079 .46866668 .097 .45000003 C .11500001 .43133334 .13733335 .41700004 .164 .407 C .19066668 .39699999 .22700002 .38633336 .273 .375 C .32433335 .36233334 .36533336 .35 .39600004 .338 C .4266667 .326 .45266668 .3076667 .47400005 .28300003 C .49600006 .25900004 .507 .22633334 .507 .185 C .507 .15100001 .4976667 .120000008 .47900004 .09200001 C .46100006 .064 .433 .041666669 .395 .025000003 C .35700003 .008333334 .31033338 0 .25500003 0 Z "/>
</symbol>
<symbol id="font_8_3">
<path d="M 0 0 Z "/>
</symbol>
<symbol id="font_8_49">
<path d="M .051 .65400007 L .051 .35500003 L .424 .35500003 L .424 .30900003 L .051 .30900003 L .051 0 L 0 0 L 0 .70000007 L .46800003 .70000007 L .46800003 .65400007 L .051 .65400007 Z "/>
</symbol>
<symbol id="font_8_85">
<path d="M .36400003 0 C .29533337 0 .23333335 .015333333 .178 .046 C .122666668 .07733334 .079 .120000008 .047000003 .17400001 C .015666668 .228 0 .28833334 0 .35500003 C 0 .4216667 .015666668 .48200003 .047000003 .536 C .079 .59000006 .122666668 .63233336 .178 .66300007 C .23333335 .6943334 .29533337 .71000006 .36400003 .71000006 C .4326667 .71000006 .49466668 .6946667 .55 .66400006 C .6053333 .6333334 .6486667 .591 .68 .537 C .7120001 .48300005 .728 .42233337 .72800007 .35500003 C .728 .28766669 .7120001 .227 .68 .17300001 C .6486667 .11900001 .6053333 .076666679 .55 .046 C .49466668 .015333333 .4326667 0 .36400003 0 M .36400003 .047000003 C .4226667 .047000003 .47566668 .060333339 .523 .087000008 C .57033339 .113666679 .60766676 .15033333 .63500007 .197 C .6623333 .24433334 .67599996 .29700003 .676 .35500003 C .67599996 .41300003 .6623333 .46533335 .63500007 .512 C .60766676 .5593333 .57033339 .5963333 .523 .623 C .47566668 .6496667 .4226667 .66300007 .36400003 .66300007 C .30533336 .66300007 .252 .6496667 .204 .623 C .15666667 .5963333 .11933333 .5593333 .09199999 .512 C .064666669 .46533335 .051000004 .41300003 .051000004 .35500003 C .051000004 .29700003 .064666669 .24433334 .09199999 .197 C .11933333 .15033333 .15666667 .113666679 .204 .087000008 C .252 .060333339 .30533336 .047000003 .36400003 .047000003 Z "/>
</symbol>
<symbol id="font_8_ab">
<path d="M .48600004 0 L .319 .23400001 C .29433335 .23066668 .27166669 .22900002 .25100003 .22900002 L .051 .22900002 L .051 0 L 0 0 L 0 .70000007 L .25100003 .70000007 C .339 .70000007 .408 .6790001 .45800004 .637 C .508 .5956667 .533 .53800007 .533 .46400003 C .533 .4086667 .5186667 .362 .49000005 .324 C .46200005 .28666667 .4216667 .26033334 .36900003 .245 L .544 0 L .48600004 0 M .25100003 .27400003 C .32566668 .27400003 .38266669 .29033337 .42200003 .323 C .46133337 .35633336 .48100005 .40333335 .48100005 .46400003 C .48100005 .52466669 .46133337 .57133337 .42200003 .60400006 C .38266669 .6373334 .32566668 .65400007 .25100003 .65400007 L .051 .65400007 L .051 .27400003 L .25100003 .27400003 Z "/>
</symbol>
<symbol id="font_8_e7">
<path d="M .33300004 .24100001 L .33300004 0 L .282 0 L .282 .24100001 L 0 .70000007 L .056000007 .70000007 L .30900003 .28800003 L .56200006 .70000007 L .615 .70000007 L .33300004 .24100001 Z "/>
</symbol>
<symbol id="font_8_c8">
<path d="M .28000004 0 C .19133336 0 .12233335 .025666669 .07300001 .07700001 C .024333336 .12833333 0 .20333334 0 .30200003 L 0 .70500007 L .051000008 .70500007 L .051000008 .30400003 C .05100001 .21800001 .07066667 .15366666 .11000001 .11100001 C .14933336 .068333338 .20633336 .047000003 .28100003 .047000003 C .35500003 .047000003 .41166673 .068333338 .45100004 .11100001 C .4903334 .15366666 .51000007 .21800001 .51000007 .30400003 L .51000007 .70500007 L .56100007 .70500007 L .56100007 .30200003 C .56100007 .20333334 .5363334 .12833333 .48700006 .07700001 C .43766675 .025666669 .36866675 0 .28000004 0 Z "/>
</symbol>
<symbol id="font_8_20">
<path d="M .41600005 .36100004 C .46600006 .3516667 .504 .33200003 .53 .30200003 C .5566667 .27199999 .57000008 .233 .57000008 .185 C .57000008 .12566667 .54833337 .080000009 .505 .048 C .46166668 .016 .39733336 0 .312 0 L 0 0 L 0 .70000007 L .29200004 .70000007 C .368 .70000007 .42700003 .6843334 .469 .65300008 C .51166668 .62233337 .533 .5783334 .533 .521 C .533 .48100005 .5223333 .44733335 .50100007 .42000003 C .48033334 .39266668 .45200003 .37300004 .41600005 .36100004 M .051 .656 L .051 .377 L .29000003 .377 C .35133336 .377 .39833335 .38866667 .43100003 .41200004 C .4643334 .43600003 .48100005 .47100006 .48100005 .517 C .48100005 .56233337 .4643334 .5966667 .43100003 .62 C .39833335 .644 .35133336 .656 .29000003 .656 L .051 .656 M .312 .044000005 C .38 .044000005 .43133334 .05566667 .466 .079 C .50133338 .10300001 .51900008 .13966668 .51900008 .18900001 C .51900008 .23833335 .50133338 .27466668 .466 .298 C .43133334 .32133333 .38 .333 .312 .333 L .051 .333 L .051 .044000005 L .312 .044000005 Z "/>
</symbol>
<symbol id="font_8_30">
<path d="M .483 .046000005 L .483 0 L 0 0 L 0 .70000007 L .46800003 .70000007 L .46800003 .65400007 L .051 .65400007 L .051 .37800003 L .424 .37800003 L .424 .333 L .051 .333 L .051 .046000005 L .483 .046000005 Z "/>
</symbol>
<use xlink:href="#font_8_e1" transform="matrix(9.9375,0,0,-9.9375,87.65536,204.50443)" fill="#1b1b1b"/>
<use xlink:href="#font_8_58" transform="matrix(9.9375,0,0,-9.9375,101.86617,204.50443)" fill="#1b1b1b"/>
<use xlink:href="#font_8_7a" transform="matrix(9.9375,0,0,-9.9375,107.282238,204.50443)" fill="#1b1b1b"/>
<use xlink:href="#font_8_4a" transform="matrix(9.9375,0,0,-9.9375,117.190097,204.55411)" fill="#1b1b1b"/>
<use xlink:href="#font_8_b3" transform="matrix(9.9375,0,0,-9.9375,127.316577,204.55411)" fill="#1b1b1b"/>
<use xlink:href="#font_8_3" transform="matrix(9.9375,0,0,-9.9375,135.34622,204.50443)" fill="#1b1b1b"/>
<use xlink:href="#font_8_49" transform="matrix(9.9375,0,0,-9.9375,141.59702,204.50443)" fill="#1b1b1b"/>
<use xlink:href="#font_8_85" transform="matrix(9.9375,0,0,-9.9375,149.68631,204.55411)" fill="#1b1b1b"/>
<use xlink:href="#font_8_ab" transform="matrix(9.9375,0,0,-9.9375,161.16428,204.50443)" fill="#1b1b1b"/>
<use xlink:href="#font_8_3" transform="matrix(9.9375,0,0,-9.9375,169.59145,204.50443)" fill="#1b1b1b"/>
<use xlink:href="#font_8_e7" transform="matrix(9.9375,0,0,-9.9375,174.67955,204.50443)" fill="#1b1b1b"/>
<use xlink:href="#font_8_85" transform="matrix(9.9375,0,0,-9.9375,183.8719,204.55411)" fill="#1b1b1b"/>
<use xlink:href="#font_8_c8" transform="matrix(9.9375,0,0,-9.9375,195.29027,204.55411)" fill="#1b1b1b"/>
<use xlink:href="#font_8_ab" transform="matrix(9.9375,0,0,-9.9375,205.71486,204.50443)" fill="#1b1b1b"/>
<use xlink:href="#font_8_3" transform="matrix(9.9375,0,0,-9.9375,214.14203,204.50443)" fill="#1b1b1b"/>
<use xlink:href="#font_8_20" transform="matrix(9.9375,0,0,-9.9375,220.39282,204.50443)" fill="#1b1b1b"/>
<use xlink:href="#font_8_c8" transform="matrix(9.9375,0,0,-9.9375,230.29074,204.55411)" fill="#1b1b1b"/>
<use xlink:href="#font_8_b3" transform="matrix(9.9375,0,0,-9.9375,240.00977,204.55411)" fill="#1b1b1b"/>
<use xlink:href="#font_8_58" transform="matrix(9.9375,0,0,-9.9375,249.2518,204.50443)" fill="#1b1b1b"/>
<use xlink:href="#font_8_7a" transform="matrix(9.9375,0,0,-9.9375,254.66786,204.50443)" fill="#1b1b1b"/>
<use xlink:href="#font_8_30" transform="matrix(9.9375,0,0,-9.9375,265.24156,204.50443)" fill="#1b1b1b"/>
<use xlink:href="#font_8_b3" transform="matrix(9.9375,0,0,-9.9375,273.66868,204.55411)" fill="#1b1b1b"/>
<use xlink:href="#font_8_b3" transform="matrix(9.9375,0,0,-9.9375,282.20515,204.55411)" fill="#1b1b1b"/>
</g>
</g>
</svg>
