<?xml version="1.0" encoding="utf-8"?>
<!-- Generator: Adobe Illustrator 24.3.0, SVG Export Plug-In . SVG Version: 6.00 Build 0)  -->
<svg version="1.2" baseProfile="tiny" xmlns="http://www.w3.org/2000/svg" xmlns:xlink="http://www.w3.org/1999/xlink" x="0px"
	 y="0px" viewBox="0 0 610 210" overflow="visible" xml:space="preserve">
<g id="Warstwa_1">
	<path fill="#FFFFFF" d="M79.3,137.5c-0.5-2.4-1.8-4.5-3.7-6c-1.9-1.5-4.3-2.4-6.7-2.4h0l-0.4-1.7c-0.5-2.5-1.9-4.8-3.9-6.4
		c-2-1.6-4.5-2.5-7.1-2.5H12.4v2.1c0,3.6,1.5,6.9,3.9,9.2v1.6c0,3.8,1.7,7.2,4.3,9.6v1.2c0,7.1,5.8,13,13,13h1.4
		c1.6,4.9,6.2,8.4,11.6,8.4H85L79.3,137.5z M25.1,144.5h22.5v-4.3H29.2c-4.1,0-7.5-2.8-8.4-6.6h22.5v-4.3H25.3
		c-4.1,0-7.5-2.8-8.4-6.6h40.6c3.3,0,6.1,2.3,6.8,5.5l5,22.7H33.5C29.4,151.1,26,148.3,25.1,144.5z M39.5,155.3h35.1l-4.8-21.9
		c2.6,0.4,4.7,2.3,5.3,4.9l4.6,21H46.5C43.5,159.4,40.9,157.8,39.5,155.3z"/>
	<rect y="130.8" fill="none" width="610" height="77"/>
	<text transform="matrix(1 0 0 1 64.8924 190.4208)" fill="#FFFFFF" font-family="'Bentham-Regular'" font-size="93px">S</text>
	<text transform="matrix(1 0 0 1 132.619 190.4208)" fill="#FFFFFF" font-family="'Bentham-Regular'" font-size="93px">E</text>
	<text transform="matrix(1 0 0 1 199.9823 190.4208)" fill="#FFFFFF" font-family="'Bentham-Regular'" font-size="93px">L</text>
	<text transform="matrix(1 0 0 1 267.7088 190.4208)" fill="#FFFFFF" font-family="'Bentham-Regular'" font-size="93px">L</text>
	<text transform="matrix(1 0 0 1 335.4354 190.4208)" fill="#FFFFFF" font-family="'Bentham-Regular'" font-size="93px">E</text>
	<text transform="matrix(1 0 0 1 402.7986 190.4208)" fill="#3497E8" font-family="'Bentham-Regular'" font-size="93px">A</text>
	<text transform="matrix(1 0 0 1 481.3328 190.4208)" fill="#3497E8" font-family="'Bentham-Regular'" font-size="93px">D</text>
	<text transform="matrix(1 0 0 1 556.6883 190.4208)" fill="#3497E8" font-family="'Bentham-Regular'" font-size="93px">S</text>
</g>
<g id="Warstwa_2">
	<path fill="none" stroke="#3497E8" stroke-width="10" stroke-miterlimit="10" d="M286,124c0-59.5,49.7-107.7,111.1-107.7
		S508.1,64.5,508.1,124"/>
</g>
</svg>
