<?xml version="1.0" encoding="utf-8"?>
<!-- Generator: Adobe Illustrator 24.3.0, SVG Export Plug-In . SVG Version: 6.00 Build 0)  -->
<svg version="1.1" id="_x37_e38527c-c439-4ac8-ab59-5870f5db8019"
	 xmlns="http://www.w3.org/2000/svg" xmlns:xlink="http://www.w3.org/1999/xlink" x="0px" y="0px" viewBox="0 0 938 435.3"
	 style="enable-background:new 0 0 938 435.3;" xml:space="preserve">
<style type="text/css">
	.st0{opacity:0.5;}
	.st1{fill:url(#SVGID_1_);}
	.st2{fill:#535461;}
	.st3{fill:#E0E0E0;}
	.st4{fill:url(#SVGID_2_);}
	.st5{fill:#49E8CD;}
	.st6{fill:url(#SVGID_3_);}
	.st7{fill:url(#SVGID_4_);}
	.st8{fill:url(#SVGID_5_);}
	.st9{fill:url(#SVGID_6_);}
	.st10{fill:url(#SVGID_7_);}
	.st11{fill:url(#SVGID_8_);}
	.st12{fill:#C1F4EA;}
	.st13{fill:url(#SVGID_9_);}
	.st14{opacity:0.2;fill:none;stroke:#535461;stroke-width:3;stroke-miterlimit:10;enable-background:new    ;}
	.st15{opacity:0.7;}
	.st16{fill:url(#SVGID_10_);}
	.st17{fill:#71A3CC;}
	.st18{fill:none;stroke:#BDBDBD;stroke-width:5;stroke-miterlimit:10;}
	.st19{fill:#5C8099;}
	.st20{opacity:5.000000e-02;enable-background:new    ;}
	.st21{fill:#FDA57D;}
	.st22{opacity:0.1;enable-background:new    ;}
	.st23{fill:#333333;}
</style>
<g class="st0">
	
		<linearGradient id="SVGID_1_" gradientUnits="userSpaceOnUse" x1="306" y1="-181" x2="306" y2="110" gradientTransform="matrix(1 0 0 -1 -135 205.15)">
		<stop  offset="0" style="stop-color:#808080;stop-opacity:0.25"/>
		<stop  offset="0.54" style="stop-color:#808080;stop-opacity:0.12"/>
		<stop  offset="1" style="stop-color:#808080;stop-opacity:0.1"/>
	</linearGradient>
	<path class="st1" d="M144.7,162.3H342V95.1H144.7C65.1,95.1,0,160.6,0,240.6l0,0c0,80,65.1,145.5,144.7,145.5H342V319H144.7
		c-20.7,0-40.5-8.3-55-23.1c-30.5-30.4-30.6-79.9-0.2-110.4c0.1-0.1,0.1-0.1,0.2-0.2C104.2,170.6,124,162.3,144.7,162.3z"/>
</g>
<path class="st2" d="M91.2,295c-30-30.1-29.9-78.9,0.3-108.9c14.4-14.3,33.8-22.4,54.1-22.4h121v-66h-121c-78.6,0-143,64.4-143,143
	l0,0c0,78.7,64.4,143,143,143h121v-66h-121C125.1,317.6,105.5,309.5,91.2,295z"/>
<rect x="265.5" y="317.6" class="st3" width="75" height="66"/>
<rect x="265.5" y="97.7" class="st3" width="75" height="66"/>
<g class="st0">
	
		<linearGradient id="SVGID_2_" gradientUnits="userSpaceOnUse" x1="722.8345" y1="26.74" x2="722.8345" y2="142.13" gradientTransform="matrix(1 0 0 -1 -135 205.15)">
		<stop  offset="0" style="stop-color:#808080;stop-opacity:0.25"/>
		<stop  offset="0.54" style="stop-color:#808080;stop-opacity:0.12"/>
		<stop  offset="1" style="stop-color:#808080;stop-opacity:0.1"/>
	</linearGradient>
	<path class="st4" d="M608,149.4c25.3,0,37-13.6,37-31.8c0-31.8-25.6-54.6-57.4-54.6c-31.9,0.4-57.4,26.6-56.9,58.5
		c0.4,31.3,25.7,56.5,56.9,56.9c11.7-0.1,23.1-3.8,32.7-10.7c1-0.7,1.6-1.7,1.8-2.9c0.2-1-0.1-2-0.9-2.7c-1.5-1.3-3.8-1.1-5.1,0.4
		c-0.1,0.1-0.1,0.1-0.2,0.2c-2.1,2.8-8.4,7.4-26.9,7.9c-28.1,0.6-51.6-21.7-51.7-49.8C537.2,93,560.1,71,587.6,70.7
		s49.7,19.1,49.7,46.3c0,17.3-12,25.3-26.5,25c-4.6,0.3-5.5-1.5-4.9-8c0.5-5.3,5.6-27.5,7.4-35.3c0.6-2.3-0.9-4.6-3.2-5.2
		c-0.4-0.1-0.8-0.1-1.2-0.1h-0.3c-2,0.2-3.5,1.8-3.7,3.8c-0.2,1.2-0.2,2.5-0.3,3.8c-2.8-5.5-9.3-9.9-17-10.2
		c-16.3,0.3-30.5,15.1-31.2,36.7c0,14.5,7.7,22.8,21,22.8c9.3,0,16-5.5,19.8-10.8C597.2,139.5,596.9,148.8,608,149.4z M578.7,142.9
		c-8.3,0-13.3-6.2-13.3-16c0-17,11.4-27.8,22.2-27.8c9.6,0,13.3,6.5,13.6,15.1C601.2,128.1,592.2,142.9,578.7,142.9L578.7,142.9z"/>
</g>
<path class="st5" d="M607.1,148.1c24.2,0,35.4-13,35.4-30.4c0-30.4-24.5-52.2-54.8-52.2c-30.5,0-55.1,24.7-55.1,55.1
	c0,30.5,24.7,55.1,55.1,55.1c11.2-0.1,22.1-3.7,31.2-10.2c0.9-0.6,1.5-1.6,1.7-2.7c0.2-0.9-0.1-1.9-0.8-2.5c-1.5-1.2-3.6-1-4.9,0.4
	c0,0.1-0.1,0.1-0.1,0.2c-2,2.6-8,7.1-25.7,7.5c-26.8,0.6-49.3-20.8-49.4-47.6c-0.1-26.6,21.8-47.6,48.1-47.9s47.5,18.3,47.5,44.2
	c0,16.5-11.5,24.2-25.4,23.9c-4.4,0.3-5.3-1.5-4.7-7.7c0.5-5.1,5.3-26.3,7.1-33.7c0.5-2.2-0.8-4.4-3-4.9c-0.4-0.1-0.7-0.1-1.1-0.1
	h-0.3c-1.9,0.2-3.4,1.7-3.6,3.6c-0.2,1.2-0.2,2.4-0.3,3.6c-2.7-5.3-8.8-9.4-16.2-9.7c-15.6,0.3-29.2,14.5-29.8,35.1
	c0,13.9,7.4,21.8,20,21.8c8.8,0,15.3-5.3,18.9-10.3C596.8,138.7,596.5,147.5,607.1,148.1z M579.1,142c-8,0-12.7-5.9-12.7-15.3
	c0-16.2,10.9-26.5,21.2-26.5c9.1,0,12.7,6.2,13,14.5C600.6,127.8,592,141.9,579.1,142L579.1,142z"/>
<g class="st0">
	
		<linearGradient id="SVGID_3_" gradientUnits="userSpaceOnUse" x1="832.21" y1="137.39" x2="832.21" y2="205.15" gradientTransform="matrix(1 0 0 -1 -135 205.15)">
		<stop  offset="0" style="stop-color:#808080;stop-opacity:0.25"/>
		<stop  offset="0.54" style="stop-color:#808080;stop-opacity:0.12"/>
		<stop  offset="1" style="stop-color:#808080;stop-opacity:0.1"/>
	</linearGradient>
	<path class="st6" d="M709.3,50.7c14.9,0,21.7-8,21.7-18.7C731,13.4,716,0,697.3,0c-18.7,0-33.9,15.2-33.9,33.9s15.2,33.9,33.9,33.9
		c6.9-0.1,13.6-2.3,19.2-6.3c0.5-0.4,0.9-1,1-1.7c0.1-0.6-0.1-1.2-0.5-1.6c-0.9-0.8-2.2-0.7-3,0.2c0,0-0.1,0.1-0.1,0.1
		c-1.2,1.6-4.9,4.4-15.8,4.6c-16.3,0.4-29.9-12.4-30.3-28.7c0-0.2,0-0.3,0-0.5c0-16.4,13.4-29.3,29.5-29.4s29.2,11.2,29.2,27.2
		c0,10.1-7.1,14.9-15.6,14.7c-2.7,0.2-3.3-0.9-2.9-4.7c0.3-3.1,3.3-16.1,4.3-20.7c0.3-1.4-0.5-2.7-1.9-3c-0.2-0.1-0.5-0.1-0.7-0.1
		h-0.2c-1.2,0.1-2.1,1-2.2,2.2c-0.1,0.7-0.1,1.5-0.2,2.2c-2-3.6-5.8-5.9-10-6c-9.6,0.2-17.9,8.9-18.3,21.6c0,8.5,4.5,13.4,12.3,13.4
		c4.7-0.1,9-2.5,11.6-6.3C702.8,44.9,702.7,50.4,709.3,50.7z M692,46.9c-4.9,0-7.8-3.6-7.8-9.4c0-10,6.7-16.3,13-16.3
		c5.6,0,7.8,3.8,8,8.9C705.3,38.2,700,46.9,692,46.9z"/>
</g>
<path class="st5" d="M708.7,49.9c14.1,0,20.6-7.6,20.6-17.7c0-17.7-14.3-30.4-32-30.4c-17.8,0-32.2,14.4-32.2,32.2
	s14.4,32.2,32.2,32.2c6.5-0.1,12.9-2.2,18.2-6c0.5-0.4,0.9-0.9,1-1.6c0.1-0.5-0.1-1.1-0.5-1.5c-0.8-0.7-2.1-0.6-2.8,0.2
	c0,0-0.1,0.1-0.1,0.2c-1.2,1.5-4.7,4.1-15,4.4c-15.5,0.4-28.3-11.7-28.8-27.2c0-0.2,0-0.4,0-0.6c0-15.5,12.7-27.8,28-28
	S725,16.7,725,31.8c0,9.6-6.7,14.1-14.8,13.9c-2.6,0.2-3.1-0.9-2.8-4.5c0.3-3,3.1-15.3,4.1-19.6c0.3-1.3-0.4-2.6-1.7-2.9
	c-0.2-0.1-0.5-0.1-0.7-0.1H709c-1.1,0.1-2,1-2.1,2.1c-0.1,0.7-0.1,1.4-0.2,2.1c-1.9-3.5-5.5-5.6-9.5-5.7c-9.1,0.2-17,8.4-17.4,20.5
	c0,8.1,4.3,12.7,11.7,12.7c4.4-0.1,8.5-2.3,11-6C702.6,44.4,702.5,49.5,708.7,49.9z M692.3,46.3c-4.6,0-7.4-3.4-7.4-8.9
	c0-9.5,6.4-15.5,12.4-15.5c5.3,0,7.4,3.6,7.6,8.4C704.9,38,699.9,46.3,692.3,46.3L692.3,46.3z"/>
<g class="st0">
	
		<linearGradient id="SVGID_4_" gradientUnits="userSpaceOnUse" x1="938.5303" y1="65.13" x2="938.5303" y2="134.84" gradientTransform="matrix(1 0 0 -1 -135 205.15)">
		<stop  offset="0" style="stop-color:#808080;stop-opacity:0.25"/>
		<stop  offset="0.54" style="stop-color:#808080;stop-opacity:0.12"/>
		<stop  offset="1" style="stop-color:#808080;stop-opacity:0.1"/>
	</linearGradient>
	<path class="st7" d="M815.6,122.5c15.3,0,22.4-8.2,22.4-19.2c0-19.2-15.5-33-34.7-33c-19.2,0.3-34.6,16.2-34.3,35.4
		c0.3,18.8,15.5,33.9,34.3,34.3c7.1-0.1,14-2.3,19.7-6.5c0.6-0.4,1-1,1.1-1.7c0.1-0.6-0.1-1.2-0.5-1.6c-0.9-0.8-2.3-0.7-3.1,0.3
		c0,0-0.1,0.1-0.1,0.1c-1.3,1.7-5.1,4.5-16.3,4.7c-16.8,0.5-30.7-12.8-31.2-29.6c0-0.2,0-0.3,0-0.5c-0.1-16.8,13.8-30.1,30.4-30.3
		s30,11.6,30,28c0,10.4-7.3,15.3-16,15.1c-2.8,0.2-3.4-0.9-3-4.9c0.3-3.2,3.4-16.6,4.5-21.3c0.3-1.4-0.5-2.8-1.9-3.1
		c-0.2-0.1-0.5-0.1-0.7-0.1H816c-1.2,0.1-2.1,1.1-2.3,2.3c-0.1,0.8-0.2,1.5-0.2,2.3c-2.1-3.7-6-6.1-10.3-6.1
		c-9.9,0.2-18.5,9.1-18.8,22.2c0,8.8,4.7,13.8,12.7,13.8c4.8-0.1,9.2-2.5,11.9-6.5C809.1,116.5,808.9,122.1,815.6,122.5z
		 M797.9,118.6c-5,0-8-3.7-8-9.7c0-10.3,6.9-16.8,13.4-16.8c5.8,0,8,3.9,8.2,9.1C811.5,109.6,806.1,118.6,797.9,118.6L797.9,118.6z"
		/>
</g>
<path class="st5" d="M814.7,121.1c14.1,0,20.6-7.6,20.6-17.7c0-17.7-14.3-30.4-32-30.4c-17.8,0-32.2,14.4-32.2,32.2
	c0,17.8,14.4,32.2,32.2,32.2c6.5-0.1,12.9-2.2,18.2-6c0.5-0.4,0.9-0.9,1-1.6c0.1-0.5-0.1-1.1-0.5-1.5c-0.8-0.7-2.1-0.6-2.8,0.2
	c0,0-0.1,0.1-0.1,0.2c-1.2,1.5-4.7,4.1-15,4.4c-15.5,0.4-28.3-11.7-28.8-27.2c0-0.2,0-0.4,0-0.6c0-15.5,12.7-27.8,28-28
	S831,88,831,103.1c0,9.6-6.7,14.1-14.8,13.9c-2.6,0.2-3.1-0.9-2.8-4.5c0.3-3,3.1-15.3,4.1-19.6c0.3-1.3-0.4-2.6-1.7-2.9
	c-0.2-0.1-0.5-0.1-0.7-0.1H815c-1.1,0.1-2,1-2.1,2.1c-0.1,0.7-0.1,1.4-0.2,2.1c-1.9-3.5-5.5-5.6-9.5-5.7c-9.1,0.2-17,8.4-17.4,20.5
	c0,8.1,4.3,12.7,11.7,12.7c4.4-0.1,8.5-2.3,11-6C808.6,115.7,808.5,120.8,814.7,121.1z M798.3,117.5c-4.6,0-7.4-3.4-7.4-8.9
	c0-9.5,6.4-15.5,12.4-15.5c5.3,0,7.4,3.6,7.6,8.4C810.9,109.3,805.9,117.6,798.3,117.5L798.3,117.5z"/>
<g class="st0">
	
		<linearGradient id="SVGID_5_" gradientUnits="userSpaceOnUse" x1="843.1886" y1="-37.47" x2="843.1886" y2="28.99" gradientTransform="matrix(1 0 0 -1 -135 205.15)">
		<stop  offset="0" style="stop-color:#808080;stop-opacity:0.25"/>
		<stop  offset="0.54" style="stop-color:#808080;stop-opacity:0.12"/>
		<stop  offset="1" style="stop-color:#808080;stop-opacity:0.1"/>
	</linearGradient>
	<path class="st8" d="M720,225.9c14.6,0,21.3-7.8,21.3-18.3c0-18.3-14.8-31.5-33-31.5c-18.4,0-33.2,14.9-33.2,33.2
		c0,18.3,14.9,33.2,33.2,33.2c6.8-0.1,13.3-2.2,18.8-6.2c0.5-0.4,0.9-1,1-1.6c0.1-0.6-0.1-1.1-0.5-1.5c-0.9-0.7-2.2-0.6-2.9,0.3
		c0,0,0,0-0.1,0.1c-1.2,1.6-4.8,4.3-15.5,4.5c-16,0.4-29.3-12.2-29.7-28.2c0-0.1,0-0.3,0-0.4c0-16,13.1-28.7,29-28.9
		s28.6,11,28.6,26.7c0,10-6.9,14.6-15.3,14.4c-2.7,0.2-3.2-0.9-2.8-4.6c0.2-3.1,3.2-15.9,4.2-20.3c0.3-1.3-0.5-2.7-1.8-3
		c-0.2-0.1-0.4-0.1-0.7-0.1h-0.2c-1.1,0.1-2,1-2.2,2.2c-0.1,0.7-0.1,1.4-0.2,2.2c-2-3.6-5.7-5.8-9.8-5.9c-9.4,0.2-17.6,8.7-18,21.1
		c0,8.4,4.4,13.1,12.1,13.1c4.6-0.1,8.8-2.4,11.4-6.2C713.8,220.2,713.6,225.5,720,225.9z M703.1,222.1c-4.8,0-7.6-3.5-7.6-9.2
		c0-9.8,6.6-16,12.8-16c5.5,0,7.6,3.7,7.8,8.7C716.1,213.6,710.9,222.1,703.1,222.1z"/>
</g>
<path class="st5" d="M719.6,225.4c14.1,0,20.6-7.6,20.6-17.7c0-17.7-14.3-30.4-32-30.4c-17.8,0-32.2,14.4-32.2,32.2
	s14.4,32.2,32.2,32.2c6.5-0.1,12.9-2.2,18.2-6c0.5-0.4,0.9-0.9,1-1.6c0.1-0.5-0.1-1.1-0.5-1.5c-0.8-0.7-2.1-0.6-2.8,0.2
	c0,0-0.1,0.1-0.1,0.2c-1.2,1.5-4.7,4.1-15,4.4c-15.5,0.4-28.3-11.7-28.8-27.2c0-0.2,0-0.4,0-0.6c0-15.5,12.7-27.8,28-28
	s27.7,10.7,27.7,25.9c0,9.6-6.7,14.1-14.8,13.9c-2.6,0.2-3.1-0.9-2.8-4.5c0.3-3,3.1-15.3,4.1-19.6c0.3-1.3-0.4-2.6-1.7-2.9
	c-0.2-0.1-0.5-0.1-0.7-0.1H720c-1.1,0.1-2,1-2.1,2.1c-0.1,0.7-0.1,1.4-0.2,2.1c-1.9-3.5-5.5-5.6-9.5-5.7c-9.1,0.2-17,8.4-17.4,20.5
	c0,8.1,4.3,12.7,11.7,12.7c4.4-0.1,8.5-2.3,11-6C713.6,219.8,713.4,225,719.6,225.4z M703.3,221.8c-4.6,0-7.4-3.4-7.4-8.9
	c0-9.5,6.4-15.5,12.4-15.5c5.3,0,7.4,3.6,7.6,8.4C715.8,213.5,710.8,221.8,703.3,221.8L703.3,221.8z"/>
<g class="st0">
	
		<linearGradient id="SVGID_6_" gradientUnits="userSpaceOnUse" x1="754.5099" y1="-65.37" x2="754.5099" y2="3.79" gradientTransform="matrix(1 0 0 -1 -135 205.15)">
		<stop  offset="0" style="stop-color:#808080;stop-opacity:0.25"/>
		<stop  offset="0.54" style="stop-color:#808080;stop-opacity:0.12"/>
		<stop  offset="1" style="stop-color:#808080;stop-opacity:0.1"/>
	</linearGradient>
	<path class="st9" d="M631.8,253.1c15.2,0,22.2-8.1,22.2-19c0-19-15.3-32.7-34.4-32.7c-19.1,0-34.6,15.5-34.6,34.6
		c0,19.1,15.5,34.6,34.6,34.6c7-0.1,13.9-2.3,19.6-6.4c0.6-0.4,1-1,1.1-1.7c0.1-0.6-0.1-1.2-0.5-1.6c-0.9-0.8-2.3-0.7-3.1,0.2
		c0,0-0.1,0.1-0.1,0.1c-1.3,1.6-5,4.5-16.1,4.7c-16.6,0.5-30.5-12.6-31-29.3c0-0.2,0-0.4,0-0.6c0-16.7,13.7-29.9,30.1-30.1
		s29.8,11.5,29.8,27.7c0,10.4-7.2,15.2-15.9,15c-2.8,0.2-3.3-0.9-3-4.8c0.3-3.2,3.3-16.5,4.4-21.1c0.3-1.4-0.5-2.8-1.9-3.1
		c-0.2-0.1-0.5-0.1-0.7-0.1h-0.2c-1.2,0.1-2.1,1.1-2.2,2.3c-0.1,0.7-0.2,1.5-0.2,2.3c-2.1-3.7-5.9-6-10.2-6.1
		c-9.8,0.2-18.3,9.1-18.7,22c0,8.7,4.6,13.7,12.6,13.7c4.8-0.1,9.3-2.5,12-6.5C625.3,247.1,625.2,252.7,631.8,253.1z M614.2,249.2
		c-5,0-8-3.7-8-9.6c0-10.2,6.8-16.6,13.3-16.6c5.7,0,8,3.9,8.1,9.1C627.7,240.3,622.4,249.2,614.2,249.2L614.2,249.2z"/>
</g>
<path class="st5" d="M631,251.9c14.1,0,20.6-7.6,20.6-17.7c0-17.7-14.3-30.4-32-30.4c-17.8,0-32.2,14.4-32.2,32.2
	s14.4,32.2,32.2,32.2c6.5-0.1,12.9-2.2,18.2-6c0.5-0.4,0.9-0.9,1-1.6c0.1-0.5-0.1-1.1-0.5-1.5c-0.8-0.7-2.1-0.6-2.8,0.2
	c0,0-0.1,0.1-0.1,0.2c-1.2,1.5-4.7,4.1-15,4.4c-15.5,0.4-28.3-11.7-28.8-27.2c0-0.2,0-0.4,0-0.6c0-15.5,12.7-27.8,28-28
	s27.7,10.7,27.7,25.8c0,9.6-6.7,14.1-14.8,13.9c-2.6,0.2-3.1-0.9-2.8-4.5c0.3-3,3.1-15.3,4.1-19.6c0.3-1.3-0.4-2.6-1.7-2.9
	c-0.2-0.1-0.5-0.1-0.7-0.1h-0.2c-1.1,0.1-2,1-2.1,2.1c-0.1,0.7-0.1,1.4-0.2,2.1c-1.9-3.5-5.5-5.6-9.5-5.7c-9.1,0.2-17,8.4-17.4,20.5
	c0,8.1,4.3,12.7,11.7,12.7c4.4-0.1,8.5-2.3,11-6C625,246.3,624.8,251.5,631,251.9z M614.7,248.3c-4.6,0-7.4-3.4-7.4-8.9
	c0-9.5,6.4-15.5,12.4-15.5c5.3,0,7.4,3.6,7.6,8.4C627.2,240,622.2,248.3,614.7,248.3L614.7,248.3z"/>
<g class="st0">
	
		<linearGradient id="SVGID_7_" gradientUnits="userSpaceOnUse" x1="754.5099" y1="-172.3101" x2="754.5099" y2="-103.15" gradientTransform="matrix(1 0 0 -1 -135 205.15)">
		<stop  offset="0" style="stop-color:#808080;stop-opacity:0.25"/>
		<stop  offset="0.54" style="stop-color:#808080;stop-opacity:0.12"/>
		<stop  offset="1" style="stop-color:#808080;stop-opacity:0.1"/>
	</linearGradient>
	<path class="st10" d="M631.8,360c15.2,0,22.2-8.1,22.2-19c0-19-15.3-32.7-34.4-32.7c-19.1,0-34.6,15.5-34.6,34.6
		s15.5,34.6,34.6,34.6c7-0.1,13.9-2.3,19.6-6.4c0.6-0.4,1-1,1.1-1.7c0.1-0.6-0.1-1.2-0.5-1.6c-0.9-0.8-2.3-0.7-3.1,0.2
		c0,0-0.1,0.1-0.1,0.1c-1.3,1.7-5,4.5-16.1,4.7c-16.6,0.5-30.5-12.6-31-29.3c0-0.2,0-0.4,0-0.6c0-16.7,13.7-29.9,30.1-30.1
		s29.8,11.5,29.8,27.7c0,10.4-7.2,15.2-15.9,15c-2.8,0.2-3.3-0.9-3-4.8c0.3-3.2,3.3-16.5,4.4-21.1c0.3-1.4-0.5-2.8-1.9-3.1
		c-0.2-0.1-0.5-0.1-0.7-0.1h-0.2c-1.2,0.1-2.1,1.1-2.2,2.3c-0.1,0.7-0.2,1.5-0.2,2.3c-2.1-3.7-5.9-6-10.2-6.1
		c-9.8,0.2-18.3,9.1-18.7,22c0,8.7,4.6,13.7,12.6,13.7c4.8-0.1,9.3-2.5,12-6.5C625.3,354.1,625.2,359.7,631.8,360z M614.2,356.1
		c-5,0-8-3.7-8-9.6c0-10.2,6.8-16.6,13.3-16.6c5.7,0,8,3.9,8.1,9.1C627.7,347.3,622.4,356.1,614.2,356.1z"/>
</g>
<path class="st5" d="M631,358.8c14.1,0,20.6-7.6,20.6-17.7c0-17.7-14.3-30.4-32-30.4c-17.8,0-32.2,14.4-32.2,32.2
	c0,17.8,14.4,32.2,32.2,32.2c6.5-0.1,12.9-2.2,18.2-6c0.5-0.4,0.9-0.9,1-1.6c0.1-0.5-0.1-1.1-0.5-1.5c-0.8-0.7-2.1-0.6-2.8,0.2
	c0,0-0.1,0.1-0.1,0.2c-1.2,1.5-4.7,4.1-15,4.4c-15.5,0.4-28.3-11.7-28.8-27.2c0-0.2,0-0.4,0-0.6c0-15.5,12.7-27.8,28-28
	s27.7,10.7,27.7,25.8c0,9.6-6.7,14.1-14.8,13.9c-2.6,0.2-3.1-0.9-2.8-4.5c0.3-3,3.1-15.3,4.1-19.7c0.3-1.3-0.4-2.6-1.7-2.9
	c-0.2-0.1-0.5-0.1-0.7-0.1h-0.2c-1.1,0.1-2,1-2.1,2.1c-0.1,0.7-0.1,1.4-0.2,2.1c-1.9-3.4-5.6-5.5-9.5-5.5c-9.1,0.2-17,8.4-17.4,20.5
	c0,8.1,4.3,12.7,11.7,12.7c4.4-0.1,8.5-2.3,11-6C624.9,353.3,624.8,358.5,631,358.8z M614.7,355.2c-4.6,0-7.4-3.4-7.4-8.9
	c0-9.5,6.4-15.5,12.4-15.5c5.3,0,7.4,3.6,7.6,8.4C627.2,347,622.2,355.2,614.7,355.2L614.7,355.2z"/>
<g class="st0">
	
		<linearGradient id="SVGID_8_" gradientUnits="userSpaceOnUse" x1="906.245" y1="-230.11" x2="906.245" y2="-160.41" gradientTransform="matrix(1 0 0 -1 -135 205.15)">
		<stop  offset="0" style="stop-color:#808080;stop-opacity:0.25"/>
		<stop  offset="0.54" style="stop-color:#808080;stop-opacity:0.12"/>
		<stop  offset="1" style="stop-color:#808080;stop-opacity:0.1"/>
	</linearGradient>
	<path class="st11" d="M783.6,417.7c15.3,0,22.4-8.2,22.4-19.2c0-19.2-15.5-33-34.7-33c-19.2,0-34.9,15.6-34.9,34.9
		c0,19.2,15.6,34.8,34.9,34.8l0,0c7.1-0.1,14-2.3,19.7-6.5c0.6-0.4,1-1,1.1-1.7c0.1-0.6-0.1-1.2-0.5-1.6c-0.9-0.8-2.3-0.7-3.1,0.3
		c0,0-0.1,0.1-0.1,0.1c-1.3,1.7-5.1,4.5-16.3,4.7c-16.8,0.4-30.7-12.8-31.2-29.6c0-0.2,0-0.3,0-0.5c-0.1-16.8,13.8-30.1,30.4-30.3
		s30,11.5,30,28c0,10.4-7.3,15.3-16,15.1c-2.8,0.2-3.3-0.9-3-4.8c0.3-3.2,3.4-16.6,4.5-21.3c0.3-1.4-0.5-2.8-1.9-3.1
		c-0.2-0.1-0.5-0.1-0.7-0.1H784c-1.2,0.1-2.1,1.1-2.3,2.3c-0.1,0.8-0.2,1.5-0.2,2.3c-2.1-3.7-6-6.1-10.3-6.2
		c-9.9,0.2-18.5,9.1-18.8,22.2c0,8.8,4.7,13.8,12.7,13.8c4.8-0.1,9.2-2.5,11.9-6.5C777.2,411.8,776.9,417.4,783.6,417.7z
		 M765.9,413.8c-5,0-8-3.7-8-9.7c0-10.3,6.9-16.8,13.4-16.8c5.8,0,8,3.9,8.2,9.1C779.5,404.9,774.1,413.8,765.9,413.8L765.9,413.8z"
		/>
</g>
<path class="st5" d="M782.7,416.4c14.1,0,20.6-7.6,20.6-17.7c0-17.7-14.3-30.4-32-30.4c-17.8,0-32.2,14.4-32.2,32.2
	c0,17.8,14.4,32.2,32.2,32.2c6.5-0.1,12.9-2.2,18.2-6c0.5-0.4,0.9-0.9,1-1.6c0.1-0.5-0.1-1.1-0.5-1.5c-0.8-0.7-2.1-0.6-2.8,0.2
	c0,0-0.1,0.1-0.1,0.2c-1.2,1.5-4.7,4.1-15,4.4c-15.5,0.4-28.3-11.7-28.8-27.2c0-0.2,0-0.4,0-0.6c0-15.5,12.7-27.8,28-28
	s27.7,10.7,27.7,25.9c0,9.6-6.7,14.1-14.8,13.9c-2.6,0.2-3.1-0.9-2.8-4.5c0.3-3,3.1-15.3,4.1-19.7c0.3-1.3-0.4-2.6-1.7-2.9
	c-0.2-0.1-0.5-0.1-0.7-0.1H783c-1.1,0.1-2,1-2.1,2.1c-0.1,0.7-0.1,1.4-0.2,2.1c-1.9-3.5-5.5-5.6-9.5-5.7c-9.1,0.2-17,8.4-17.4,20.5
	c0,8.1,4.3,12.7,11.7,12.7c4.4-0.1,8.5-2.3,11-6C776.6,410.9,776.5,416.1,782.7,416.4z M766.3,412.8c-4.6,0-7.4-3.4-7.4-8.9
	c0-9.5,6.4-15.5,12.4-15.5c5.3,0,7.4,3.6,7.6,8.4C778.9,404.6,773.9,412.8,766.3,412.8z"/>
<path class="st12" d="M724.6,315.9c10.1,0,14.7-5.4,14.7-12.7c0-12.7-10.2-21.8-22.8-21.8c-12.7,0.6-22.5,11.4-21.9,24
	c0.6,11.9,10,21.3,21.9,21.9c4.7,0,9.2-1.5,13-4.3c0.4-0.3,0.6-0.7,0.7-1.1c0.1-0.4-0.1-0.8-0.3-1.1c-0.6-0.5-1.5-0.4-2,0.2
	c0,0,0,0.1-0.1,0.1c-0.8,1.1-3.3,3-10.7,3.1c-11,0.1-20-8.6-20.2-19.6s8.6-20,19.6-20.2c10.9-0.1,19.8,7.6,19.8,18.4
	c0,6.9-4.8,10.1-10.6,10c-1.8,0.1-2.2-0.6-2-3.2c0.2-2.1,2.2-11,2.9-14c0.2-0.9-0.3-1.8-1.3-2.1c-0.2,0-0.3-0.1-0.5,0h-0.1
	c-0.8,0.1-1.4,0.7-1.5,1.5c-0.1,0.5-0.1,1-0.1,1.5c-1.4-2.5-3.9-4-6.8-4c-6.5,0.1-12.2,6-12.4,14.6c0,5.8,3.1,9.1,8.3,9.1
	c3.2-0.1,6.1-1.7,7.9-4.3C720.3,312,720.2,315.6,724.6,315.9z M712.9,313.3c-3.3,0-5.3-2.5-5.3-6.4c0-6.8,4.5-11.1,8.8-11.1
	c3.8,0,5.3,2.6,5.4,6C721.9,307.4,718.3,313.3,712.9,313.3L712.9,313.3z"/>
<path class="st12" d="M530.8,354.3c10.1,0,14.7-5.4,14.7-12.7c0-12.7-10.2-21.8-22.8-21.8c-12.7,0.6-22.5,11.4-21.9,24
	c0.6,11.9,10,21.3,21.9,21.9c4.7,0,9.2-1.5,13-4.3c0.4-0.3,0.6-0.7,0.7-1.1c0.1-0.4-0.1-0.8-0.3-1.1c-0.6-0.5-1.5-0.4-2,0.2
	c0,0,0,0.1-0.1,0.1c-0.8,1.1-3.3,3-10.7,3.1c-11,0.1-20-8.6-20.2-19.6s8.6-20,19.6-20.2c10.9-0.1,19.8,7.6,19.8,18.4
	c0,6.9-4.8,10.1-10.6,10c-1.8,0.1-2.2-0.6-2-3.2c0.2-2.1,2.2-11,2.9-14c0.2-0.9-0.3-1.8-1.3-2.1c-0.2,0-0.3-0.1-0.5,0H531
	c-0.8,0.1-1.4,0.7-1.5,1.5c-0.1,0.5-0.1,1-0.1,1.5c-1.4-2.5-3.9-4-6.8-4c-6.5,0.1-12.2,6-12.4,14.6c0,5.8,3.1,9.1,8.3,9.1
	c3.2-0.1,6.1-1.7,7.9-4.3C526.5,350.4,526.4,354,530.8,354.3z M519.2,351.7c-3.3,0-5.3-2.5-5.3-6.4c0-6.8,4.5-11.1,8.8-11.1
	c3.8,0,5.3,2.6,5.4,6C528.1,345.8,524.6,351.7,519.2,351.7L519.2,351.7z"/>
<path class="st12" d="M507.1,183.3c10.1,0,14.7-5.4,14.7-12.6c0-12.6-10.2-21.8-22.8-21.8c-12.7,0.6-22.5,11.4-21.9,24
	c0.6,11.9,10,21.3,21.9,21.9c4.7,0,9.2-1.5,13-4.3c0.4-0.3,0.6-0.7,0.7-1.1c0.1-0.4-0.1-0.8-0.3-1.1c-0.6-0.5-1.5-0.4-2,0.2
	c0,0,0,0.1-0.1,0.1c-0.8,1.1-3.3,3-10.7,3.1c-11,0.1-20-8.6-20.2-19.6c-0.1-11,8.6-20,19.6-20.2c10.9-0.1,19.8,7.6,19.8,18.4
	c0,6.9-4.8,10.1-10.6,10c-1.8,0.1-2.2-0.6-2-3.2c0.2-2.1,2.2-11,2.9-14c0.2-0.9-0.3-1.8-1.3-2.1c-0.2,0-0.3-0.1-0.5,0h-0.1
	c-0.8,0.1-1.4,0.7-1.5,1.5c-0.1,0.5-0.1,1-0.1,1.5c-1.4-2.5-3.9-4-6.8-4c-6.5,0.1-12.2,6-12.4,14.6c0,5.8,3.1,9.1,8.3,9.1
	c3.2-0.1,6.1-1.7,7.9-4.3C502.7,179.5,502.6,183.1,507.1,183.3z M495.4,180.8c-3.3,0-5.3-2.5-5.3-6.4c0-6.8,4.5-11.1,8.8-11.1
	c3.8,0,5.3,2.6,5.4,6C504.4,174.9,500.8,180.8,495.4,180.8z"/>
<path class="st12" d="M891,188.8c10.1,0,14.7-5.4,14.7-12.6c0-12.6-10.2-21.8-22.8-21.8c-12.7,0.6-22.5,11.4-21.9,24
	c0.6,11.9,10,21.3,21.9,21.9c4.7,0,9.2-1.5,13-4.3c0.4-0.3,0.6-0.7,0.7-1.1c0.1-0.4-0.1-0.8-0.3-1.1c-0.6-0.5-1.5-0.4-2,0.2
	c0,0,0,0.1-0.1,0.1c-0.8,1.1-3.3,3-10.7,3.1c-11,0.1-20-8.6-20.2-19.6s8.6-20,19.6-20.2c10.9-0.1,19.8,7.6,19.8,18.4
	c0,6.9-4.8,10.1-10.6,10c-1.8,0.1-2.2-0.6-2-3.2c0.2-2.1,2.2-11,2.9-14c0.2-0.9-0.3-1.8-1.3-2.1c-0.2,0-0.3-0.1-0.5,0h-0.1
	c-0.8,0.1-1.4,0.7-1.5,1.5c-0.1,0.5-0.1,1-0.1,1.5c-1.4-2.5-3.9-4-6.8-4c-6.5,0.1-12.2,6-12.4,14.6c0,5.8,3.1,9.1,8.3,9.1
	c3.2-0.1,6.1-1.7,7.9-4.3C886.7,185,886.5,188.6,891,188.8z M879.3,186.2c-3.3,0-5.3-2.5-5.3-6.4c0-6.8,4.5-11.1,8.8-11.1
	c3.8,0,5.3,2.6,5.4,6C888.3,180.3,884.7,186.2,879.3,186.2L879.3,186.2z"/>
<path class="st12" d="M526.3,234.1c5.6,0,8.3-3,8.3-7.1c0-7.1-5.7-12.2-12.8-12.2c-7.1,0.2-12.7,6.1-12.5,13.2
	c0.2,6.8,5.7,12.3,12.5,12.5c2.6,0,5.2-0.9,7.3-2.4c0.2-0.2,0.4-0.4,0.4-0.6c0-0.2,0-0.4-0.2-0.6c-0.3-0.3-0.9-0.2-1.1,0.1
	c0,0,0,0,0,0c-0.5,0.6-1.9,1.7-6,1.8c-6.2,0.2-11.3-4.5-11.6-10.7c-0.2-6.2,4.5-11.3,10.7-11.6c0.2,0,0.4,0,0.6,0
	c6.1-0.1,11.1,4.3,11.1,10.3c0,3.9-2.7,5.6-5.9,5.6c-1,0.1-1.2-0.3-1.1-1.8c0.1-1.2,1.3-6.1,1.7-7.9c0.1-0.5-0.3-1.1-0.8-1.2
	c-0.1,0-0.1,0-0.2,0h-0.1c-0.4,0.1-0.8,0.4-0.8,0.8c0,0.3-0.1,0.6-0.1,0.8c-0.8-1.4-2.2-2.2-3.8-2.3c-3.7,0.1-6.8,3.4-7,8.2
	c0,3.2,1.7,5.1,4.7,5.1c1.8,0,3.4-0.9,4.4-2.4c0,1.2,1,2.2,2.2,2.2C526.2,234.1,526.3,234.1,526.3,234.1z M519.8,232.6
	c-1.9,0-3-1.4-3-3.6c0-3.8,2.5-6.2,5-6.2c2.1,0,3,1.4,3,3.4C524.8,229.3,522.8,232.6,519.8,232.6L519.8,232.6z"/>
<path class="st12" d="M592.2,288c5.6,0,8.3-3,8.3-7.1c0-7.1-5.7-12.2-12.8-12.2c-7.1,0.2-12.7,6.1-12.5,13.2
	c0.2,6.8,5.7,12.3,12.5,12.5c2.6,0,5.2-0.9,7.3-2.4c0.2-0.2,0.4-0.4,0.4-0.6c0-0.2,0-0.4-0.2-0.6c-0.3-0.3-0.9-0.2-1.1,0.1
	c0,0,0,0,0,0c-0.5,0.6-1.9,1.7-6,1.8c-6.2,0.2-11.3-4.5-11.6-10.7c-0.2-6.2,4.5-11.3,10.7-11.6c0.2,0,0.4,0,0.6,0
	c6.1-0.1,11.1,4.3,11.1,10.3c0,3.8-2.7,5.6-5.9,5.6c-1,0.1-1.2-0.3-1.1-1.8c0.1-1.2,1.3-6.1,1.7-7.9c0.1-0.5-0.3-1.1-0.8-1.2
	c-0.1,0-0.1,0-0.2,0h-0.1c-0.4,0.1-0.8,0.4-0.8,0.8c0,0.3-0.1,0.6-0.1,0.8c-0.8-1.4-2.2-2.2-3.8-2.3c-3.7,0.1-6.8,3.4-7,8.2
	c0,3.2,1.7,5.1,4.7,5.1c1.8,0,3.4-0.9,4.4-2.4c0,1.2,1,2.2,2.2,2.2C592,288,592.1,288,592.2,288z M585.6,286.6c-1.9,0-3-1.4-3-3.6
	c0-3.8,2.5-6.2,5-6.2c2.1,0,3,1.4,3,3.4C590.6,283.2,588.7,286.5,585.6,286.6L585.6,286.6z"/>
<path class="st12" d="M788.7,222.1c5.6,0,8.3-3,8.3-7.1c0-7.1-5.7-12.2-12.8-12.2c-7.1,0.2-12.7,6.1-12.5,13.2
	c0.2,6.8,5.7,12.3,12.5,12.5c2.6,0,5.2-0.9,7.3-2.4c0.2-0.2,0.4-0.4,0.4-0.6c0-0.2,0-0.4-0.2-0.6c-0.3-0.3-0.9-0.2-1.1,0.1
	c0,0,0,0,0,0c-0.5,0.6-1.9,1.7-6,1.8c-6.2,0.2-11.3-4.5-11.6-10.7c-0.2-6.2,4.5-11.3,10.7-11.6c0.2,0,0.4,0,0.6,0
	c6.1-0.1,11.1,4.3,11.1,10.3c0,3.9-2.7,5.6-5.9,5.6c-1,0.1-1.2-0.3-1.1-1.8c0.1-1.2,1.3-6.1,1.7-7.9c0.1-0.5-0.3-1.1-0.8-1.2
	c-0.1,0-0.1,0-0.2,0h-0.1c-0.4,0.1-0.8,0.4-0.8,0.8c0,0.3-0.1,0.6-0.1,0.8c-0.8-1.4-2.2-2.2-3.8-2.3c-3.7,0.1-6.8,3.4-7,8.2
	c0,3.2,1.7,5.1,4.7,5.1c1.8,0,3.4-0.9,4.4-2.4c0,1.2,1,2.2,2.2,2.2C788.5,222.2,788.6,222.2,788.7,222.1z M782.1,220.7
	c-1.9,0-3-1.4-3-3.6c0-3.8,2.5-6.2,5-6.2c2.1,0,3,1.4,3,3.4C787.2,217.4,785.2,220.7,782.1,220.7L782.1,220.7z"/>
<path class="st12" d="M656.1,165.5c5.6,0,8.3-3,8.3-7.1c0-7.1-5.7-12.2-12.8-12.2c-7.1,0.2-12.7,6.1-12.5,13.2
	c0.2,6.8,5.7,12.3,12.5,12.5c2.6,0,5.2-0.9,7.3-2.4c0.2-0.2,0.4-0.4,0.4-0.6c0-0.2,0-0.4-0.2-0.6c-0.3-0.3-0.9-0.2-1.1,0.1
	c0,0,0,0,0,0c-0.5,0.6-1.9,1.7-6,1.8c-6.2,0.2-11.3-4.5-11.6-10.7c-0.2-6.2,4.5-11.3,10.7-11.6c0.2,0,0.4,0,0.6,0
	c6.1-0.1,11.1,4.3,11.1,10.3c0,3.9-2.7,5.6-5.9,5.6c-1,0.1-1.2-0.3-1.1-1.8c0.1-1.2,1.3-6.1,1.7-7.9c0.1-0.5-0.3-1.1-0.8-1.2
	c-0.1,0-0.1,0-0.2,0h-0.1c-0.4,0.1-0.8,0.4-0.8,0.8c0,0.3-0.1,0.6-0.1,0.8c-0.8-1.4-2.2-2.2-3.8-2.3c-3.7,0.1-6.8,3.4-7,8.2
	c0,3.2,1.7,5.1,4.7,5.1c1.8,0,3.4-0.9,4.4-2.4c0,1.2,1,2.2,2.2,2.2C656,165.5,656.1,165.5,656.1,165.5z M649.6,164.1
	c-1.9,0-3-1.4-3-3.6c0-3.8,2.5-6.2,5-6.2c2.1,0,3,1.4,3,3.4C654.6,160.8,652.6,164.1,649.6,164.1L649.6,164.1z"/>
<path class="st12" d="M724.6,122.1c10.1,0,14.7-5.4,14.7-12.6c0-12.6-10.2-21.8-22.8-21.8c-12.7,0.6-22.5,11.4-21.9,24
	c0.6,11.9,10,21.3,21.9,21.9c4.7,0,9.2-1.5,13-4.3c0.4-0.3,0.6-0.7,0.7-1.1c0.1-0.4-0.1-0.8-0.3-1.1c-0.6-0.5-1.5-0.4-2,0.2
	c0,0,0,0.1-0.1,0.1c-0.8,1.1-3.3,3-10.7,3.1c-11,0.1-20-8.6-20.2-19.6c-0.1-11,8.6-20,19.6-20.2c10.9-0.1,19.8,7.6,19.8,18.4
	c0,6.9-4.8,10.1-10.6,10c-1.8,0.1-2.2-0.6-2-3.2c0.2-2.1,2.2-11,2.9-14c0.2-0.9-0.3-1.8-1.3-2.1c-0.2,0-0.3-0.1-0.5,0h-0.1
	c-0.8,0.1-1.4,0.7-1.5,1.5c-0.1,0.5-0.1,1-0.1,1.5c-1.4-2.5-3.9-4-6.8-4c-6.5,0.1-12.2,6-12.4,14.6c0,5.8,3.1,9.1,8.3,9.1
	c3.2-0.1,6.1-1.7,7.9-4.3C720.3,118.2,720.2,121.8,724.6,122.1z M712.9,119.5c-3.3,0-5.3-2.5-5.3-6.4c0-6.8,4.5-11.1,8.8-11.1
	c3.8,0,5.3,2.6,5.4,6C721.9,113.6,718.3,119.5,712.9,119.5L712.9,119.5z"/>
<g class="st0">
	
		<linearGradient id="SVGID_9_" gradientUnits="userSpaceOnUse" x1="1002.31" y1="-159.4" x2="1002.31" y2="-17.26" gradientTransform="matrix(1 0 0 -1 -135 205.15)">
		<stop  offset="0" style="stop-color:#808080;stop-opacity:0.25"/>
		<stop  offset="0.54" style="stop-color:#808080;stop-opacity:0.12"/>
		<stop  offset="1" style="stop-color:#808080;stop-opacity:0.1"/>
	</linearGradient>
	<path class="st13" d="M892.4,328.8c31.2,0,45.6-16.7,45.6-39.1c0-39.1-31.5-67.3-70.7-67.3s-70.7,31.9-70.7,71.1
		s31.5,71.1,70.7,71.1c14.4-0.1,28.5-4.7,40.2-13.2c1.2-0.8,2-2.1,2.2-3.5c0.2-1.2-0.2-2.4-1.1-3.3c-1.9-1.6-4.7-1.4-6.3,0.5
		c-0.1,0.1-0.1,0.2-0.2,0.3c-2.6,3.4-10.3,9.2-33.2,9.7c-34.6,0.8-63.5-26.8-63.6-61.3c-0.1-34.3,28.1-61.4,62-61.8
		s61.2,23.6,61.2,57c0,21.3-14.8,31.2-32.7,30.8c-5.7,0.4-6.8-1.9-6.1-9.9c0.6-6.5,6.9-33.9,9.1-43.4c0.7-2.8-1.1-5.7-3.9-6.4
		c-0.5-0.1-0.9-0.2-1.4-0.1h-0.4c-2.4,0.3-4.3,2.2-4.6,4.6c-0.2,1.5-0.3,3.1-0.3,4.6c-3.4-6.8-11.4-12.2-20.9-12.5
		c-20.1,0.4-37.6,18.6-38.4,45.2c0,17.9,9.5,28.1,25.8,28.1c11.4,0,19.8-6.8,24.3-13.3C879.1,316.7,878.7,328.1,892.4,328.8z
		 M856.3,320.8c-10.3,0-16.3-7.6-16.3-19.8c0-20.9,14.1-34.2,27.4-34.2c11.8,0,16.3,8,16.7,18.6C884,302.6,873,320.8,856.3,320.8
		L856.3,320.8z"/>
</g>
<path class="st5" d="M891.5,327.6c30.1,0,44-16.1,44-37.8c0-37.8-30.4-64.9-68.2-64.9s-68.2,30.8-68.2,68.5s30.4,68.5,68.2,68.5
	c13.9-0.1,27.5-4.6,38.8-12.7c1.1-0.8,1.9-2,2.1-3.4c0.2-1.2-0.2-2.4-1.1-3.2c-1.8-1.5-4.5-1.3-6.1,0.5c-0.1,0.1-0.1,0.2-0.2,0.3
	c-2.5,3.3-9.9,8.8-32,9.3c-33.4,0.8-61.3-25.8-61.4-59.2c-0.1-33.1,27.1-59.2,59.8-59.6c32.7-0.4,59,22.7,59,55
	c0,20.5-14.3,30.1-31.5,29.7c-5.5,0.4-6.6-1.8-5.9-9.5c0.6-6.3,6.6-32.7,8.8-41.9c0.7-2.7-1-5.5-3.8-6.2c-0.4-0.1-0.9-0.2-1.4-0.1
	h-0.4c-2.3,0.3-4.2,2.1-4.4,4.5c-0.2,1.5-0.3,3-0.3,4.5c-3.3-6.6-11-11.7-20.2-12.1c-19.4,0.4-36.3,18-37,43.6
	c0,17.2,9.2,27.1,24.9,27.1c11,0,19.1-6.6,23.5-12.8C878.7,315.8,878.3,326.8,891.5,327.6z M856.7,319.9c-9.9,0-15.8-7.3-15.8-19.1
	c0-20.2,13.6-33,26.4-33c11.4,0,15.8,7.7,16.1,18C883.4,302.3,872.8,319.9,856.7,319.9z"/>
<path class="st14" d="M364.4,123.1c0.9-4.2,6.5-5.8,10.6-4.5c4.1,1.3,7.3,4.5,11,6.8s8.7,3.6,12.1,1c3.3-2.4,3.8-7.3,6.5-10.5
	s7.5-4.3,11.8-3.6s8.1,2.9,11.8,5l22.9,12.9"/>
<path class="st14" d="M356.4,148.1c0.9-4.2,6.5-5.8,10.6-4.5s7.3,4.5,11,6.8c3.7,2.3,8.7,3.6,12.1,1c3.3-2.4,3.8-7.3,6.5-10.5
	s7.5-4.3,11.8-3.6s8.1,2.9,11.8,5l22.9,12.9"/>
<path class="st14" d="M364.4,358.1c0.9,4.2,6.5,5.8,10.6,4.5c4.1-1.3,7.3-4.5,11-6.8s8.7-3.6,12.1-1c3.3,2.4,3.8,7.3,6.5,10.5
	s7.5,4.3,11.8,3.6s8.1-2.9,11.8-5l22.9-12.9"/>
<path class="st14" d="M356.4,333.1c0.9,4.2,6.5,5.8,10.6,4.5s7.3-4.5,11-6.8c3.7-2.3,8.7-3.6,12.1-1c3.3,2.4,3.8,7.3,6.5,10.5
	s7.5,4.3,11.8,3.6s8.1-2.9,11.8-5l22.9-12.9"/>
<g class="st15">
	
		<linearGradient id="SVGID_10_" gradientUnits="userSpaceOnUse" x1="214.0582" y1="-280.6157" x2="214.0582" y2="-183.8167" gradientTransform="matrix(0.9423 -0.3348 -0.3348 -0.9423 -150.4567 153.4979)">
		<stop  offset="0" style="stop-color:#808080;stop-opacity:0.25"/>
		<stop  offset="0.54" style="stop-color:#808080;stop-opacity:0.12"/>
		<stop  offset="1" style="stop-color:#808080;stop-opacity:0.1"/>
	</linearGradient>
	<path class="st16" d="M161.4,334.4c-1,0.5-1.9,1.4-2.5,2.4l-1.3-1.4l0,0c-0.2-1.5-4-33.5-11.6-33.7c-5.8-0.1-12.1-0.6-16.4,1l0,0
		l-0.2-0.6l-2.3-6.3l6-2.1l-0.1-0.3l4.7-1.7c0.7-1-0.8-1-2.4-0.7c0-0.1,0.1-0.2,0.1-0.3l2.8-16.3c0,0,0.7-3.5-0.9-4.5
		s-1.5,4.5-1.5,4.5l-3,11.2c0,0-8.6-4.3-13.8-6.2c-0.6-0.3-1.2-0.5-1.9-0.6c-0.9-0.2-1.6-0.3-1.8-0.1l0,0c-0.7,0-1.4,0.2-2,0.4
		l-0.5,0.2l-0.3-0.8l-0.1-0.3c2-1.5,3.2-3.9,3.3-6.4c0.6-2.9-0.2-5.8-2.1-8.1c0.1,0,0.1-0.1,0.2-0.1c0.1-0.3,0.1-0.6,0-0.8
		c-0.8-1.8-2.4-3-4.4-3.3c-0.8,0-1.5-0.2-2.2-0.5c-0.6-0.3-1-0.9-1.6-1.1c-0.8-0.2-1.6,0.1-2.2,0.6c-0.7,0.5-1.3,1.1-1.8,1.8
		c-0.5,0.9-1.1,1.6-1.8,2.3c-0.6,0.4-1.2,0.7-1.8,1.1c-0.9,0.7-1.4,1.7-1.4,2.8c0,0.6,0.2,1.1,0.4,1.6c-0.2,0.8-0.2,1.6-0.2,2.4
		l-0.1,0.1l0.1-0.1c0.2,3.6,2.4,6.8,5.8,8.3c1.4,0.9,3.1,1.4,4.8,1.4l0.1,0.3l0.4,1c-1,0.6-1.9,1.4-2.6,2.3l0,0l-0.2,0.2l0,0
		c-0.7,1-3,4.3-2,6.8c0,0.1,0,0.2,0.1,0.3c0.1,0.8,0.3,1.5,0.5,2.3l5.7,15.9l0.2,0.6l0.5,1.4c0.7,2,2.1,3.7,3.8,4.8
		c3.5,0.3,11.1,2.7,11.8,2.4l9.4,3.3l-5,23c0,0-2.8,4.4,0.5,4.3c3.3-0.3,6.5-0.8,9.7-1.5c0,0,0.4-2.1-1.3-2.4
		c-1.2-0.1-2.4,0.2-3.4,0.8l-0.3-1.6c0,0,14.1-24.7,7.8-29.1c-1.2-0.9-2.5-1.8-3.7-2.6l3.3-0.8l10.5,27.1l0.1-0.1
		c0,0.6,0.2,5.1,2.8,3.4c2.6-2,5.1-4.1,7.5-6.4C163.9,335.8,162.9,333.8,161.4,334.4z M132.4,291.6l-6.6,0.4l-1.8-5.1l9,4.6
		L132.4,291.6z"/>
</g>
<ellipse transform="matrix(0.9423 -0.3348 0.3348 0.9423 -84.4515 51.4224)" cx="106.9" cy="270.7" rx="9.3" ry="9.3"/>
<path class="st17" d="M124.1,287.2l9.2,4.7c0.7,0.3,1.5,0.1,1.9-0.6c0.1-0.1,0.1-0.3,0.1-0.4l2.7-16h-2.3l-3,10.9
	c0,0-16.6-7.4-18-6.2C113.3,280.9,124.1,287.2,124.1,287.2z"/>
<path class="st18" d="M119.2,345.5"/>
<path class="st18" d="M120,316.4"/>
<path class="st17" d="M112.2,280.2L112.2,280.2c4.6-1.6,9.6,0.8,11.2,5.3l0,0l5.9,16.6l0,0l-19.5,6.9l0,0l-4.8-13.6
	C102.8,289.2,106,282.4,112.2,280.2z"/>
<path class="st19" d="M133.1,312.7l-8.9,3.2c-5.9,2.1-12.3-1-14.4-6.8c0,0,0,0,0,0l0,0l19.5-6.9L133.1,312.7z"/>
<path class="st20" d="M105.9,292.3l13.9,6.2l13.2-4.7l-0.6-1.7l-12.5,0.7l-11.1-6.8c-1.8-1.1-2.1,1.1-2.8,3.1l0,0
	C105.4,290.9,104.2,291.5,105.9,292.3z"/>
<path class="st17" d="M105.7,292l14.1,6.3l13.2-4.7l-0.6-1.7l-12.5,0.7l-10.9-6.7c-1.9-1.2-2.2,1.1-2.9,3.2l0,0
	C105.5,290.8,104.1,291.3,105.7,292z"/>
<path class="st21" d="M132.3,291.9c0,0,6.5-1.8,5.2,0.1l-4.6,1.7L132.3,291.9z"/>
<path class="st21" d="M135.6,275c0,0-0.1-5.3,1.5-4.4s0.9,4.4,0.9,4.4H135.6z"/>
<polygon class="st20" points="109.9,309 110.1,309.6 129.6,302.7 129.4,302.1 "/>
<path class="st19" d="M129,314.9l13.5-3.5l10.2,26.5l4.1-3.2c0,0-3.8-32.8-11.4-33s-16-1-19.4,3.3S129,314.9,129,314.9z"/>
<path class="st22" d="M126.9,306.4c0,0,8.5,1.1,10.9,4.9"/>
<path class="st19" d="M121.9,316.6l13.1,4.7l-4.9,22.5l5.2-0.3c0,0,13.8-24.1,7.6-28.5s-12.8-9.7-18-8S121.9,316.6,121.9,316.6z"/>
<polygon class="st20" points="128.4,283.9 132.5,287.4 132.7,286 "/>
<path class="st23" d="M130.1,343.7c0,0-2.7,4.3,0.5,4.2c3.2-0.3,6.4-0.7,9.5-1.5c0,0,0.4-2-1.2-2.3c-1.2-0.1-2.3,0.2-3.3,0.8
	l-0.3-1.5L130.1,343.7z"/>
<path class="st23" d="M152.9,337.9c0,0,0,5.2,2.7,3.4c2.6-1.9,5-4,7.3-6.3c0,0-0.8-1.9-2.3-1.3c-1,0.5-1.9,1.4-2.4,2.4l-1.2-1.4
	L152.9,337.9z"/>
<path class="st21" d="M109.2,276.5L109.2,276.5c1.3-0.5,2.8,0.2,3.3,1.6l0.9,2.4c0.5,1.3-0.2,2.8-1.6,3.3l0,0
	c-1.3,0.5-2.8-0.2-3.3-1.6l-0.9-2.4C107.2,278.4,107.9,276.9,109.2,276.5z"/>
<path class="st20" d="M109.4,276.7c-1.3,0.5-2,2-1.6,3.3l0.3,0.8c1.8,0,3.5-0.6,4.9-1.7l-0.3-0.8
	C112.2,276.9,110.7,276.2,109.4,276.7z"/>
<circle class="st21" cx="107.8" cy="272.3" r="8.3"/>
<path class="st20" d="M99.9,274.7c1.4-0.2,2.4-1.4,2.4-2.8c0.3-2.6,0.7-4.1,5.7-4.4s5.9-0.5,5.7-1.8c-0.1-0.9-2.5-2.4-3.9-3.2
	c-0.8-0.4-1.7-0.5-2.5-0.2l-5.1,1.8l-2.6,2.5l-1.6,2.8l0.5,2.9L99.9,274.7z"/>
<path d="M99.8,274.5c1.4-0.2,2.4-1.4,2.4-2.8c0.3-2.6,0.7-4.1,5.7-4.4s5.9-0.5,5.7-1.8c-0.1-0.9-2.5-2.4-3.9-3.2
	c-0.8-0.4-1.7-0.5-2.5-0.2l-5.1,1.8l-2.6,2.5l-1.6,2.8l0.5,2.9L99.8,274.5z"/>
<ellipse transform="matrix(0.9423 -0.3348 0.3348 0.9423 -85.9928 49.4886)" class="st21" cx="100.6" cy="274.2" rx="0.8" ry="1.7"/>
<path d="M98.6,270.3c-0.6-0.9-1-2-1.1-3.1c0-1.1,0.5-2.1,1.3-2.7c0.6-0.4,1.2-0.6,1.8-1.1c0.7-0.7,1.3-1.4,1.8-2.3
	c0.5-0.7,1.1-1.3,1.8-1.8c0.6-0.5,1.4-0.7,2.1-0.6c0.6,0.2,1,0.8,1.6,1.1c0.7,0.3,1.4,0.4,2.2,0.5c1.9,0.3,3.5,1.5,4.3,3.3
	c0.1,0.2,0.1,0.5,0,0.8c-0.1,0.1-0.3,0.2-0.4,0.2c-3.1,1.1-6.3,2.1-9.5,2.9c-1,0.2-2,0.5-3,0.9c-1.5,0.6-2.8,1.5-3.8,2.7"/>
</svg>
