<?xml version="1.0" encoding="utf-8"?>
<!-- Generator: Adobe Illustrator 25.2.0, SVG Export Plug-In . SVG Version: 6.00 Build 0)  -->
<svg version="1.1" id="Warstwa_1" xmlns="http://www.w3.org/2000/svg" xmlns:xlink="http://www.w3.org/1999/xlink" x="0px" y="0px"
	 viewBox="0 0 1063.8 836.1" style="enable-background:new 0 0 1063.8 836.1;" xml:space="preserve">
<style type="text/css">
	.st0{fill:#5BD3BC;}
	.st1{fill:#FFFFFF;}
	.st2{fill:#E5E5E5;}
	.st3{fill:#E6E6E6;}
	.st4{fill:#F2F2F2;}
	.st5{fill:#2A4251;}
	.st6{fill:#3F3D56;}
	.st7{fill:#FFB6B6;}
	.st8{fill:#1D3144;}
	.st9{fill:#2F2E41;}
	.st10{fill:#419383;}
	.st11{fill:#FFB8B8;}
	.st12{fill:#FF6584;}
	.st13{fill:#111827;}
	.st14{fill-rule:evenodd;clip-rule:evenodd;fill:#FFFFFF;stroke:#FFFFFF;stroke-miterlimit:10;}
</style>
<g id="f2e283ea-0459-447a-9b0b-c99a7bb735de">
	<path id="e7a552b9-89f6-403f-a662-c184ed590622" class="st0" d="M928.2,744.7c-0.5,17.8-3.5,35.5-8.9,52.4
		c-0.1,0.4-0.3,0.8-0.4,1.2h-33.1c0-0.4,0.1-0.7,0.1-1.2c2.2-25.3-10.4-177.8-25.6-204.1C861.8,595.2,930.8,664.2,928.2,744.7z"/>
	<path id="b08f6207-3c71-42fa-8723-265175c281aa" class="st0" d="M925.7,797.2c-0.3,0.4-0.6,0.8-0.9,1.2H900
		c0.2-0.3,0.4-0.7,0.7-1.2c4.1-7.4,16.2-29.5,27.5-52.4c12.1-24.6,23.2-50.2,22.3-59.5C950.8,687.4,959.1,751,925.7,797.2z"/>
	<path class="st1" d="M811.8,689.4H187.6V208.9h624.2L811.8,689.4L811.8,689.4z"/>
	<path class="st2" d="M811.8,689.4H187.6V208.9h624.2L811.8,689.4L811.8,689.4z M196.8,680.2h605.7V218.1H196.8V680.2z"/>
	<path class="st3" d="M351,571.1h-47.3c-2.7,0-4.8-2.2-4.8-4.8v-65.1c0-2.7,2.2-4.8,4.8-4.8H351c2.7,0,4.8,2.2,4.8,4.8v65.1
		C355.8,568.9,353.6,571.1,351,571.1z"/>
	<path class="st3" d="M437.1,571.1h-47.3c-2.7,0-4.8-2.2-4.8-4.8v-127c0-2.7,2.2-4.8,4.8-4.8h47.3c2.7,0,4.8,2.2,4.8,4.8v126.9
		C442,568.9,439.8,571.1,437.1,571.1z"/>
	<path class="st3" d="M523.3,571.1H476c-2.7,0-4.8-2.2-4.8-4.8v-65.1c0-2.7,2.2-4.8,4.8-4.8h47.3c2.7,0,4.8,2.2,4.8,4.8v65.1
		C528.1,568.9,526,571.1,523.3,571.1z"/>
	<path class="st3" d="M609.5,571.1h-47.3c-2.6,0.1-4.8-2-4.8-4.6V414.7c0.1-2.6,2.2-4.7,4.8-4.6h47.3c2.6-0.1,4.8,2,4.8,4.6v151.8
		C614.3,569.1,612.1,571.2,609.5,571.1z"/>
	<path class="st4" d="M695.7,571.1h-47.3c-2.7,0-4.8-2.2-4.8-4.8V371c0-2.7,2.2-4.8,4.8-4.8h47.3c2.7,0,4.8,2.2,4.8,4.8v195.2
		C700.5,568.9,698.3,571.1,695.7,571.1z"/>
	<circle class="st5" cx="327.3" cy="467" r="9.8"/>
	<circle class="st5" cx="413.5" cy="403.6" r="9.8"/>
	<circle class="st5" cx="499.7" cy="467" r="9.8"/>
	<circle class="st5" cx="585.9" cy="372.7" r="9.8"/>
	<circle class="st5" cx="672" cy="336.9" r="9.8"/>
	<polygon class="st6" points="499.9,469.2 413.5,404.5 328.3,468.3 326.4,465.7 413.5,400.4 499.5,464.8 584.9,371.4 585.3,371.2 
		671.4,336.5 672.7,339.5 586.8,374.1 	"/>
	<polygon class="st7" points="792.6,783.6 777.9,783.6 770.9,727 792.6,727 	"/>
	<path class="st8" d="M796.3,797.8H749v-0.6c0-10.2,8.2-18.4,18.4-18.4l0,0h28.9L796.3,797.8z"/>
	<path class="st8" d="M740.1,544l8.3,132.8l28,93.5l21.7,1.6l-10.9-114l4.8-75.6c0,0,22.6-16.9,10.1-37.2L740.1,544z"/>
	<polygon class="st7" points="802.2,783.6 787.5,783.6 780.5,727 802.2,727 	"/>
	<path class="st8" d="M805.9,797.8h-47.3v-0.6c0-10.2,8.2-18.4,18.4-18.4l0,0h28.9L805.9,797.8z"/>
	<path class="st8" d="M749.7,544l8.3,132.8l28,93.5l21.7,1.6l-10.9-114l4.8-75.6c0,0,22.6-16.9,10.1-37.2L749.7,544z"/>
	<path class="st5" d="M794.9,564.5c-25,0-54.4-15.3-56.1-16.2l-0.5-0.2l57.4-146.4l28.4-13.4c6.8-3.2,14.9-0.3,18.1,6.5
		c1.1,2.3,1.5,4.8,1.2,7.3l-11.3,101.2l-11.8,52.4l-0.1,0.1C813.7,562.2,804.6,564.5,794.9,564.5z"/>
	<path class="st7" d="M703.2,467.6c5.6-3.6,13.1-1.9,16.6,3.7c0.4,0.6,0.7,1.2,1,1.9l42.7-2.3l-11.2,19.2l-38.9-0.7
		c-6.3,2.1-13.2-1.3-15.3-7.6C696.4,476.4,698.5,470.6,703.2,467.6L703.2,467.6z"/>
	<path class="st5" d="M787.5,497.7l-42.8-1.1l0.6-28.3l20.2-6.4l33.2-46.6c6.9-9.6,20.2-11.9,29.9-5c9.6,6.9,11.9,20.2,5,29.9
		c-0.2,0.3-0.5,0.6-0.7,1L787.5,497.7z"/>
	<circle class="st7" cx="812.3" cy="354.5" r="28.4"/>
	<path class="st9" d="M776.3,330.8c2.9-2.9,6.6-4.9,10.7-5.6c4-0.9,8.3-1.1,11.4-3.6c3.6-2.9,5.2-8.3,9.6-9.5
		c1.9-0.4,3.9-0.2,5.7,0.5c7,2.1,13.3,6.3,18,12c1.1,1.6,2.5,3,4.1,4.1c1,0.4,1.9,0.9,2.8,1.4c1,0.8,1.8,1.8,2.3,3
		c3.2,6.4,3.9,13.8,2.1,20.7c-1.1,4.1-3.1,7.9-4.3,12s-6.6,11.9-7.9,10c-1.3-1.9-2.9-3.7-3.6-6c-1.4-4.4-0.1-8.8-3.6-11.9
		c-2.1-1.9-6-3.2-7.4-0.7c-0.6,0.9-0.5,2.1-1,3.1c-1,1.9-3.8,2.3-5.6,1.2c-1.8-1.2-3-3.1-3.5-5.2c-2.8-9.4-7.5-15.4-17.6-11.3
		c-3.8,1.5-8.2,2.5-11.8-0.1C771.9,341.4,772.9,334.6,776.3,330.8z"/>
	<path class="st0" d="M712.4,586.7h-47.3c-2.7,0-4.8-2.2-4.8-4.8V386.6c0-2.7,2.2-4.8,4.8-4.8h47.3c2.7,0,4.8,2.2,4.8,4.8v195.2
		C717.3,584.5,715.1,586.7,712.4,586.7z"/>
	<path class="st7" d="M702,484.4c5.6-3.6,13.1-1.9,16.6,3.7c0.4,0.6,0.7,1.2,1,1.9l42.7-2.3l-11.2,19.2l-38.9-0.7
		c-6.3,2.1-13.2-1.3-15.3-7.6C695.2,493.2,697.3,487.4,702,484.4L702,484.4z"/>
	<path class="st5" d="M786.3,514.5l-42.8-1.1l0.6-28.3l20.2-6.4l33.2-46.6c6.9-9.6,20.2-11.9,29.9-5c9.6,6.9,11.9,20.2,5,29.9
		c-0.2,0.3-0.5,0.6-0.7,1L786.3,514.5z"/>
	<path class="st3" d="M336.7,606.2l-156.8,64.3c-5.6,2.3-12-0.4-14.3-6l-48-117c-1.7-4.1,0.3-8.8,4.4-10.5l162.1-66.5
		c4.2-1.7,9,0.3,10.7,4.5l47.9,116.9C345,597.5,342.3,603.9,336.7,606.2z"/>
	<path class="st1" d="M185.6,656.3l137.1-56.2c5.4-2.2,8-8.4,5.8-13.9l0,0l-38.8-94.5c-2.2-5.4-8.4-8-13.9-5.8l0,0l-137,56.3
		c-5.4,2.2-8,8.4-5.8,13.9l0,0l38.8,94.5C174,655.9,180.2,658.5,185.6,656.3z"/>
	<path class="st3" d="M229.8,578.7l-4,1.6l-0.1-0.3l4-1.6L229.8,578.7z M221.7,582l-4,1.6l-0.1-0.3l4-1.6L221.7,582z M213.7,585.3
		l-4,1.6l-0.1-0.3l4-1.6L213.7,585.3z M205.7,588.5l-4,1.6l-0.1-0.3l4-1.6L205.7,588.5z M197.7,591.8l-4,1.6l-0.1-0.3l4-1.6
		L197.7,591.8z M189.7,595.1l-4,1.6l-0.1-0.3l4-1.6L189.7,595.1z M181.6,598.4l-4,1.6l-0.1-0.3l4-1.6L181.6,598.4z M173.6,601.7
		l-4,1.6l-0.1-0.3l4-1.6L173.6,601.7z"/>
	
		<rect x="163.4" y="605.2" transform="matrix(0.9252 -0.3795 0.3795 0.9252 -217.4448 107.7257)" class="st3" width="2.2" height="0.4"/>
	
		<rect x="200.4" y="607.2" transform="matrix(0.9252 -0.3795 0.3795 0.9252 -215.4407 121.9042)" class="st3" width="2.2" height="0.4"/>
	<path class="st3" d="M196.4,609.6l-4.1,1.7l-0.1-0.3l4.1-1.7L196.4,609.6z M188.2,613l-4.1,1.7l-0.1-0.3l4.1-1.7L188.2,613z
		 M179.9,616.4l-4.1,1.7l-0.1-0.3l4.1-1.7L179.9,616.4z"/>
	
		<rect x="169.5" y="619.8" transform="matrix(0.9252 -0.3795 0.3795 0.9252 -222.5297 111.118)" class="st3" width="2.2" height="0.4"/>
	
		<rect x="210.7" y="632.5" transform="matrix(0.9252 -0.3795 0.3795 0.9252 -224.2662 127.7162)" class="st3" width="2.2" height="0.4"/>
	<path class="st3" d="M206.8,634.8l-4.1,1.7l-0.1-0.3l4.1-1.7L206.8,634.8z M198.5,638.2l-4.1,1.7l-0.1-0.3l4.1-1.7L198.5,638.2z
		 M190.3,641.6l-4.1,1.7l-0.1-0.3l4.1-1.7L190.3,641.6z"/>
	
		<rect x="179.8" y="645.2" transform="matrix(0.9252 -0.3795 0.3795 0.9252 -231.398 116.9408)" class="st3" width="2.2" height="0.4"/>
	<path class="st0" d="M191.5,641.4l116.1-47.6c5.9-2.4,8.7-9.1,6.3-15l-23.5-57.2l-0.2,0.1l-28.5,68.2l-21.1-8.8
		c-0.8-0.3-1.7-0.3-2.4,0.2c-0.6,0.3-1,0.8-1.2,1.4l-14.9,35.7l-15.5-6.5c-1.4-0.6-3,0.1-3.6,1.5l0,0
		C202.8,613.6,193.2,637,191.5,641.4z"/>
	<path class="st10" d="M191.1,642l-0.3-0.1l12-28.6c0.7-1.6,2.5-2.3,4-1.7l15.2,6.3l14.9-35.5c0.7-1.6,2.5-2.3,4-1.7l20.8,8.7
		l28.7-68.5l0.3,0.1l-28.9,68.9l-21.2-8.9c-1.4-0.6-3,0.1-3.6,1.5l0,0l-15,35.9l-15.4-6.5c-1.4-0.6-3,0.1-3.6,1.5L191.1,642z"/>
	<circle class="st6" cx="202.5" cy="606.9" r="2.5"/>
	<path class="st11" d="M145.2,604.1c5-2.5,7-8.5,4.5-13.5c-0.3-0.5-0.6-1-0.9-1.5l7.5-73.8h-16.2l-6,72.1c-4.3,3.6-4.8,10-1.2,14.3
		C135.9,605.1,141,606.2,145.2,604.1L145.2,604.1z"/>
	<circle class="st11" cx="160.2" cy="451.4" r="23.1"/>
	<path class="st12" d="M164.5,558.2c-1.9,0-3.6-1.3-4.1-3.1c-1.8-6.7-6.7-18.1-14.3-33.8c-6.8-13.9-1-30.6,12.9-37.4
		c1-0.5,1.9-0.9,3-1.2l0,0c14.6-5.1,30.5,2.5,35.7,17.1c0.1,0.3,0.2,0.5,0.3,0.8c5.9,18.6,5.6,38.4,5.2,46.1
		c-0.1,1.9-1.5,3.5-3.3,3.9l-34.4,7.5C165.2,558.1,164.8,558.2,164.5,558.2z"/>
	<polygon class="st11" points="197.9,777.3 209.4,777.3 214.9,732.9 197.9,732.9 	"/>
	<path class="st8" d="M231.6,788h-36.2l0,0v-14l0,0h22.2C225.4,774.1,231.6,780.3,231.6,788L231.6,788L231.6,788L231.6,788z"/>
	<polygon class="st11" points="82.7,762.4 92.8,768 119,731.7 104.1,723.5 	"/>
	<path class="st8" d="M107.1,788l-31.7-17.4l0,0l6.7-12.3l0,0l19.5,10.7C108.4,772.8,110.8,781.3,107.1,788L107.1,788L107.1,788z"/>
	<path class="st8" d="M197.4,752.7c-2.1,0-3.9-1.6-4.2-3.7l-14.4-111c-0.2-1.3-1.3-2.2-2.6-2c-0.7,0.1-1.4,0.5-1.8,1.2l-60,108.9
		c-1,1.8-3.2,2.7-5.2,1.9l-13.1-5c-2.2-0.8-3.3-3.3-2.4-5.5v-0.1l41.6-102.2c0.1-0.3,0.2-0.5,0.2-0.8c5.6-43.6,20-65.8,24.2-71.5
		c0.6-0.9,0.8-2,0.5-3l-0.6-1.8c-0.5-1.4-0.2-3,0.8-4.1c15.3-17.5,42.1-7.9,42.4-7.8h0.1l0.1,0.1c30,41.1,18.9,174.7,16.4,201.1
		c-0.2,2-1.8,3.7-3.9,3.8l-17.7,1.4C197.6,752.7,197.5,752.7,197.4,752.7z"/>
	<path class="st12" d="M208,504.1L195,521c-1.4,1.8-4.1,2.2-5.9,0.8c-0.2-0.1-0.3-0.3-0.5-0.4l-14.8-15.3c-5.1-4-6-11.4-2-16.5
		s11.3-6,16.4-2.1l18.5,10.4c2,1.1,2.8,3.7,1.6,5.8C208.2,503.8,208.1,504,208,504.1L208,504.1z"/>
	<path class="st9" d="M163.9,446.1c5.9,4.1,13.7,8.2,19.8,3.9c3.9-3,5.4-8.1,3.6-12.7c-2.9-8.3-10.9-11.9-18.5-14.7
		c-9.9-3.6-20.7-6.5-30.9-3.9s-19.3,12.4-17.5,22.8c1.5,8.4,9.4,15.3,8.2,23.7c-1.1,8.5-10.7,12.9-19.1,14.4s-17.8,2-23.9,8
		c-7.7,7.7-5.8,21.5,1.5,29.6s18.2,11.8,28.8,14.3c14.1,3.3,29.3,5.1,42.6-0.4c13.3-5.5,23.7-20.3,19.9-34.3
		c-1.6-5.9-5.5-10.8-9.2-15.7s-7.5-9.9-8.9-15.8c-1.2-4.9-0.3-10.7,3-14.4C164.6,449.7,164.8,447.7,163.9,446.1L163.9,446.1z"/>
</g>
<g id="Warstwa_2_1_">
	<circle class="st13" cx="812.3" cy="161.5" r="56.1"/>
	<circle class="st13" cx="444.5" cy="82.7" r="82.7"/>
	
		<ellipse transform="matrix(0.7071 -0.7071 0.7071 0.7071 -130.492 865.1645)" class="st13" cx="979.1" cy="590.1" rx="84.7" ry="84.7"/>
	<circle class="st13" cx="881.3" cy="783.6" r="52.5"/>
	<circle class="st13" cx="63" cy="253.2" r="63"/>
	<circle class="st13" cx="213.7" cy="100.4" r="24.9"/>
	<circle class="st13" cx="329.3" cy="774" r="24.9"/>
	<path class="st14" d="M451.4,63.3c0-1.3,1.2-2.4,2.8-2.4h22.3c1.5,0,2.8,1.1,2.8,2.4v19.5c0,1.3-1.2,2.4-2.8,2.4
		c-1.5,0-2.8-1.1-2.8-2.4V70.1l-20.1,21.5c-1,1-2.7,1.2-3.9,0.3c-0.1-0.1-0.1-0.1-0.2-0.2L435,79.2l-20.4,24.5
		c-1,1.1-2.7,1.2-3.9,0.4c-1.1-0.8-1.4-2.2-0.6-3.3L432.5,74c0.9-1.1,2.6-1.3,3.9-0.5c0.1,0.1,0.2,0.2,0.3,0.2l14.5,12.7l19.4-20.7
		h-16.4C452.7,65.7,451.4,64.6,451.4,63.3z"/>
	<path class="st1" d="M860.7,792.4c0-1.6,1.3-2.9,2.9-2.9h5.9c1.6,0,2.9,1.3,2.9,2.9v8.8c0,1.6-1.3,2.9-2.9,2.9h-5.9
		c-1.6,0-2.9-1.3-2.9-2.9V792.4z M875.4,780.7c0-1.6,1.3-2.9,2.9-2.9h5.9c1.6,0,2.9,1.3,2.9,2.9v20.5c0,1.6-1.3,2.9-2.9,2.9h-5.9
		c-1.6,0-2.9-1.3-2.9-2.9V780.7z M890.1,766c0-1.6,1.3-2.9,2.9-2.9h5.9c1.6,0,2.9,1.3,2.9,2.9v35.2c0,1.6-1.3,2.9-2.9,2.9H893
		c-1.6,0-2.9-1.3-2.9-2.9V766z"/>
	<path class="st1" d="M207,111.8c-0.6,0.3-1.3-0.2-1.1-0.9l1.3-7.2l-5.4-5.1c-0.5-0.5-0.2-1.4,0.4-1.5l7.5-1.1l3.3-6.6
		c0.3-0.6,1.1-0.6,1.4,0l3.3,6.6l7.5,1.1c0.7,0.1,0.9,1,0.4,1.5l-5.4,5.1l1.3,7.2c0.1,0.7-0.6,1.2-1.1,0.9l-6.7-3.4L207,111.8
		L207,111.8z"/>
	<g>
		<path class="st1" d="M329.3,762l2.5,1.3l2.8,0.4l1.3,2.5l2,2l-0.5,2.8l0.5,2.8l-2,2l-1.3,2.5l-2.8,0.4l-2.5,1.3l-2.5-1.3l-2.8-0.4
			l-1.3-2.5l-2-2l0.5-2.8l-0.5-2.8l2-2l1.3-2.5l2.8-0.4L329.3,762z"/>
		<path class="st1" d="M323.3,779.7v6.3l6-1.5l6,1.5v-6.3l-3,0.5l-3,1.5l-3-1.5L323.3,779.7z"/>
	</g>
	<path class="st1" d="M805.8,139.8c0.7,0.4,0.9,1.3,0.5,2l0,0l-7.4,12.4h26.9l-7.4-12.4c-0.4-0.7-0.2-1.6,0.5-2s1.6-0.2,2,0.5
		l8.3,13.9h5c0.8,0,1.5,0.7,1.5,1.5v2.9c0,0.8-0.7,1.5-1.5,1.5h-43.7c-0.8,0-1.5-0.7-1.5-1.5v-2.9c0-0.8,0.7-1.5,1.5-1.5h5l8.3-13.9
		C804.2,139.6,805.1,139.4,805.8,139.8L805.8,139.8L805.8,139.8z M796.2,181.7l-4.4-18.7H833l-4.4,18.7c-0.2,1-1.1,1.7-2.1,1.7h-28
		C797.3,183.3,796.4,182.7,796.2,181.7L796.2,181.7z"/>
	<path class="st1" d="M73.4,253.8c0-2.1-1.3-3.4-3-3.4s-2.8,1.3-2.8,3.7v1.3c0,2.4,1.1,3.7,2.9,3.7s2.9-1.3,2.9-3.6V253.8
		L73.4,253.8z M57.2,254.5l-2.2-7.2h-0.2l-2.2,7.2H57.2L57.2,254.5z"/>
	<path class="st1" d="M45.2,235.4c-3.3,0-6,2.7-6,6v23.8c0,3.3,2.7,6,6,6H81c3.3,0,6-2.7,6-6v-23.8c0-3.3-2.7-6-6-6L45.2,235.4
		L45.2,235.4z M63.7,254.2c0-3.8,2.1-6.1,5.2-6.1c2,0,3.4,0.9,4,2.3H73v-7h3.5v18.8h-3.4V260h-0.2c-0.4,1.4-2.1,2.4-4.1,2.4
		c-3.1,0-5.2-2.3-5.2-6.1L63.7,254.2L63.7,254.2z M51.6,257.6l-1.4,4.6h-3.6l6-17.9h4.1l6,17.9H59l-1.4-4.6H51.6L51.6,257.6z"/>
	<path class="st1" d="M987.6,602.9c0,1.2,1,2.1,2.1,2.1h4.3c1.2,0,2.1-1,2.1-2.1v-25.5c0-1.2-1-2.1-2.1-2.1h-4.3
		c-1.2,0-2.1,1-2.1,2.1V602.9z M976.9,605c-1.2,0-2.1-1-2.1-2.1v-17c0-1.2,1-2.1,2.1-2.1h4.3c1.2,0,2.1,1,2.1,2.1v17
		c0,1.2-1,2.1-2.1,2.1H976.9z M964.2,605c-1.2,0-2.1-1-2.1-2.1v-8.5c0-1.2,1-2.1,2.1-2.1h4.3c1.2,0,2.1,1,2.1,2.1v8.5
		c0,1.2-1,2.1-2.1,2.1H964.2z"/>
	<path class="st1" d="M1004.6,615.7v-40.5L985.4,556H962c-4.7,0-8.5,3.8-8.5,8.5v51.1c0,4.7,3.8,8.5,8.5,8.5h34.1
		C1000.8,624.2,1004.6,620.4,1004.6,615.7z M985.4,568.8c0,3.5,2.9,6.4,6.4,6.4h8.5v40.5c0,2.4-1.9,4.3-4.3,4.3h-34
		c-2.4,0-4.3-1.9-4.3-4.3v-51.1c0-2.4,1.9-4.3,4.3-4.3h23.4V568.8z"/>
</g>
</svg>
