<?xml version="1.0" encoding="utf-8"?>
<!-- Generator: Adobe Illustrator 24.3.0, SVG Export Plug-In . SVG Version: 6.00 Build 0)  -->
<svg version="1.1" id="bd13bc5c-07bb-468b-9fbb-97fef7b12cc2"
	 xmlns="http://www.w3.org/2000/svg" xmlns:xlink="http://www.w3.org/1999/xlink" x="0px" y="0px" viewBox="0 0 943 601.7"
	 style="enable-background:new 0 0 943 601.7;" xml:space="preserve">
<style type="text/css">
	.st0{fill:#F2F2F2;}
	.st1{fill:#FFFFFF;}
	.st2{fill:#3F3D56;}
	.st3{fill:#CCCCCC;}
	.st4{fill:#49E8CD;}
	.st5{fill:#E6E6E6;}
	.st6{fill:#A0616A;}
	.st7{fill:#2D363F;}
	.st8{fill:#71A3CC;}
	.st9{fill:#2F2E41;}
	.st10{fill:#FFB8B8;}
	.st11{fill:#505D68;}
</style>
<path class="st0" d="M167.7,596.5c9-7.6,14.5-19.6,13-31.3s-10.3-22.4-21.8-24.9s-24.6,4.4-28.1,15.6c-1.9-21.7-4.1-44.3-15.7-62.7
	c-10.4-16.7-28.5-28.7-48.1-30.8s-40.2,5.9-52.4,21.4S-0.6,521.7,8,539.5c6.3,13.1,17.9,22.8,30.1,30.7
	c39.3,25.4,86.5,35.7,132.8,29L167.7,596.5z"/>
<path class="st1" d="M34,468.8c16.2,13.2,31,27.9,44.3,44c13.3,16.1,25,33.4,34.9,51.7c5.6,10.3,10.5,20.8,14.9,31.7
	c0.9,2.2-2.7,3.2-3.6,1c-7.8-19.1-17.4-37.3-28.8-54.5c-11.3-17.1-24.2-33.1-38.6-47.7c-8.1-8.3-16.7-16.1-25.7-23.4
	C29.5,469.9,32.2,467.3,34,468.8z"/>
<path class="st2" d="M704.4,0h-487c-3.9,0-7,3.1-7,7v330c0,3.9,3.1,7,7,7h487c3.9,0,7-3.1,7-7V7C711.4,3.1,708.2,0,704.4,0z
	 M709.4,337c0,2.8-2.2,5-5,5h-487c-2.8,0-5-2.2-5-5V7c0-2.8,2.2-5,5-5h487c2.8,0,5,2.2,5,5V337z"/>
<rect x="211.4" y="28" class="st2" width="499" height="2"/>
<circle class="st2" cx="228.4" cy="15" r="6"/>
<circle class="st2" cx="245.6" cy="15" r="6"/>
<circle class="st2" cx="262.9" cy="15" r="6"/>
<path class="st3" d="M502.9,74.5h-84c-3.9,0-7-3.1-7-7s3.1-7,7-7h84c3.9,0,7,3.1,7,7S506.7,74.5,502.9,74.5z"/>
<path class="st3" d="M560.4,108.5h-199c-3.9,0-7-3.1-7-7s3.1-7,7-7h199c3.9,0,7,3.1,7,7S564.2,108.5,560.4,108.5z"/>
<path class="st2" d="M620,317.5c-21.1,0-38.1-17.1-38.1-38.1c0-21.1,17.1-38.1,38.1-38.1c21.1,0,38.1,17.1,38.1,38.1
	C658.1,300.4,641.1,317.4,620,317.5z M620,243.8c-19.6,0-35.5,15.9-35.5,35.5s15.9,35.5,35.5,35.5s35.5-15.9,35.5-35.5
	C655.5,259.7,639.6,243.8,620,243.8z"/>
<path class="st2" d="M300.3,215.3c-21.1,0-38.1-17.1-38.1-38.1s17.1-38.1,38.1-38.1s38.1,17.1,38.1,38.1v0
	C338.4,198.2,321.4,215.3,300.3,215.3z M300.3,141.7c-19.6,0-35.5,15.9-35.5,35.5s15.9,35.5,35.5,35.5s35.5-15.9,35.5-35.5
	C335.8,157.6,319.9,141.7,300.3,141.7z"/>
<path class="st4" d="M315.1,197.4c-2.1,0-3.8-1.7-3.8-3.8v-21.4c0-2.1,1.7-3.8,3.8-3.8h0c2.1,0,3.8,1.7,3.8,3.8v21.4
	C318.9,195.7,317.2,197.4,315.1,197.4z M305.3,197.4c-2.1,0-3.8-1.7-3.8-3.7c0,0,0,0,0,0v-11.5c0-2.1,1.7-3.8,3.8-3.8h0.1
	c2.1,0,3.8,1.7,3.8,3.8v11.5C309,195.7,307.4,197.4,305.3,197.4z M295.4,197.4c-2.1,0-3.8-1.7-3.8-3.8v-32.9c0-2.1,1.7-3.8,3.8-3.8
	h0c2.1,0,3.8,1.7,3.8,3.8v32.9C299.1,195.7,297.4,197.4,295.4,197.4z M285.5,197.4c-2.1,0-3.8-1.7-3.8-3.8c0,0,0,0,0,0l0-4.9
	c0-2.1,1.7-3.8,3.8-3.8c2.1,0,3.8,1.7,3.8,3.8v4.9C289.2,195.7,287.6,197.4,285.5,197.4z"/>
<path class="st2" d="M878.8,599.3c-21.1,0-38.1-17.1-38.1-38.1c0-21.1,17.1-38.1,38.1-38.1c21.1,0,38.1,17.1,38.1,38.1
	C917,582.2,899.9,599.3,878.8,599.3z M878.8,525.7c-19.6,0-35.5,15.9-35.5,35.5s15.9,35.5,35.5,35.5c19.6,0,35.5-15.9,35.5-35.5v0
	C914.3,541.6,898.4,525.7,878.8,525.7z"/>
<path class="st4" d="M889.4,554.6l-7.4,11.4c0.6,0.7,0.9,1.6,0.9,2.6c0,2.3-1.8,4.1-4.1,4.1c-2.3,0-4.1-1.8-4.1-4.1
	c0-0.3,0-0.5,0.1-0.8l-4.9-2.9c-1.3,1.3-3.3,1.5-4.9,0.6l-5.2,4.9v4.9c0,2,1.6,3.6,3.6,3.6h30.9c2,0,3.6-1.6,3.6-3.6v-18.1l-5-3.3
	C891.9,554.6,890.6,554.9,889.4,554.6L889.4,554.6z"/>
<path class="st4" d="M867,557.8c2.3,0,4.1,1.8,4.1,4.1l0,0v0.5l5.1,2.9c0.7-0.6,1.6-0.9,2.6-0.9c0.3,0,0.6,0,0.9,0.1l7.5-11.5
	c-1.3-1.8-0.9-4.4,1-5.7c1.8-1.3,4.4-0.9,5.7,1c0.5,0.7,0.8,1.5,0.8,2.4c0,0.3,0,0.6-0.1,1l3.5,2.4v-6.8c0-2-1.6-3.6-3.6-3.6h-30.9
	c-2,0-3.6,1.6-3.6,3.6v19.5l3.4-3.3c-0.8-2.1,0.3-4.5,2.4-5.2C866,558,866.5,557.9,867,557.8L867,557.8z"/>
<path class="st2" d="M462.4,215.3c-21.1,0-38.1-17.1-38.1-38.1c0-21.1,17.1-38.1,38.1-38.1s38.1,17.1,38.1,38.1c0,0,0,0,0,0
	C500.5,198.2,483.4,215.3,462.4,215.3z M462.4,141.7c-19.6,0-35.5,15.9-35.5,35.5s15.9,35.5,35.5,35.5s35.5-15.9,35.5-35.5v0
	C497.9,157.6,482,141.7,462.4,141.7z"/>
<path class="st4" d="M442.1,191c-1.5,0-2.8-1.2-2.8-2.8c0-0.7,0.3-1.4,0.8-2l14.1-14.1c0.4-0.4,1-0.7,1.7-0.7h0
	c0.6,0,1.2,0.2,1.7,0.7l6.5,6.5c0.3,0.3,0.6,0.4,1,0.4h0c0.4,0,0.7-0.1,1-0.4l9.2-9.2c0.2-0.2,0.2-0.5,0-0.7c0,0,0,0,0,0l-3-3
	c-0.6-0.6-0.6-1.5,0-2c0.3-0.3,0.6-0.4,1-0.4H484c0.8,0,1.4,0.6,1.4,1.4v10.6c0,0.8-0.6,1.4-1.4,1.4c-0.4,0-0.7-0.1-1-0.4l-3-3
	c-0.2-0.2-0.5-0.2-0.7,0c0,0,0,0,0,0l-12.5,12.5c-0.4,0.4-1,0.7-1.7,0.7h0c-0.6,0-1.2-0.2-1.7-0.7l-6.5-6.5c-0.6-0.5-1.4-0.5-2,0
	l-10.9,10.9C443.5,190.7,442.8,191,442.1,191z"/>
<path class="st5" d="M462.4,315.3c-21.1,0-38.1-17.1-38.1-38.1c0-21.1,17.1-38.1,38.1-38.1s38.1,17.1,38.1,38.1c0,0,0,0,0,0
	C500.5,298.2,483.4,315.3,462.4,315.3z"/>
<path class="st5" d="M620.4,212.3c-21.1,0-38.1-17.1-38.1-38.1c0-21.1,17.1-38.1,38.1-38.1s38.1,17.1,38.1,38.1c0,0,0,0,0,0
	C658.5,195.2,641.4,212.3,620.4,212.3z"/>
<path class="st5" d="M300.3,239c-6.5,0-13,1.7-18.7,4.9c19.5,1.7,34,19,32.3,38.5c-1.3,14.6-11.4,26.9-25.5,31
	c1.5,0.5,3,0.9,4.5,1.2c2.4,0.5,4.9,0.7,7.3,0.7c21.1,0,38.1-17.1,38.1-38.1C338.4,256.1,321.4,239,300.3,239L300.3,239z"/>
<path class="st2" d="M285.8,241.9c-2.4-0.5-4.9-0.7-7.3-0.7c-21.1,0-38.2,17.1-38.2,38.1s17.1,38.2,38.1,38.2s38.2-17.1,38.2-38.1
	C316.6,261.1,303.7,245.4,285.8,241.9z M288.4,313.4c-18.8,5.5-38.5-5.3-44-24.2c-5.5-18.8,5.3-38.5,24.2-44
	c3.2-0.9,6.6-1.4,9.9-1.4c1.1,0,2.1,0,3.1,0.1c19.5,1.7,34,19,32.3,38.5C312.6,297,302.5,309.3,288.4,313.4z"/>
<path class="st4" d="M300.7,272.6c-2.6-11.5-14.1-18.7-25.6-16.1c-0.5,0.1-1.1,0.3-1.6,0.4l5.1,22.4l22.4-5.1
	C300.9,273.7,300.8,273.1,300.7,272.6z"/>
<path class="st4" d="M298.5,278.2l-22.4,5.1l-5.1-22.4c-11.3,3.5-17.6,15.5-14.1,26.7c3.5,11.3,15.5,17.6,26.7,14.1
	C293.7,298.6,300,288.6,298.5,278.2L298.5,278.2z"/>
<path class="st2" d="M692.2,457.5c-21.1,0-38.1-17.1-38.1-38.1c0-21.1,17.1-38.1,38.1-38.1c21.1,0,38.1,17.1,38.1,38.1
	C730.4,440.4,713.3,457.4,692.2,457.5z M692.2,383.8c-19.6,0-35.5,15.9-35.5,35.5s15.9,35.5,35.5,35.5s35.5-15.9,35.5-35.5
	C727.7,399.7,711.8,383.8,692.2,383.8z"/>
<path class="st4" d="M708.7,434.6c-3.9,0-7.1-3.2-7.1-7.1c0-3.9,3.2-7.1,7.1-7.1c3.9,0,7.1,3.2,7.1,7.1
	C715.7,431.4,712.6,434.6,708.7,434.6z M692.2,434.6c-3.9,0-7-3.2-7.1-7.1v-16.5c0-3.9,3.2-7,7.1-7c3.9,0,7,3.2,7,7v16.5
	C699.3,431.4,696.1,434.6,692.2,434.6z M675.8,434.6c-3.9,0-7.1-3.2-7.1-7.1V421c0-3.9,3.2-7.1,7.1-7.1c3.9,0,7.1,3.2,7.1,7.1v6.6
	C682.8,431.4,679.7,434.6,675.8,434.6z"/>
<polygon class="st6" points="208.6,590.4 220.3,589.1 220.7,543.6 203.5,545.6 "/>
<path class="st7" d="M243.9,597.3l-36.5,4.1l0,0l-1.6-14.1l0,0l22.4-2.5C236,583.9,243,589.6,243.9,597.3L243.9,597.3L243.9,597.3z"
	/>
<polygon class="st6" points="89.1,589.7 100.8,589.7 106.3,544.6 89.1,544.6 "/>
<path class="st7" d="M123.3,600.6l-36.8,0l0,0l0-14.2l0,0l22.6,0C117,586.3,123.3,592.7,123.3,600.6L123.3,600.6L123.3,600.6
	L123.3,600.6z"/>
<path class="st7" d="M173,387.9l6.7,21.7l36.3,78.5l9.5,74.4l-21.9,1l-13.4-68.7l-45.8-49.6l-40.1,129.8L86.2,573
	c0,0,15.3-168,36.3-185.1C122.4,387.9,156.8,371.7,173,387.9z"/>
<circle class="st6" cx="143.4" cy="270.7" r="23.4"/>
<path class="st8" d="M175.4,392.2c0,0,2.9-97.3-37.2-90.7s-23.4,100.7-23.4,100.7s8.6,17.2,29.6-1.9S175.4,392.2,175.4,392.2z"/>
<path class="st6" d="M258.4,311.2c-2.8,4.5-8.8,5.8-13.2,3c-0.5-0.3-0.9-0.6-1.3-1l-30,16.2l1.6-17.7l28.3-12.7
	c3.9-3.7,10-3.5,13.6,0.3C260.3,302.5,260.8,307.4,258.4,311.2L258.4,311.2z"/>
<path class="st8" d="M143.2,313.4l48.7,8.2l43.7-20.6l6.6,14.2l-47.8,30.5c0,0-50.6,3.4-62.3-9.9c-4.4-5-4.9-9.6-3.8-13.3
	C130.2,316.1,136.6,312.2,143.2,313.4z"/>
<path class="st9" d="M140.6,295.3c0.4-0.4,0.4-1,0.1-1.4c-0.1-0.1-0.1-0.1-0.2-0.2c-6.4-4-8.4-12.4-4.4-18.8c1.4-2.2,3.4-4,5.7-5.1
	c6.9-3.3,16.2-0.7,21.3-7c2.1-2.7,2.9-6.2,2.2-9.6c-1.1-6-5.6-10.4-10.6-13.4c-18.2-11-42-5.2-53,13.1c-4.4,7.3-6.3,15.8-5.3,24.3
	c0.6,5.7,2.4,12.2-1,16.8c-3,4.1-8.7,4.9-13.7,5.9c-10.7,2.2-21,7.2-28.2,15.4s-11.1,19.6-8.9,30.3s11,20.1,21.7,21.7
	c8.8,1.3,17.8-2.4,24.3-8.5s10.5-14.3,13.1-22.8c3-10.1,4.3-20.9,9.8-29.9c5.4-8.8,17-15.1,26.1-10.5
	C139.9,295.6,140.3,295.6,140.6,295.3z"/>
<path class="st10" d="M819.8,468.8c4.8-2.4,6.7-8.2,4.4-13c-0.3-0.5-0.6-1-0.9-1.5l22.6-125l-21.1-0.3l-15.7,123.6
	c-4.1,3.5-4.6,9.6-1.1,13.7C810.9,469.9,815.8,470.8,819.8,468.8L819.8,468.8z"/>
<polygon class="st10" points="754.4,462.9 746.4,500.9 747.4,585.9 762.4,585.9 769.4,502.9 780.4,467.9 "/>
<polygon class="st10" points="804,465.7 796,503.7 797,588.7 812,588.7 819,505.7 830,470.7 "/>
<path class="st7" d="M742.2,584.9l23.6-0.1l0,0l0,14.9l0,0l-38.5,0.1l0,0l0,0C727.3,591.6,733.9,584.9,742.2,584.9z"/>
<path class="st7" d="M792.1,586.5l23.6-0.1l0,0l0,14.9l0,0l-38.5,0.1l0,0l0,0C777.2,593.2,783.9,586.6,792.1,586.5z"/>
<circle class="st10" cx="790.9" cy="252" r="24.6"/>
<path class="st11" d="M845.2,312.7c-7.5-11.7-30.9-39.5-65.8-23.6c-5.6,2.6-9.1,8.4-8.6,14.6c1.7,22.3,3.8,79.1-14.4,113.1
	c0,0,53,16,82,1c0,0-10-67,0-80c3.3-4.2,6-8.8,8-13.7C847.8,320.4,847.4,316.1,845.2,312.7z"/>
<path class="st11" d="M835.4,311.9l9.8,4.1c1.3,0.6,2.2,1.8,2.3,3.3l0.9,21.6l-22-2L835.4,311.9z"/>
<path class="st7" d="M760.4,414.9c0,0-22,41-18,79l31,5l22-53l-5,54l32,1c0,0,21-78,14-85L760.4,414.9z"/>
<path class="st10" d="M729.2,418.6c5.3-0.8,8.9-5.8,8.1-11c-0.1-0.6-0.2-1.1-0.4-1.7l44.6-84.1l-20-6.7l-37.6,84.9
	c-5,2.1-7.3,7.8-5.3,12.7C720.4,416.8,724.7,419.3,729.2,418.6L729.2,418.6z"/>
<path class="st11" d="M787.6,298.9l-8.3-3.7c0,0-7-4.3-13.2,5.2S753.2,331,753.2,331l27,7.6L787.6,298.9z"/>
<path class="st9" d="M794.8,263.8c0.9-3.1,0.6-7.2-2.3-8.4c-1.5-0.6-3.3-0.1-4.9,0c-3.2,0.3-6.5-0.6-9.1-2.5c-3.1-2.3-5-5.8-6.8-9.1
	l-2.7-5.1c-0.6-1.1-1.1-2.2-1.5-3.3c-1.5-4.5,0.1-9.7,3.5-13.1c3.5-3.3,8.2-5.1,13-5.1c4.8,0,9.5,1,13.9,3
	c7.8,3.2,14.8,7.9,20.7,13.9c3.8,3.9,7.3,9,6.5,14.5c-0.6,4.2-3.7,7.6-6.6,10.7l-10.6,11.2c-1.9,2-3.9,4.1-6.5,4.8s-6-0.4-6.7-3
	C794.4,272.3,794,266.9,794.8,263.8z"/>
<path class="st2" d="M942,601.7H1c-0.6,0-1-0.4-1-1s0.4-1,1-1h941c0.6,0,1,0.4,1,1S942.6,601.7,942,601.7z"/>
<path class="st4" d="M634,295.3h-28c-1.7,0-3-1.3-3-3s1.3-3,3-3h28c1.7,0,3,1.3,3,3S635.7,295.3,634,295.3z"/>
<path class="st4" d="M634,282.3h-28c-1.7,0-3-1.3-3-3s1.3-3,3-3h28c1.7,0,3,1.3,3,3S635.7,282.3,634,282.3z"/>
<path class="st4" d="M634,269.3h-28c-1.7,0-3-1.3-3-3s1.3-3,3-3h28c1.7,0,3,1.3,3,3S635.7,269.3,634,269.3z"/>
</svg>
