<?xml version="1.0" encoding="utf-8"?>
<!-- Generator: Adobe Illustrator 25.2.0, SVG Export Plug-In . SVG Version: 6.00 Build 0)  -->
<svg version="1.1" id="a2e620a1-ac76-48f9-b1a7-7c9a2eef61f8"
	 xmlns="http://www.w3.org/2000/svg" xmlns:xlink="http://www.w3.org/1999/xlink" x="0px" y="0px" viewBox="0 0 336.9 416.2"
	 style="enable-background:new 0 0 336.9 416.2;" xml:space="preserve">
<style type="text/css">
	.st0{fill:#6C63FF;}
	.st1{fill:#A0616A;}
	.st2{fill:#2A4251;}
	.st3{opacity:0.1;enable-background:new    ;}
	.st4{fill:#2F2E41;}
	.st5{fill:#FFFFFF;}
	.st6{fill:#E6E6E6;}
	.st7{fill:#5BD3BC;}
</style>
<circle id="fb392c0f-c18b-4dca-9f8d-a13ba02e8cd8" class="st0" cx="179.6" cy="91.2" r="6.4"/>
<ellipse id="b9fa2d1d-eaff-4f39-9574-6fdb852a47dd" transform="matrix(0.3827 -0.9239 0.9239 0.3827 -44.7104 311.7465)" class="st1" cx="210.9" cy="189.3" rx="33.8" ry="33.8"/>
<path id="a3ede095-a03b-477f-a348-b0bb518c525f" class="st2" d="M133.3,415.1l21.8-137.2c4.5-28.4,31.2-47.7,59.6-43.2
	c2.2,0.3,4.3,0.8,6.4,1.4l0,0c25.7,7.4,41.5,33.2,36.6,59.5l-22.8,122.6L133.3,415.1z"/>
<path id="a14f3686-8e71-4892-a260-94847064fbe5" class="st1" d="M151.1,408.7c7.6-1.1,12.8-8.1,11.7-15.6c-0.1-0.8-0.3-1.6-0.6-2.4
	l39-29.8l-24.1-8.4l-33.4,29.6c-7.1,2.9-10.5,11-7.6,18.1C138.6,406.1,144.8,409.6,151.1,408.7L151.1,408.7z"/>
<path id="aefe090c-eadc-4acf-b060-d0ae14889076" class="st2" d="M167.7,384.8c-1.1-0.7-1.9-1.7-2.3-2.9L161,371
	c-1-2.4-0.3-5.2,1.6-6.9l33-29.5l32.3-74c6-9.2,18.3-11.8,27.6-5.8c9.2,6,11.8,18.3,5.8,27.6c0,0,0,0,0,0l0,0L243.5,330
	c-5.4,14.5-15.9,26.5-29.6,33.8l-39.8,21.3c-1.5,0.8-3.4,1-5,0.4C168.6,385.3,168.1,385.1,167.7,384.8z"/>
<path id="b24d83c7-6fd4-4d89-b0e2-e143511102b2" class="st1" d="M16.5,170.9c1.4,7.5,8.6,12.5,16.1,11.1c0.8-0.1,1.6-0.4,2.3-0.7
	l31.4,37.8l7.4-24.4l-31-32.1c-3.2-7-11.4-10.1-18.4-6.9C18.6,158.4,15.3,164.7,16.5,170.9L16.5,170.9z"/>
<path id="a479cb15-9c48-424e-90d4-4868fd6ffd90" class="st2" d="M41.1,186.6c0.6-1.1,1.6-1.9,2.8-2.5l10.7-4.8
	c2.4-1.1,5.2-0.5,7,1.3l30.9,31.8l75.3,29.2c9.5,5.6,12.6,17.8,7,27.3c-5.6,9.5-17.8,12.6-27.3,7c0,0,0,0,0,0l0,0L99,260
	c-14.7-4.8-27.1-14.8-34.9-28.1l-23-38.9c-0.9-1.5-1.1-3.3-0.6-5C40.7,187.4,40.9,187,41.1,186.6L41.1,186.6z"/>
<path id="fbb91ec3-afe3-4815-be57-4aca5997223d" class="st3" d="M224.4,296l-20.1,39.2l-41.7,28.9l40.1-35.3L224.4,296z"/>
<path id="b3c0f84b-28f9-45ec-afed-9c3bdf0aec76" class="st4" d="M188.1,172.4c3.5,4.1,9.4,5.3,14.8,5.8c11,1,27.1-0.6,37.9-3.1
	c0.8,7.5-1.3,15.5,3.1,21.6c2.1-7.4,3.3-15.1,3.6-22.8c0.1-3.3,0.1-6.7-1.3-9.8s-4.3-5.6-7.6-5.6c2.5-1.9,5.4-3.2,8.5-3.7l-10.7-5.4
	l2.7-2.8l-19.3-1.2l5.6-3.6c-8.4-1.2-17-1.4-25.4-0.8c-3.9,0.3-8.1,0.8-11.3,3.1s-5,6.8-3.1,10.2c-5,0.8-9.3,4.2-11.3,8.9
	c-1.4,3.6-1.3,7.6-0.9,11.5c0.7,6.1,2.2,12.2,4.3,18"/>
<path id="a138b9cb-cdfc-4f68-9e32-04b91bb430b4" class="st5" d="M332.4,87.8l-307.6,71c-3.1,0.7-6.3-1.2-7-4.4L0.1,78.2
	c-0.7-3.1,1.2-6.3,4.4-7l307.6-71c3.1-0.7,6.3,1.2,7,4.4l17.6,76.3C337.5,84,335.5,87.1,332.4,87.8z"/>
<path id="ae469d8c-20b4-445b-a76f-3c35ff3d2f47" class="st6" d="M332.4,87.8l-307.6,71c-3.1,0.7-6.3-1.2-7-4.4L0.1,78.2
	c-0.7-3.1,1.2-6.3,4.4-7l307.6-71c3.1-0.7,6.3,1.2,7,4.4l17.6,76.3C337.5,84,335.5,87.1,332.4,87.8z M5.1,73.4
	c-1.9,0.4-3.1,2.3-2.6,4.2L20,154c0.4,1.9,2.3,3.1,4.2,2.6l307.6-71c1.9-0.4,3.1-2.3,2.6-4.2L316.9,5.1c-0.4-1.9-2.3-3.1-4.2-2.6
	L5.1,73.4z"/>
<path id="b1e356c5-36d3-4e1f-8361-52645d018384" class="st6" d="M111.8,73.2c-2.1,0.5-3.5,2.6-3,4.8c0.5,2.1,2.6,3.5,4.8,3
	c0,0,0,0,0,0l0,0l182.3-42.1c2.1-0.5,3.5-2.6,3-4.8c-0.5-2.1-2.6-3.5-4.8-3L111.8,73.2z"/>
<path id="f47b3ab2-4a63-40b6-b578-ee0e1882dc1b" class="st6" d="M117.1,96.4c-2.1,0.5-3.5,2.6-3,4.8c0.5,2.1,2.6,3.5,4.8,3
	c0,0,0,0,0,0l0,0L197.4,86c2.1-0.5,3.5-2.6,3-4.8c-0.5-2.1-2.6-3.5-4.8-3l0,0L117.1,96.4z"/>
<g id="ebccd953-b296-4a3a-b6cb-ab9b47d83c6a">
	<g>
		<circle id="f502afc0-c552-46f8-b839-9472032a2f9d_8_" class="st7" cx="62" cy="100.8" r="23.8"/>
		<path id="e70683fc-6315-4eed-926a-207d48de8bbe_8_" class="st5" d="M61.3,114.6c-0.8,0.2-1.6,0.1-2.3-0.2l0,0l-9.6-4.4
			c-1.9-0.8-2.7-3.1-1.8-4.9c0.8-1.9,3.1-2.7,4.9-1.8l6.2,2.8l8.7-19.1c0.8-1.9,3.1-2.7,4.9-1.8l0,0l-0.1,0.1l0.1-0.1
			c1.9,0.9,2.7,3.1,1.8,4.9l-10.2,22.5C63.4,113.5,62.4,114.3,61.3,114.6L61.3,114.6z"/>
	</g>
</g>
</svg>
