<?xml version="1.0" encoding="utf-8"?>
<!-- Generator: Adobe Illustrator 24.3.0, SVG Export Plug-In . SVG Version: 6.00 Build 0)  -->
<svg version="1.1" id="af68f4ca-3b92-43b5-826f-d4785abba14f"
	 xmlns="http://www.w3.org/2000/svg" xmlns:xlink="http://www.w3.org/1999/xlink" x="0px" y="0px" viewBox="0 0 657.1 782.1"
	 style="enable-background:new 0 0 657.1 782.1;" xml:space="preserve">
<style type="text/css">
	.st0{fill:#FBBEBE;}
	.st1{fill:#2D363F;}
	.st2{fill:#E6E6E6;}
	.st3{fill:#2F2E41;}
	.st4{fill:#0BE0B7;}
	.st5{fill:#49E8CD;}
	.st6{fill:#DFF7F2;}
	.st7{fill:#FFFFFF;}
</style>
<rect x="489.8" y="734.9" class="st0" width="14" height="30"/>
<rect x="598.8" y="735.9" class="st0" width="14" height="30"/>
<path class="st1" d="M614.3,750.4l-17-2l-44-203l-48,204l-17-2c-2.8-92.3,5.4-184.7,12.5-261.5l101.5-8.5
	C621.5,553.1,622.2,647.3,614.3,750.4z"/>
<path class="st0" d="M603.8,489.4c0,0-23.6,24.7-10.3,30.8s21.6-27.8,21.6-27.8L603.8,489.4z"/>
<path class="st0" d="M482.8,491.4c0,0-23.6,24.7-10.3,30.8s21.6-27.8,21.6-27.8L482.8,491.4z"/>
<circle class="st0" cx="554.8" cy="284.9" r="28"/>
<path class="st0" d="M587.3,343.4l-50,5c4.6-20.8,5.7-40.2,0-57h35C570.4,305.3,577.5,323.7,587.3,343.4z"/>
<path class="st2" d="M601.3,488.4c-18.7,22.5-57.9,15-103-1c12.8-41.7,10.8-85.8-0.7-131.3c-1.3-5,1.2-10.3,6-12.4l36.7-16.3l14,3
	l24-6l34.1,7c5.7,1.2,9.7,6.3,9.4,12.2C619,399.4,613.9,451.1,601.3,488.4z"/>
<path class="st2" d="M611.3,506.4l-9-15l17-64l-9-96l0,0c11.9,1.2,21.7,10,24.2,21.7l13.7,64.4c2.1,9.7,0.8,19.8-3.5,28.7
	L611.3,506.4z"/>
<path class="st2" d="M494.3,495.4l-20.5,3.5l13.1-128c0.3-13.1,8.3-24.7,20.4-29.5l0,0l6.5,84.5L494.3,495.4z"/>
<path class="st1" d="M498.5,775.4l-37.7,6.6c-1.7,0.3-3.5,0.1-5-0.7l0,0c-4.2-2-6-7-4-11.2c0.5-1,1.1-1.9,1.9-2.6l16.2-15l4.2-7.4
	c2.4-4.3,6.8-7.2,11.7-7.6c7.2-0.5,9.6,5,8.1,15.3c5.5,4,6.3,3.4,10-2l1.7,17C505.1,771.6,502.3,774.7,498.5,775.4z"/>
<path class="st1" d="M607.5,775.4l-37.7,6.6c-1.7,0.3-3.5,0.1-5-0.7l0,0c-4.2-2-6-7-4-11.2c0.5-1,1.1-1.9,1.9-2.6l16.2-15l4.2-7.4
	c2.4-4.3,6.8-7.2,11.7-7.6c7.2-0.5,9.6,5,8.1,15.3c5.5,4,6.3,3.4,10-2l1.7,17C614.1,771.6,611.3,774.7,607.5,775.4z"/>
<path class="st3" d="M532.6,268.9c12.6-7.2,25.3-2.6,37.9,17.1l2.6,21c19-18,18-42.6-3.3-52.6c-2.1-1-4.1-2.1-6.4-1.7
	c-9.4-5-21-1.9-26.6,7.1c-3.9,0.7-9.6,8.5-9.4,12.5L532.6,268.9z"/>
<ellipse class="st0" cx="569.3" cy="286.4" rx="3.5" ry="4.5"/>
<path class="st4" d="M151.4,500h58.3l0,0l0,0c0,12.7-10.3,23-23,23l0,0h-12.3C161.7,523,151.4,512.7,151.4,500L151.4,500L151.4,500
	L151.4,500z"/>
<path class="st5" d="M223.3,448.5v-21.4c0-25.8,28.1-50.3,46.3-67.7c25.7-24.6,39.2-57.5,39.2-96.2c0-70.8-57.4-128.2-128.2-128.2
	C110,135,52.7,192,52.3,262.6c0,0.2,0,0.5,0,0.7c0,37.3,14.1,72.5,39.2,96.2c18.1,17.1,46.3,41.6,46.3,67.7v21.4"/>
<path class="st4" d="M223.3,451.5c-1.7,0-3-1.3-3-3c0,0,0,0,0,0v-21.4c0-25.1,24.8-48.6,42.9-65.7c1.5-1.4,3-2.8,4.4-4.1
	c25-23.9,38.3-56.4,38.3-94c0-70.2-55-125.2-125.2-125.2c-0.1,0-0.2,0-0.4,0c-68.8,0.1-124.6,55.7-124.9,124.5v0.7
	c0,36.8,13.9,71.1,38.2,94c1.2,1.2,2.5,2.4,3.8,3.6c18.3,17.2,43.4,40.7,43.4,66.3v21.4c0,1.7-1.3,3-3,3s-3-1.3-3-3l0,0v-21.4
	c0-23-24-45.5-41.5-61.9c-1.3-1.2-2.6-2.4-3.8-3.6c-25.5-24.1-40.1-59.9-40.1-98.4v-0.7c0.2-72,58.9-130.5,130.9-130.5
	c0.1,0,0.2,0,0.4,0c72.1-0.4,130.9,57.8,131.2,129.9c0,0.5,0,0.9,0,1.4c0,39.3-13.9,73.3-40.1,98.4c-1.4,1.3-2.9,2.7-4.4,4.2
	c-17.3,16.4-41,38.8-41,61.3v21.4C226.3,450.2,224.9,451.5,223.3,451.5C223.3,451.5,223.3,451.5,223.3,451.5z"/>
<path class="st5" d="M209,490h-57c-2.8,0-5-2.2-5-5s2.2-5,5-5h57c2.8,0,5,2.2,5,5S211.8,490,209,490z"/>
<path class="st6" d="M47.9,145.4c-1.2,0-2.4-0.4-3.3-1.2L1.7,106.7c-2.1-1.8-2.3-5-0.5-7.1c1.8-2.1,5-2.3,7.1-0.5c0,0,0,0,0,0
	l42.9,37.5c2.1,1.8,2.3,5,0.5,7.1C50.8,144.8,49.4,145.4,47.9,145.4L47.9,145.4z"/>
<path class="st6" d="M306,145.4c-2.8,0-5-2.2-5-5c0-1.4,0.6-2.8,1.7-3.8l42.9-37.5c2.1-1.8,5.2-1.6,7.1,0.5c1.8,2.1,1.6,5.2-0.5,7.1
	l-42.9,37.5C308.4,145,307.2,145.4,306,145.4z"/>
<path class="st5" d="M223.3,472.3h-85.5c-2.8,0-5-2.2-5-5s2.2-5,5-5h85.5c2.8,0,5,2.2,5,5S226,472.3,223.3,472.3z"/>
<path class="st7" d="M180.5,453.5c-2.8,0-5-2.2-5-5c0,0,0,0,0,0v-114c0-2.8,2.2-5,5-5s5,2.2,5,5v114
	C185.5,451.3,183.3,453.5,180.5,453.5C180.5,453.5,180.5,453.5,180.5,453.5z"/>
<path class="st7" d="M180.5,339.5c-16.2,0-36-14.6-36.8-15.2c-2.2-1.6-2.7-4.8-1-7s4.8-2.7,7-1l0,0c5,3.7,20.2,13.3,30.9,13.3
	s25.9-9.6,30.9-13.3c2.2-1.6,5.3-1.2,7,1s1.2,5.3-1,7C216.5,324.9,196.7,339.5,180.5,339.5z"/>
<path class="st6" d="M180.5,95.5c-2.8,0-5-2.2-5-5V5c0-2.8,2.2-5,5-5s5,2.2,5,5v85.5C185.5,93.3,183.3,95.5,180.5,95.5z"/>
</svg>
