<?xml version="1.0" encoding="utf-8"?>
<!-- Generator: Adobe Illustrator 25.2.0, SVG Export Plug-In . SVG Version: 6.00 Build 0)  -->
<svg version="1.1" id="f2e283ea-0459-447a-9b0b-c99a7bb735de"
	 xmlns="http://www.w3.org/2000/svg" xmlns:xlink="http://www.w3.org/1999/xlink" x="0px" y="0px" viewBox="0 0 924 590.6"
	 style="enable-background:new 0 0 924 590.6;" xml:space="preserve">
<style type="text/css">
	.st0{fill:#F0F0F0;}
	.st1{fill:#FFFFFF;}
	.st2{fill:#E5E5E5;}
	.st3{fill:#E6E6E6;}
	.st4{fill:#F2F2F2;}
	.st5{fill:#2A4251;}
	.st6{fill:#3F3D56;}
	.st7{fill:#FFB6B6;}
	.st8{fill:#1D3144;}
	.st9{fill:#2F2E41;}
	.st10{fill:#5BD3BC;}
	.st11{fill:#CACACA;}
	.st12{fill:#419383;}
	.st13{fill:#FFB8B8;}
	.st14{fill:#FF6584;}
</style>
<path id="e7a552b9-89f6-403f-a662-c184ed590622" class="st0" d="M877.6,535.8c-0.5,17.8-3.5,35.5-8.9,52.4c-0.1,0.4-0.3,0.8-0.4,1.2
	h-33.1c0-0.4,0.1-0.7,0.1-1.2c2.2-25.3-10.4-177.8-25.6-204.1C811.2,386.3,880.2,455.3,877.6,535.8z"/>
<path id="b08f6207-3c71-42fa-8723-265175c281aa" class="st0" d="M875.1,588.3c-0.3,0.4-0.6,0.8-0.9,1.2h-24.8
	c0.2-0.3,0.4-0.7,0.7-1.2c4.1-7.4,16.2-29.5,27.5-52.4c12.1-24.6,23.2-50.2,22.3-59.5C900.2,478.5,908.5,542.1,875.1,588.3z"/>
<path class="st1" d="M761.2,480.5H137V0h624.2V480.5z"/>
<path class="st2" d="M761.2,480.5H137V0h624.2V480.5z M146.2,471.3h605.7V9.2H146.2L146.2,471.3z"/>
<path class="st3" d="M300.4,362.2h-47.3c-2.7,0-4.8-2.2-4.8-4.8v-65.1c0-2.7,2.2-4.8,4.8-4.8h47.3c2.7,0,4.8,2.2,4.8,4.8v65.1
	C305.2,360,303,362.2,300.4,362.2z"/>
<path class="st3" d="M386.5,362.2h-47.3c-2.7,0-4.8-2.2-4.8-4.8V230.4c0-2.7,2.2-4.8,4.8-4.8h47.3c2.7,0,4.8,2.2,4.8,4.8v126.9
	C391.4,360,389.2,362.2,386.5,362.2z"/>
<path class="st3" d="M472.7,362.2h-47.3c-2.7,0-4.8-2.2-4.8-4.8v-65.1c0-2.7,2.2-4.8,4.8-4.8h47.3c2.7,0,4.8,2.2,4.8,4.8v65.1
	C477.5,360,475.4,362.2,472.7,362.2z"/>
<path class="st3" d="M558.9,362.2h-47.3c-2.6,0.1-4.8-2-4.8-4.6V205.8c0.1-2.6,2.2-4.7,4.8-4.6h47.3c2.6-0.1,4.8,2,4.8,4.6v151.8
	C563.7,360.2,561.5,362.3,558.9,362.2z"/>
<path class="st4" d="M645.1,362.2h-47.3c-2.7,0-4.8-2.2-4.8-4.8V162.1c0-2.7,2.2-4.8,4.8-4.8h47.3c2.7,0,4.8,2.2,4.8,4.8v195.2
	C649.9,360,647.7,362.2,645.1,362.2z"/>
<circle class="st5" cx="276.7" cy="258.1" r="9.8"/>
<circle class="st5" cx="362.9" cy="194.7" r="9.8"/>
<circle class="st5" cx="449.1" cy="258.1" r="9.8"/>
<circle class="st5" cx="535.3" cy="163.8" r="9.8"/>
<circle class="st5" cx="621.4" cy="128" r="9.8"/>
<polygon class="st6" points="449.3,260.3 362.9,195.6 277.7,259.4 275.8,256.8 362.9,191.5 448.9,255.9 534.3,162.5 534.7,162.3 
	620.8,127.6 622.1,130.6 536.2,165.2 "/>
<polygon class="st7" points="742,574.7 727.3,574.7 720.3,518.1 742,518.1 "/>
<path class="st8" d="M745.7,588.9l-47.3,0v-0.6c0-10.2,8.2-18.4,18.4-18.4h0l28.9,0L745.7,588.9z"/>
<path class="st8" d="M689.5,335.1l8.3,132.8l28,93.5l21.7,1.6L736.6,449l4.8-75.6c0,0,22.6-16.9,10.1-37.2L689.5,335.1z"/>
<polygon class="st7" points="751.6,574.7 736.9,574.7 729.9,518.1 751.6,518.1 "/>
<path class="st8" d="M755.3,588.9l-47.3,0v-0.6c0-10.2,8.2-18.4,18.4-18.4h0l28.9,0L755.3,588.9z"/>
<path class="st8" d="M699.1,335.1l8.3,132.8l28,93.5l21.7,1.6L746.2,449l4.8-75.6c0,0,22.6-16.9,10.1-37.2L699.1,335.1z"/>
<path class="st5" d="M744.3,355.6c-25,0-54.4-15.3-56.1-16.2l-0.5-0.2l57.4-146.4l28.4-13.4c6.8-3.2,14.9-0.3,18.1,6.5
	c1.1,2.3,1.5,4.8,1.2,7.3l-11.3,101.2l-11.8,52.4l-0.1,0.1C763.1,353.3,754,355.6,744.3,355.6z"/>
<path class="st7" d="M652.6,258.7c5.6-3.6,13.1-1.9,16.6,3.7c0.4,0.6,0.7,1.2,1,1.9l42.7-2.3l-11.2,19.2l-38.9-0.7
	c-6.3,2.1-13.2-1.3-15.3-7.6C645.8,267.5,647.9,261.7,652.6,258.7L652.6,258.7z"/>
<path class="st5" d="M736.9,288.8l-42.8-1.1l0.6-28.3l20.2-6.4l33.2-46.6c6.9-9.6,20.2-11.9,29.9-5c9.6,6.9,11.9,20.2,5,29.9
	c-0.2,0.3-0.5,0.6-0.7,1L736.9,288.8z"/>
<circle class="st7" cx="761.7" cy="145.6" r="28.4"/>
<path class="st9" d="M725.7,121.9c2.9-2.9,6.6-4.9,10.7-5.6c4-0.9,8.3-1.1,11.4-3.6c3.6-2.9,5.2-8.3,9.6-9.5
	c1.9-0.4,3.9-0.2,5.7,0.5c7,2.1,13.3,6.3,18,12c1.1,1.6,2.5,3,4.1,4.1c1,0.4,1.9,0.9,2.8,1.4c1,0.8,1.8,1.8,2.3,3
	c3.2,6.4,3.9,13.8,2.1,20.7c-1.1,4.1-3.1,7.9-4.3,12c-1.2,4.1-6.6,11.9-7.9,10c-1.3-1.9-2.9-3.7-3.6-6c-1.4-4.4-0.1-8.8-3.6-11.9
	c-2.1-1.9-6-3.2-7.4-0.7c-0.6,0.9-0.5,2.1-1,3.1c-1,1.9-3.8,2.3-5.6,1.2c-1.8-1.2-3-3.1-3.5-5.2c-2.8-9.4-7.5-15.4-17.6-11.3
	c-3.8,1.5-8.2,2.5-11.8-0.1C721.3,132.5,722.3,125.7,725.7,121.9z"/>
<path class="st10" d="M661.8,377.8h-47.3c-2.7,0-4.8-2.2-4.8-4.8V177.7c0-2.7,2.2-4.8,4.8-4.8h47.3c2.7,0,4.8,2.2,4.8,4.8v195.2
	C666.7,375.6,664.5,377.8,661.8,377.8z"/>
<path class="st7" d="M651.4,275.5c5.6-3.6,13.1-1.9,16.6,3.7c0.4,0.6,0.7,1.2,1,1.9l42.7-2.3L700.5,298l-38.9-0.7
	c-6.3,2.1-13.2-1.3-15.3-7.6C644.6,284.3,646.7,278.5,651.4,275.5L651.4,275.5z"/>
<path class="st5" d="M735.7,305.6l-42.8-1.1l0.6-28.3l20.2-6.4l33.2-46.6c6.9-9.6,20.2-11.9,29.9-5c9.6,6.9,11.9,20.2,5,29.9
	c-0.2,0.3-0.5,0.6-0.7,1L735.7,305.6z"/>
<path class="st11" d="M922.8,590.6H466.6c-0.7,0-1.2-0.5-1.2-1.2c0-0.7,0.5-1.2,1.2-1.2c0,0,0,0,0,0h456.2c0.7,0,1.2,0.5,1.2,1.2
	C924,590.1,923.4,590.6,922.8,590.6C922.8,590.6,922.8,590.6,922.8,590.6z"/>
<path class="st3" d="M286.1,397.3l-156.8,64.3c-5.6,2.3-12-0.4-14.3-6l-48-117c-1.7-4.1,0.3-8.8,4.4-10.5l162.1-66.5
	c4.2-1.7,9,0.3,10.7,4.5L292.1,383C294.4,388.6,291.7,395,286.1,397.3z"/>
<path class="st1" d="M135,447.4l137.1-56.2c5.4-2.2,8-8.4,5.8-13.9l0,0l-38.8-94.5c-2.2-5.4-8.4-8-13.9-5.8l0,0L88.2,333.3
	c-5.4,2.2-8,8.4-5.8,13.9l0,0l38.8,94.5C123.4,447,129.6,449.6,135,447.4z"/>
<path class="st3" d="M179.2,369.8l-4,1.6l-0.1-0.3l4-1.6L179.2,369.8z M171.1,373.1l-4,1.6l-0.1-0.3l4-1.6L171.1,373.1z
	 M163.1,376.4l-4,1.6l-0.1-0.3l4-1.6L163.1,376.4z M155.1,379.6l-4,1.6l-0.1-0.3l4-1.6L155.1,379.6z M147.1,382.9l-4,1.6l-0.1-0.3
	l4-1.6L147.1,382.9z M139.1,386.2l-4,1.6l-0.1-0.3l4-1.6L139.1,386.2z M131,389.5l-4,1.6l-0.1-0.3l4-1.6L131,389.5z M123,392.8
	l-4,1.6l-0.1-0.3l4-1.6L123,392.8z"/>
<rect x="112.8" y="396.2" transform="matrix(0.9252 -0.3795 0.3795 0.9252 -141.9102 72.892)" class="st3" width="2.2" height="0.4"/>
<rect x="149.8" y="398.3" transform="matrix(0.9252 -0.3795 0.3795 0.9252 -139.9417 87.0806)" class="st3" width="2.2" height="0.4"/>
<path class="st3" d="M145.8,400.7l-4.1,1.7l-0.1-0.3l4.1-1.7L145.8,400.7z M137.6,404.1l-4.1,1.7l-0.1-0.3l4.1-1.7L137.6,404.1z
	 M129.3,407.5l-4.1,1.7l-0.1-0.3l4.1-1.7L129.3,407.5z"/>
<rect x="118.9" y="410.9" transform="matrix(0.9252 -0.3795 0.3795 0.9252 -147.0664 76.2995)" class="st3" width="2.2" height="0.4"/>
<rect x="160.1" y="423.5" transform="matrix(0.9252 -0.3795 0.3795 0.9252 -148.7409 92.8955)" class="st3" width="2.2" height="0.4"/>
<path class="st3" d="M156.2,425.9l-4.1,1.7l-0.1-0.3l4.1-1.7L156.2,425.9z M147.9,429.3l-4.1,1.7l-0.1-0.3l4.1-1.7L147.9,429.3z
	 M139.7,432.7l-4.1,1.7l-0.1-0.3l4.1-1.7L139.7,432.7z"/>
<rect x="129.2" y="436.2" transform="matrix(0.9252 -0.3795 0.3795 0.9252 -155.8656 82.1144)" class="st3" width="2.2" height="0.4"/>
<path class="st10" d="M140.9,432.5L257,384.9c5.9-2.4,8.7-9.1,6.3-15l-23.5-57.2l-0.2,0.1L211.1,381l-21.1-8.8
	c-0.8-0.3-1.7-0.3-2.4,0.2c-0.6,0.3-1,0.8-1.2,1.4l-14.9,35.7l-15.5-6.5c-1.4-0.6-3,0.1-3.6,1.5c0,0,0,0,0,0
	C152.2,404.7,142.6,428.1,140.9,432.5z"/>
<path class="st12" d="M140.5,433.1l-0.3-0.1l12-28.6c0.7-1.6,2.5-2.3,4-1.7l15.2,6.3l14.9-35.5c0.7-1.6,2.5-2.3,4-1.7l20.8,8.7
	l28.7-68.5l0.3,0.1L211.2,381l-21.2-8.9c-1.4-0.6-3,0.1-3.6,1.5c0,0,0,0,0,0l-15,35.9L156,403c-1.4-0.6-3,0.1-3.6,1.5L140.5,433.1z"
	/>
<circle class="st6" cx="151.9" cy="398" r="2.5"/>
<path class="st13" d="M94.6,395.2c5-2.5,7-8.5,4.5-13.5c-0.3-0.5-0.6-1-0.9-1.5l7.5-73.8H89.5l-6,72.1c-4.3,3.6-4.8,10-1.2,14.3
	C85.3,396.2,90.4,397.3,94.6,395.2L94.6,395.2z"/>
<circle class="st13" cx="109.6" cy="242.5" r="23.1"/>
<path class="st14" d="M113.9,349.3c-1.9,0-3.6-1.3-4.1-3.1c-1.8-6.7-6.7-18.1-14.3-33.8c-6.8-13.9-1-30.6,12.9-37.4
	c1-0.5,1.9-0.9,3-1.2l0,0c14.6-5.1,30.5,2.5,35.7,17.1c0.1,0.3,0.2,0.5,0.3,0.8c5.9,18.6,5.6,38.4,5.2,46.1
	c-0.1,1.9-1.5,3.5-3.3,3.9l-34.4,7.5C114.6,349.2,114.2,349.3,113.9,349.3z"/>
<polygon class="st13" points="147.3,568.4 158.8,568.4 164.3,524 147.3,524 "/>
<path class="st8" d="M181,579.1l-36.2,0l0,0l0-14l0,0l22.2,0C174.8,565.2,181,571.4,181,579.1L181,579.1L181,579.1L181,579.1z"/>
<polygon class="st13" points="32.1,553.5 42.2,559.1 68.4,522.8 53.5,514.6 "/>
<path class="st8" d="M56.5,579.1l-31.7-17.4l0,0l6.7-12.3l0,0L51,560.1C57.8,563.9,60.2,572.4,56.5,579.1L56.5,579.1L56.5,579.1z"/>
<path class="st8" d="M146.8,543.8c-2.1,0-3.9-1.6-4.2-3.7l-14.4-111c-0.2-1.3-1.3-2.2-2.6-2c-0.7,0.1-1.4,0.5-1.8,1.2l-60,108.9
	c-1,1.8-3.2,2.7-5.2,1.9l-13.1-5c-2.2-0.8-3.3-3.3-2.4-5.5c0,0,0-0.1,0-0.1l41.6-102.2c0.1-0.3,0.2-0.5,0.2-0.8
	c5.6-43.6,20-65.8,24.2-71.5c0.6-0.9,0.8-2,0.5-3l-0.6-1.8c-0.5-1.4-0.2-3,0.8-4.1c15.3-17.5,42.1-7.9,42.4-7.8l0.1,0l0.1,0.1
	c30,41.1,18.9,174.7,16.4,201.1c-0.2,2-1.8,3.7-3.9,3.8l-17.7,1.4C147,543.8,146.9,543.8,146.8,543.8z"/>
<path class="st14" d="M157.4,295.2l-13,16.9c-1.4,1.8-4.1,2.2-5.9,0.8c-0.2-0.1-0.3-0.3-0.5-0.4l-14.8-15.3c-5.1-4-6-11.4-2-16.5
	c4-5.1,11.3-6,16.4-2.1l18.5,10.4c2,1.1,2.8,3.7,1.6,5.8C157.6,294.9,157.5,295.1,157.4,295.2L157.4,295.2z"/>
<path class="st9" d="M113.3,237.2c5.9,4.1,13.7,8.2,19.8,3.9c3.9-3,5.4-8.1,3.6-12.7c-2.9-8.3-10.9-11.9-18.5-14.7
	c-9.9-3.6-20.7-6.5-30.9-3.9S68,222.2,69.8,232.6c1.5,8.4,9.4,15.3,8.2,23.7c-1.1,8.5-10.7,12.9-19.1,14.4s-17.8,2-23.9,8
	c-7.7,7.7-5.8,21.5,1.5,29.6s18.2,11.8,28.8,14.3c14.1,3.3,29.3,5.1,42.6-0.4s23.7-20.3,19.9-34.3c-1.6-5.9-5.5-10.8-9.2-15.7
	s-7.5-9.9-8.9-15.8c-1.2-4.9-0.3-10.7,3-14.4C114,240.8,114.2,238.8,113.3,237.2L113.3,237.2z"/>
</svg>
