<?xml version="1.0" encoding="utf-8"?>
<!-- Generator: Adobe Illustrator 25.2.0, SVG Export Plug-In . SVG Version: 6.00 Build 0)  -->
<svg version="1.1" id="Warstwa_1" xmlns="http://www.w3.org/2000/svg" xmlns:xlink="http://www.w3.org/1999/xlink" x="0px" y="0px"
	 viewBox="0 0 821.2 687.8" style="enable-background:new 0 0 821.2 687.8;" xml:space="preserve">
<style type="text/css">
	.st0{fill:#9E616A;}
	.st1{fill:#2F2E41;}
	.st2{fill:#3F3D56;}
	.st3{fill:#66AABF;}
	.st4{fill:#CCCCCC;}
	.st5{fill:#E6E6E6;}
	.st6{fill:#2D293D;}
	.st7{fill:#A0616A;}
	.st8{fill:#CBEFED;}
	.st9{fill:url(#SVGID_1_);}
</style>
<g id="Warstwa_2_1_">
</g>
<g id="bb328e6d-602c-4acd-b0f5-b204c203e1c3">
	<polygon class="st0" points="756,674.6 743.7,674.6 737.9,627.3 756,627.3 	"/>
	<path class="st1" d="M759.1,686.4h-39.5v-0.5c0-8.5,6.9-15.4,15.4-15.4l0,0h24.1V686.4z"/>
	<polygon class="st0" points="709,674.6 696.7,674.6 690.9,627.3 709,627.3 	"/>
	<path class="st1" d="M712.1,686.4h-39.5v-0.5c0-8.5,6.9-15.4,15.4-15.4l0,0h24.1V686.4z"/>
	<path class="st2" d="M165,352c-1.7,0-3-1.3-3-3c0-0.7,0.3-1.5,0.8-2l131.6-146.8l129.5,72.7L554.2,48.4l132.7,109.2
		c1.3,1.1,1.5,2.9,0.4,4.2s-2.9,1.5-4.2,0.4l0,0L555.8,57.6L426.1,281.1l-130.5-73.3L167.2,351C166.7,351.6,165.9,352,165,352z"/>
	<circle id="a1f8771a-4bf9-4603-9747-6ae739e4ad47" class="st3" cx="161.8" cy="347" r="28"/>
	<circle id="ffdbdf53-78c2-412f-9ede-372406e5d245" class="st4" cx="291.8" cy="200.2" r="28"/>
	<circle id="b7cff929-f00d-4f86-944c-e500b6ceb6ad" class="st5" cx="427.3" cy="274.4" r="28"/>
	<circle id="eabc0b76-6faa-4fa0-934c-daff28b491dd" class="st3" cx="556.8" cy="48.4" r="28"/>
	<circle id="a7ca0488-8ee6-49e2-b245-2872b84c042e" class="st3" cx="717.8" cy="236.5" r="28"/>
	<path id="b579ef19-595a-43de-9b6d-0ead8268ca48" class="st2" d="M707.9,454.7c10.5,1.3,37.3-8.3,38.7,6.2
		c13.8,40.6,13.4,196.3,13.4,196.3l-21,1c0,0-16.8-123.7-24.7-150.1c-4,32.2-3.3,155.1-3.3,155.1l-19,1c0,0-17-104.7-17.1-135.5
		c-2.1-22.5,3-55.9,0.8-77.6C686.1,454.4,697.1,455.6,707.9,454.7L707.9,454.7z"/>
	<path id="ac7870c5-efcc-4c4b-b17f-07e0bff4d096" class="st0" d="M672.3,336.9c-4.2-8.6-9.3-16.7-15.3-24.2c-1.2-1.5-2.4-3-3.4-4.6
		c-2.2-3.7-2.8-8.1-4.2-12.2c-3.8-11.4-13.3-20.6-15.6-32.5c-0.8-4.3-7.9,8.2-6.1,13.5c3.3,9.6,3.8,19.9,8,29.2s9.2,18.3,12.9,27.8
		c2.1,5.4,3.7,11,6.8,16s7.8,9.2,13.6,9.9c0-3.6,0.5-7.2,1.6-10.7C671.9,345.2,674.1,340.6,672.3,336.9z"/>
	<path id="be4b35b3-6955-40b7-9549-45fdba6a2930" class="st0" d="M735.2,343.3c-0.3-7.1,0.8-14.1,3.2-20.8c0.9-2.5,2-5.1,1.9-7.9
		c-0.1-2.5-1.3-4.8-2.4-7.1c-3.8-7.9-6.4-16.2-9-24.5l-5-15.6c-1.6-1.2,7.9-1.6,9.9,1.2c6.6,9.2,11.7,19.8,16.9,29.9
		c1.3,2.4,2.5,4.9,3.4,7.5c1.3,4.2,1.9,8.6,1.8,12.9c0,8.2-1.1,16.4-2.2,24.5c-0.7,5.1-1.6,10.6-5.5,14
		C744.3,352.3,740.3,347.3,735.2,343.3z"/>
	<circle id="a7d383a2-21d6-4551-be8a-8c82a5e576cb" class="st0" cx="708.8" cy="314.5" r="20.8"/>
	<path id="fb091cb1-8ad4-4d57-b74d-c940c723d6bf" class="st6" d="M691.9,293.8c-0.5-1.3-0.2-2.7,0.8-3.7c0.5-0.4,1.2-0.6,1.8-1
		c0.8-0.7,1.4-1.5,1.9-2.4c2.9-4.1,8.4-5.5,12.9-3.3c3.4,1.8,5.5,5.4,8.5,7.8c1.5,1.3,3.3,2.2,4.9,3.4c3.1,2.7,5.3,6.3,6.4,10.3
		c1,4,1.6,8,1.8,12.1c0.2,1.2,0.1,2.5-0.1,3.7c-0.3,1-0.8,2-1.4,2.8c-3.1,4.7-7.3,9.1-12.4,11.5s-11.5,2.8-16.6,0.3
		c-0.5-0.2-1-0.6-1.3-1c-0.3-0.7-0.4-1.5-0.2-2.2c0.3-2.9-0.3-5.8-1.7-8.4c-1-1.9-2.4-3.5-3.1-5.5c-0.7-2.2-1-4.5-0.9-6.8
		C693,305.5,693.4,299.5,691.9,293.8z"/>
	<circle class="st7" cx="627.2" cy="265.4" r="9"/>
	<circle class="st7" cx="727.2" cy="261.4" r="9"/>
	<path class="st5" d="M749.1,372.8c0.9-0.8,8-42.7,8-43.6c-0.1-5.2-15.8-11-19-9c-3,1.9-8.1,24.1-11.5,28.2l-3.5-6.2h-28l-1.7,3.2
		c-3.7-2.2-7-4.3-8.2-4.9c-0.4-0.3-0.8-0.5-1.3-0.6c-2.9-0.7-5.6-1.9-8-3.8c-2.3-1.8-13-20.3-15.8-19.8c-3.2,0.5-14.1,10-14,19
		c1.4,0,19.2,35.6,19.5,37c1.4,5.6,5.9,87.6,7.4,91.4c6.7-0.7,1.4-1.8,7.9,0c7,2,14.4-0.2,21.6-0.9c3-0.3,6-0.4,9.1-0.4
		c11,0,26.7,0.7,37.3,3.4c0.1-7-6.1-22.1-8.3-28.7c-0.3-2-0.3-4,0-5.9C740.8,428.6,746.7,375.4,749.1,372.8z"/>
</g>
<g id="Warstwa_3">
	<path class="st8" d="M499.7,229.5v386.3c0,1,0,1.9-0.1,2.9v7.3c0,13.2-10.7,23.9-23.9,23.9h-351c-5,0-9.6-1.5-13.4-4.1c0,0,0,0,0,0
		c-6.4-5.2-10.5-13.2-10.5-22.1V370.7c0-15.7,12.8-28.5,28.5-28.5c15.8,0,28.5,12.7,28.5,28.5v84.5H157c0.5,2.1,0.8,4.3,0.8,6.5V574
		c0,15.7,12.8,28.5,28.5,28.5c7.9,0,15-3.2,20.1-8.4c5.2-5.2,8.4-12.3,8.4-20.1V286.6c0-15.7,12.8-28.5,28.5-28.5
		c15.8,0,28.5,12.8,28.5,28.5V524c0,15.7,12.8,28.5,28.5,28.5c7.9,0,15-3.2,20.1-8.4c5.2-5.2,8.4-12.3,8.4-20.1V165.1
		c0-15.7,12.8-28.5,28.5-28.5c15.8,0,28.5,12.8,28.5,28.5v385c0,15.7,12.8,28.5,28.5,28.5c7.9,0,15-3.2,20.1-8.4
		c5.2-5.2,8.4-12.3,8.4-20.1V229.5c0-15.7,12.8-28.5,28.5-28.5S499.7,213.7,499.7,229.5z"/>
</g>
<linearGradient id="SVGID_1_" gradientUnits="userSpaceOnUse" x1="357.6576" y1="399.1038" x2="357.571" y2="201.2318">
	<stop  offset="0" style="stop-color:#CBEFED"/>
	<stop  offset="1" style="stop-color:#0051BF"/>
</linearGradient>
<path class="st9" d="M357.6,529.6L357.6,529.6c-15.5,0-28.1-12.6-28.1-28.1V164.6c0-15.5,12.6-28.1,28.1-28.1h0
	c15.5,0,28.1,12.6,28.1,28.1v336.9C385.7,517.1,373.1,529.6,357.6,529.6z"/>
</svg>
