<?xml version="1.0" encoding="utf-8"?>
<!-- Generator: Adobe Illustrator 24.3.0, SVG Export Plug-In . SVG Version: 6.00 Build 0)  -->
<svg version="1.1" id="f70d1d67-2307-47c9-95aa-2ba80c7f80c2"
	 xmlns="http://www.w3.org/2000/svg" xmlns:xlink="http://www.w3.org/1999/xlink" x="0px" y="0px" viewBox="0 0 895.6 639.8"
	 style="enable-background:new 0 0 895.6 639.8;" xml:space="preserve">
<style type="text/css">
	.st0{fill:#3C4654;}
	.st1{fill:#FFFFFF;}
	.st2{fill:#F5F5F5;}
	.st3{fill:#31D3B8;}
	.st4{fill:#169179;}
	.st5{opacity:0.3;fill:#6C63FF;enable-background:new    ;}
	.st6{opacity:0.5;}
	.st7{fill:#47E6B1;}
	.st8{opacity:0.5;fill:#4D8AF0;enable-background:new    ;}
	.st9{opacity:0.5;fill:#F55F44;enable-background:new    ;}
	.st10{opacity:0.5;fill:#47E6B1;enable-background:new    ;}
</style>
<path class="st0" d="M80.3,44.5l176.6-40c7.2-1.6,14.4,2.9,16.1,10.1L333.7,283c1.6,7.2-2.9,14.4-10.1,16.1L147,339
	c-7.2,1.6-14.4-2.9-16.1-10.1L70.2,60.5C68.5,53.3,73.1,46.1,80.3,44.5z"/>
<circle class="st1" cx="87.6" cy="87" r="6"/>
<circle class="st1" cx="93.6" cy="109" r="6"/>
<circle class="st1" cx="132.6" cy="270" r="6"/>
<circle class="st1" cx="138.6" cy="292" r="6"/>
<rect x="135.1" y="129.6" transform="matrix(0.9753 -0.2207 0.2207 0.9753 -26.0328 47.0677)" class="st2" width="124.9" height="20.8"/>
<rect x="245.7" y="126.3" transform="matrix(0.9753 -0.2207 0.2207 0.9753 -52.5788 84.0378)" class="st3" width="208" height="302"/>
<rect x="459.7" y="77.9" transform="matrix(0.9753 -0.2207 0.2207 0.9753 -36.6166 130.0604)" class="st0" width="208" height="302"/>
<rect x="259.1" y="162.6" transform="matrix(0.9753 -0.2207 0.2207 0.9753 -30.2584 75.2528)" class="st2" width="124.9" height="20.8"/>
<rect x="247.7" y="211.9" transform="matrix(0.9753 -0.2207 0.2207 0.9753 -39.1753 78.3455)" class="st2" width="166.5" height="5.2"/>
<rect x="250.4" y="223.7" transform="matrix(0.9753 -0.2207 0.2207 0.9753 -41.723 79.2291)" class="st2" width="166.5" height="5.2"/>
<rect x="253.1" y="235.5" transform="matrix(0.9753 -0.2207 0.2207 0.9753 -44.2707 80.1127)" class="st2" width="166.5" height="5.2"/>
<rect x="256.8" y="257" transform="matrix(0.9753 -0.2207 0.2207 0.9753 -49.9741 71.8975)" class="st2" width="79.8" height="5.2"/>
<rect x="259.4" y="267.5" transform="matrix(0.9753 -0.2207 0.2207 0.9753 -52.08 74.055)" class="st2" width="91.9" height="5.2"/>
<rect x="261.1" y="271.1" transform="matrix(0.9753 -0.2207 0.2207 0.9753 -51.9137 82.7636)" class="st2" width="166.5" height="5.2"/>
<rect x="263.8" y="282.9" transform="matrix(0.9753 -0.2207 0.2207 0.9753 -54.4614 83.6472)" class="st2" width="166.5" height="5.2"/>
<rect x="266.6" y="296.1" transform="matrix(0.9753 -0.2207 0.2207 0.9753 -57.4509 83.257)" class="st2" width="154.4" height="5.2"/>
<rect x="269.2" y="306.6" transform="matrix(0.9753 -0.2207 0.2207 0.9753 -59.5568 85.4145)" class="st2" width="166.5" height="5.2"/>
<rect x="272.8" y="327.2" transform="matrix(0.9753 -0.2207 0.2207 0.9753 -65.0078 77.9271)" class="st2" width="86.7" height="5.2"/>
<rect x="495.7" y="290.4" transform="matrix(0.9753 -0.2207 0.2207 0.9753 -51.3199 126.797)" class="st4" width="91.9" height="5.2"/>
<rect x="497.5" y="294" transform="matrix(0.9753 -0.2207 0.2207 0.9753 -51.1536 135.5057)" class="st4" width="166.5" height="5.2"/>
<rect x="500.2" y="305.9" transform="matrix(0.9753 -0.2207 0.2207 0.9753 -53.7013 136.3893)" class="st4" width="166.5" height="5.2"/>
<rect x="503" y="319.1" transform="matrix(0.9753 -0.2207 0.2207 0.9753 -56.6908 135.9991)" class="st4" width="154.4" height="5.2"/>
<rect x="505.5" y="329.6" transform="matrix(0.9753 -0.2207 0.2207 0.9753 -58.7966 138.1565)" class="st4" width="166.5" height="5.2"/>
<rect x="345.2" y="331.4" transform="matrix(0.9753 -0.2207 0.2207 0.9753 -71.0591 96.3354)" class="st2" width="100.6" height="69.4"/>
<rect x="461.4" y="106" transform="matrix(0.9753 -0.2207 0.2207 0.9753 -18.4304 116.4091)" class="st4" width="100.6" height="69.4"/>
<rect x="557.4" y="176.7" transform="matrix(0.9753 -0.2207 0.2207 0.9753 -31.6756 139.3512)" class="st5" width="100.6" height="69.4"/>
<g class="st6">
	<rect x="185.6" y="510.3" class="st7" width="3" height="17"/>
	<rect x="178.6" y="517.3" class="st7" width="17" height="3"/>
</g>
<g class="st6">
	<rect x="512.6" class="st7" width="3" height="17"/>
	<rect x="505.6" y="7" class="st7" width="17" height="3"/>
</g>
<g class="st6">
	<rect x="885.6" y="125" class="st7" width="3" height="17"/>
	<rect x="878.6" y="132" class="st7" width="17" height="3"/>
</g>
<path class="st8" d="M360.3,508.6c-1.7-0.7-2.6-2.7-2-4.4c0-0.1,0.1-0.3,0.1-0.4l0,0c0.1-1-0.7-1.9-1.7-2c-0.6,0-1.2,0.2-1.6,0.7
	l0,0c-0.1,0.1-0.2,0.2-0.2,0.4c-0.7,1.7-2.7,2.6-4.4,2c-0.1,0-0.3-0.1-0.4-0.1l0,0c-1-0.1-1.9,0.7-2,1.7c0,0.6,0.2,1.2,0.7,1.6l0,0
	c0.1,0.1,0.2,0.2,0.4,0.2c1.7,0.7,2.6,2.7,2,4.4c0,0.1-0.1,0.3-0.1,0.4l0,0c-0.1,1,0.7,1.9,1.7,2c0.6,0,1.2-0.2,1.6-0.7l0,0
	c0.1-0.1,0.2-0.2,0.2-0.4c0.7-1.7,2.7-2.6,4.4-2c0.1,0,0.3,0.1,0.4,0.1l0,0c1,0.1,1.9-0.7,2-1.7c0-0.6-0.2-1.2-0.7-1.6l0,0
	C360.5,508.7,360.4,508.6,360.3,508.6z"/>
<path class="st8" d="M506.5,633.2c-1.7-0.7-2.6-2.7-2-4.4c0-0.1,0.1-0.3,0.1-0.4l0,0c0.1-1-0.7-1.9-1.7-2c-0.6,0-1.2,0.2-1.6,0.7
	l0,0c-0.1,0.1-0.2,0.2-0.2,0.4c-0.7,1.7-2.7,2.6-4.4,2c-0.1,0-0.3-0.1-0.4-0.1l0,0c-1-0.1-1.9,0.7-2,1.7c0,0.6,0.2,1.2,0.7,1.6l0,0
	c0.1,0.1,0.2,0.2,0.4,0.2c1.7,0.7,2.6,2.7,2,4.4c0,0.1-0.1,0.3-0.1,0.4l0,0c-0.1,1,0.7,1.9,1.7,2c0.6,0,1.2-0.2,1.6-0.7l0,0
	c0.1-0.1,0.2-0.2,0.2-0.4c0.7-1.7,2.7-2.6,4.4-2c0.1,0,0.3,0.1,0.4,0.1l0,0c1,0.1,1.9-0.7,2-1.7c0-0.6-0.2-1.2-0.7-1.6l0,0
	C506.7,633.4,506.6,633.3,506.5,633.2z"/>
<path class="st8" d="M12.3,211.3c-1.7-0.7-2.6-2.7-2-4.4c0-0.1,0.1-0.3,0.1-0.4l0,0c0.1-1-0.7-1.9-1.7-2c-0.6,0-1.2,0.2-1.6,0.7l0,0
	c-0.1,0.1-0.2,0.2-0.2,0.4c-0.7,1.7-2.7,2.6-4.4,2c-0.1,0-0.3-0.1-0.4-0.1l0,0c-1-0.1-1.9,0.7-2,1.7c0,0.6,0.2,1.2,0.7,1.6l0,0
	c0.1,0.1,0.2,0.2,0.4,0.2c1.7,0.7,2.6,2.7,2,4.4c0,0.1-0.1,0.3-0.1,0.4l0,0c-0.1,1,0.7,1.9,1.7,2c0.6,0,1.2-0.2,1.6-0.7l0,0
	c0.1-0.1,0.2-0.2,0.2-0.4c0.7-1.7,2.7-2.6,4.4-2c0.1,0,0.3,0.1,0.4,0.1l0,0c1,0.1,1.9-0.7,2-1.7c0-0.6-0.2-1.2-0.7-1.6l0,0
	C12.5,211.4,12.4,211.4,12.3,211.3z"/>
<path class="st8" d="M877.5,363.2c-1.7-0.7-2.6-2.7-2-4.4c0-0.1,0.1-0.3,0.1-0.4l0,0c0.1-1-0.7-1.9-1.7-2c-0.6,0-1.2,0.2-1.6,0.7
	l0,0c-0.1,0.1-0.2,0.2-0.2,0.4c-0.7,1.7-2.7,2.6-4.4,2c-0.1,0-0.3-0.1-0.4-0.1l0,0c-1-0.1-1.9,0.7-2,1.7c0,0.6,0.2,1.2,0.7,1.6l0,0
	c0.1,0.1,0.2,0.2,0.4,0.2c1.7,0.7,2.6,2.7,2,4.4c0,0.1-0.1,0.3-0.1,0.4l0,0c-0.1,1,0.7,1.9,1.7,2c0.6,0,1.2-0.2,1.6-0.7l0,0
	c0.1-0.1,0.2-0.2,0.2-0.4c0.7-1.7,2.7-2.6,4.4-2c0.1,0,0.3,0.1,0.4,0.1l0,0c1,0.1,1.9-0.7,2-1.7c0-0.6-0.2-1.2-0.7-1.6l0,0
	C877.7,363.4,877.6,363.3,877.5,363.2z"/>
<circle class="st9" cx="107.6" cy="455.3" r="6"/>
<circle class="st8" cx="321.6" cy="6" r="6"/>
<circle class="st10" cx="463.8" cy="457.9" r="6"/>
<circle class="st9" cx="809.8" cy="607.9" r="6"/>
<path class="st3" d="M518.3,171.5l176.6-40c7.2-1.6,14.4,2.9,16.1,10.1L771.7,410c1.6,7.2-2.9,14.4-10.1,16.1L585,466
	c-7.2,1.6-14.4-2.9-16.1-10.1l-60.7-268.4C506.5,180.3,511.1,173.1,518.3,171.5z"/>
<circle class="st1" cx="525.6" cy="214" r="6"/>
<circle class="st1" cx="531.6" cy="236" r="6"/>
<circle class="st1" cx="570.6" cy="397" r="6"/>
<circle class="st1" cx="576.6" cy="419" r="6"/>
<rect x="573.1" y="256.6" transform="matrix(0.9753 -0.2207 0.2207 0.9753 -43.2623 146.8822)" class="st2" width="124.9" height="20.8"/>
</svg>
