<?xml version="1.0" encoding="utf-8"?>
<!-- Generator: Adobe Illustrator 24.3.0, SVG Export Plug-In . SVG Version: 6.00 Build 0)  -->
<svg version="1.1" xmlns="http://www.w3.org/2000/svg" xmlns:xlink="http://www.w3.org/1999/xlink" x="0px" y="0px"
	 viewBox="0 0 400 400" style="enable-background:new 0 0 400 400;" xml:space="preserve">
<style type="text/css">
	.st0{fill:#FFFFFF;stroke:#1D1D1B;stroke-width:2;stroke-miterlimit:10;}
	.st1{fill:#402960;stroke:#FFFFFF;stroke-width:2;stroke-miterlimit:10;}
	.st2{fill:none;stroke:#1C1C1A;stroke-miterlimit:10;}
	.st3{fill:#FFFFFF;stroke:#1D1D1B;stroke-miterlimit:10;}
	.st4{fill:#D3E3EF;}
	.st5{fill:#409EF2;}
</style>
<g id="Warstwa_1">
	<path class="st0" d="M388,299.62H12c-6.6,0-12-5.4-12-12V13.35c0-6.6,5.4-12,12-12h376c6.6,0,12,5.4,12,12v274.27
		C400,294.22,394.6,299.62,388,299.62z"/>
	<g>
		<circle class="st1" cx="19.76" cy="17.86" r="5"/>
		<circle class="st1" cx="37.32" cy="17.86" r="5"/>
		<circle class="st1" cx="54.89" cy="17.86" r="5"/>
	</g>
	<path class="st2" d="M313.57,50.22H86.43c-6.6,0-12,5.4-12,12v1.41c0,6.6,5.4,12,12,12h227.14c6.6,0,12-5.4,12-12v-1.41
		C325.57,55.62,320.17,50.22,313.57,50.22z"/>
</g>
<g id="Warstwa_2">
	<g>
		<path class="st3" d="M338.11,168.09H61.89c-6.6,0-12-5.4-12-12v-50.7c0-6.6,5.4-12,12-12h276.22c6.6,0,12,5.4,12,12v50.7
			C350.11,162.69,344.71,168.09,338.11,168.09z"/>
		<path class="st4" d="M100.59,149.82H86.43c-6.6,0-12-5.4-12-12v-14.16c0-6.6,5.4-12,12-12h14.16c6.6,0,12,5.4,12,12v14.16
			C112.59,144.42,107.19,149.82,100.59,149.82z"/>
	</g>
	<g>
		<g>
			<path class="st5" d="M326.18,148.74H132.53c-3.83,0-6.96-3.13-6.96-6.96v0c0-3.83,3.13-6.96,6.96-6.96h193.65
				c3.83,0,6.96,3.13,6.96,6.96v0C333.14,145.61,330,148.74,326.18,148.74z"/>
		</g>
		<path class="st5" d="M244.55,126.66H132.53c-3.83,0-6.96-3.13-6.96-6.96v0c0-3.83,3.13-6.96,6.96-6.96h112.03
			c3.83,0,6.96,3.13,6.96,6.96v0C251.51,123.53,248.38,126.66,244.55,126.66z"/>
	</g>
	<g>
		<path class="st3" d="M338.11,260.57H61.89c-6.6,0-12-5.4-12-12v-50.7c0-6.6,5.4-12,12-12h276.22c6.6,0,12,5.4,12,12v50.7
			C350.11,255.17,344.71,260.57,338.11,260.57z"/>
		<path class="st4" d="M100.59,242.3H86.43c-6.6,0-12-5.4-12-12v-14.16c0-6.6,5.4-12,12-12h14.16c6.6,0,12,5.4,12,12v14.16
			C112.59,236.9,107.19,242.3,100.59,242.3z"/>
	</g>
	<g>
		<g>
			<path class="st4" d="M326.18,241.22H132.53c-3.83,0-6.96-3.13-6.96-6.96v0c0-3.83,3.13-6.96,6.96-6.96h193.65
				c3.83,0,6.96,3.13,6.96,6.96v0C333.14,238.08,330,241.22,326.18,241.22z"/>
		</g>
		<path class="st4" d="M244.55,219.14H132.53c-3.83,0-6.96-3.13-6.96-6.96v0c0-3.83,3.13-6.96,6.96-6.96h112.03
			c3.83,0,6.96,3.13,6.96,6.96v0C251.51,216,248.38,219.14,244.55,219.14z"/>
	</g>
	<g>
		<path class="st3" d="M338.11,353.04H61.89c-6.6,0-12-5.4-12-12v-50.7c0-6.6,5.4-12,12-12h276.22c6.6,0,12,5.4,12,12v50.7
			C350.11,347.64,344.71,353.04,338.11,353.04z"/>
		<path class="st4" d="M100.59,334.77H86.43c-6.6,0-12-5.4-12-12v-14.16c0-6.6,5.4-12,12-12h14.16c6.6,0,12,5.4,12,12v14.16
			C112.59,329.37,107.19,334.77,100.59,334.77z"/>
	</g>
	<g>
		<g>
			<path class="st4" d="M326.18,333.69H132.53c-3.83,0-6.96-3.13-6.96-6.96l0,0c0-3.83,3.13-6.96,6.96-6.96h193.65
				c3.83,0,6.96,3.13,6.96,6.96l0,0C333.14,330.56,330,333.69,326.18,333.69z"/>
		</g>
		<path class="st4" d="M244.55,311.61H132.53c-3.83,0-6.96-3.13-6.96-6.96l0,0c0-3.83,3.13-6.96,6.96-6.96h112.03
			c3.83,0,6.96,3.13,6.96,6.96l0,0C251.51,308.48,248.38,311.61,244.55,311.61z"/>
	</g>
</g>
</svg>
